/* XPM */
static char * C4_xpm[] = {
"20 320 5 1",
" 	c None",
".	c #A00000",
"X	c #C80000",
"o	c #FF0000",
"O	c #780000",
"                    ",
"                    ",
"                    ",
"         .X.        ",
"        .XoX.       ",
"       .XoooX.      ",
"     O .XoooX. O    ",
"     O..XoooX..O    ",
"    OO..XoooX..OO   ",
"    OO..XoooX..OO   ",
"    OO. .ooo. .OO   ",
"    .O  OoooO  O.   ",
"     O   .o.   O    ",
"     O  O.o.O  O    ",
"     O  O.X.O  O    ",
"     O  ..O..  O    ",
"        .O O.       ",
"        O   O       ",
"                    ",
"                    ",
"                    ",
"                    ",
"                    ",
"           O.X      ",
"        O XXXo.     ",
"      OO..Xooo.O    ",
"     OX...XoooXO    ",
"     OO..XoooXXO    ",
"    OXO..XoooX..O   ",
"     O  .ooooX..O   ",
"     O  Oooo...OOO  ",
"    OO   .ooO .OO   ",
"    O  O.o.    OO   ",
"    O  ..X.O  OO    ",
"      O.OO.O  O     ",
"      OO ..  OO     ",
"      O  OO  O      ",
"         O          ",
"                    ",
"                    ",
"                    ",
"                    ",
"                    ",
"                    ",
"       OO  OO.O     ",
"      OO.....XXX    ",
"      O....XXooXO   ",
"     OO.O.XooooX.   ",
"    O    .ooooX.O   ",
"   O    OoooooX.O   ",
"        .ooooX..    ",
"      .OXooX....    ",
"     .OXoX.O O..O   ",
"    OO.XXO   ..OO   ",
"       .O.   .OO    ",
"       O.    O      ",
"       O    O       ",
"           O        ",
"                    ",
"                    ",
"                    ",
"                    ",
"                    ",
"         OOO        ",
"       OOO.O        ",
"      OOOO....OO    ",
"    OOO .....XXXO   ",
"   OO    OXXXoooO   ",
"        O.ooooooX   ",
"     OO Xooooooo.   ",
"   .....oooooXX.    ",
"    O.Xo.XoXXX.     ",
"     O..  OO...     ",
"     O.O   ...OO    ",
"    O.     OOOO     ",
"         OOOOO      ",
"       OOO O        ",
"                    ",
"                    ",
"                    ",
"                    ",
"                    ",
"                    ",
"                    ",
"        .OOO        ",
"    OOOOOOOOOO      ",
"         ....       ",
"          .....     ",
"  O..OO O.XXXXX.    ",
"   O....oooooooX.   ",
"    OXooooooooooX   ",
"   O....oooooooX.   ",
"  O..OO O.XXXXX.    ",
"          .....     ",
"         ....       ",
"    OOOOOOOOOO      ",
"        .OOO        ",
"                    ",
"                    ",
"                    ",
"                    ",
"                    ",
"                    ",
"                    ",
"      OOO  O        ",
"        OOOXOO      ",
"   OOO     OOXO     ",
"    O..O   ...O     ",
"     O.. O.....O    ",
"  OO.OXo.ooXX..     ",
"   O....oooooXXX    ",
"     OO oooooooXO   ",
"        O.oooooX.   ",
"   OO    .XXXoooX   ",
"    OOO ....XX..    ",
"      OOOO..OOO     ",
"       OOOOO        ",
"         O          ",
"                    ",
"                    ",
"                    ",
"                    ",
"                    ",
"          O         ",
"      O    O        ",
"      O.    O       ",
"      .O.   OOO     ",
"   OO.XXO   ..OO    ",
"    .OXoX.O O..O    ",
"     .OXooo....     ",
"       .ooooX..     ",
"  O    OXooooX.O    ",
"   O    .ooooX.O    ",
"    O..O.XooooX.    ",
"     O....XXooXO    ",
"     OO.....XXX     ",
"      OO  OO.O      ",
"                    ",
"                    ",
"                    ",
"                    ",
"                    ",
"                    ",
"         .  O       ",
"     O  O.  OO      ",
"     .OO..O  O      ",
"      ..X.O  OO     ",
"   O  O.o.    OO    ",
"   O    .oXO .OO    ",
"   OO   Xoo.O.OOO   ",
"    .  OooooX...O   ",
"   OOO.OXoooX..OO   ",
"    OO..XoooX..     ",
"    OO..XXoooX.     ",
"     OO..XoooXO     ",
"      O  .oooXO     ",
"          .XOO      ",
"                    ",
"                    ",
"                    ",
"                    ",
"                    ",
"       O   O        ",
"       .O O.        ",
"    O  ..O..  O     ",
"    O  O.X.O  O     ",
"    O  O.o.O  O     ",
"    O   .o.   O     ",
"   .O  OoooO  O.    ",
"   OO. .ooo. .OO    ",
"   OO..XoooX..OO    ",
"   OO..XoooX..OO    ",
"    O..XoooX..O     ",
"    O .XoooX. O     ",
"      .XoooX.       ",
"       .XoX.        ",
"        .X.         ",
"                    ",
"                    ",
"                    ",
"                    ",
"                    ",
"          O         ",
"      O  OO  O      ",
"     OO  .. OO      ",
"     O  O.OO.O      ",
"    OO  O.X..       ",
"   OO    .o.O   O   ",
"   OO. Ooo.    O    ",
"  OOO...oooO  OO    ",
"   O..Xoooo.  O     ",
"   O..XoooX..OXO    ",
"    OXXoooX..OO     ",
"    OXoooX...XO     ",
"    O.oooX..OO      ",
"     .oXXX O        ",
"      X.O           ",
"                    ",
"                    ",
"                    ",
"                    ",
"                    ",
"        O           ",
"       O    O       ",
"      O    .O       ",
"    OO.   .O.       ",
"   OO..   OXX.OO    ",
"   O..O O.XoXO.     ",
"    ....XooXO.      ",
"    ..Xoooo.        ",
"   O.XoooooO    O   ",
"   O.Xoooo.    O    ",
"   .XooooX.O.OO     ",
"   OXooXX....O      ",
"    XXX.....OO      ",
"     O.OO  OO       ",
"                    ",
"                    ",
"                    ",
"                    ",
"                    ",
"                    ",
"                    ",
"        O OOO       ",
"      OOOOO         ",
"     OOOO     .O    ",
"    OO...   O.O     ",
"     ...OO  ..O     ",
"     .XXXoX.oX.O    ",
"    .XXooooo.....   ",
"   .oooooooX OO     ",
"   Xoooooo.O        ",
"   OoooXXXO    OO   ",
"   OXXX..... OOO    ",
"    OO....OOOO      ",
"        O.OOO       ",
"        OOO         ",
"                    ",
"                    ",
"                    ",
"                    ",
"                    ",
"                    ",
"        OOO.        ",
"      OOOOOOOOOO    ",
"       ....         ",
"     .....          ",
"    .XXXXX.O OO..O  ",
"   .Xooooooo....O   ",
"   XooooooooooXO    ",
"   .Xooooooo....O   ",
"    .XXXXX.O OO..O  ",
"     .....          ",
"       ....         ",
"      OOOOOOOOOO    ",
"        OOO.        ",
"                    ",
"                    ",
"                    ",
"                    ",
"                    ",
"                    ",
"          O         ",
"        OOOOO       ",
"     OOO..OOOO      ",
"    ..XX.... OO     ",
"   XoooXXX.    OO   ",
"   .Xooooo.O        ",
"   OXooooooo OO     ",
"    XXXooooo....O   ",
"     ..XXoo.oXO.OO  ",
"    O.....O ..O     ",
"     O...   O..O    ",
"     OXOO     OOO   ",
"      OOXOO         ",
"        O OOO       ",
"                    ",
"                    ",
"                    ",
"                    ",
"                    ",
"                    ",
"                    ",
"      O.OO  OO      ",
"     XXX.....OO     ",
"    OXooXX....O     ",
"    .XooooX.O..O    ",
"    O.Xoooo.    O   ",
"    O.XooooXO    O  ",
"     ..Xoooo.       ",
"     ....oooXO.     ",
"    O..O O.XoXO.    ",
"    OO..   OXX.OO   ",
"     OOO   .O.      ",
"       O    .O      ",
"        O    O      ",
"         O          ",
"                    ",
"                    ",
"                    ",
"                    ",
"                    ",
"                    ",
"      OOX.          ",
"     OXooo.  O      ",
"     OXoooX..OO     ",
"     .XoooXX..O     ",
"     ..XoooX..OO    ",
"   OO..XoooXO.OOO   ",
"   O...XooooO  O    ",
"   OOO.O.ooX   O    ",
"    OO. OXo.    O   ",
"    OOO   .o.O  O   ",
"      O  O.X..      ",
"      O  O..OO.     ",
"       O  .O  O     ",
"       O  .         ",
"                    ",
"                    ",
"                    "};
