/* XPM */
static char * C3_xpm[] = {
"20 320 5 1",
" 	c None",
".	c #A00000",
"X	c #C80000",
"o	c #FF0000",
"O	c #780000",
"                    ",
"        .XX.        ",
"       .XooX.       ",
"       XooooX       ",
"      .XooooX.      ",
"  .    XOooOX    .  ",
"  X      OO      X  ",
"  X.     OO     .X  ",
"  OX.    OO    .XO  ",
"  OXXX   OO   XXXO  ",
"  OXXX. XOOX .XXXO  ",
"  XXXOOOOooOOOOXXX  ",
"  OXXOOOooooOOOXXO  ",
"   XXXOOooooOOXXX   ",
"   .XXOOooooOOXX.   ",
"    XX OooooO XX    ",
"    .X XOooOX X.    ",
"     .  XOOX  .     ",
"         XX         ",
"                    ",
"                    ",
"           ..XX     ",
"     .    XoooX.    ",
"    X    .XoooX.    ",
"    X.   XOooooX    ",
"   OOX     ooOX.    ",
"   OXX     OO X.    ",
"   OXXX   OO.       ",
"  OXXXX.  OO      . ",
"   XXOOOXOOO     .X ",
"  .XXOOOOoOX  .X.XO ",
"  .XXOOOoooOO.XXXO  ",
"  .XXOOooooOOOOXXO  ",
"  .XX OooooOOOXXXX  ",
"   . .OooooOOXXXO   ",
"   .  .oooO XXXX    ",
"      .OOOX XX.     ",
"       ..   X.      ",
"           .        ",
"                    ",
"        .           ",
"       X.           ",
"      X.     ...    ",
"     OO.   XXXXoX   ",
"    OOX.   .Xoooo.  ",
"   OXXXX    OoooX.  ",
"   OXXXX    OoooX.  ",
"   XXOO.   OOOOXX   ",
"  .XXOOO XOOO  .X   ",
"  XXXOOOOOOO        ",
"  XXOOOoooOX        ",
" .. OOooooO       . ",
"    .oooooOO.XX...X ",
"    XooooOOOOXXXOX  ",
"    OOooOOOOOXXOO   ",
"     OX.OOXXXXXO    ",
"         XXXXOO     ",
"        .XX.        ",
"        .           ",
"                    ",
"           .        ",
"         OX.        ",
"      XOOX.         ",
"     OXXX.          ",
"    XXXXXX   ..X..  ",
"   .XXXOX.   XXoXXX ",
"  .XXXOO.     OoooX ",
"  XXXOOOO   .Ooooo. ",
" .   OOOOXOOOOoooo. ",
"   XOooooOOOO  OXX  ",
"   OooooooO    X.   ",
"  .OoooooOX         ",
"  .OooooOOO.        ",
"   ..OOOOOOXX       ",
"     . OOOOXXXX. .  ",
"      XXXXXXXXOXX   ",
"    ..XXXXXXOOO     ",
"      .... O        ",
"                    ",
"                    ",
"                    ",
"                    ",
"       OXOOOXX.     ",
"     .XXXXXX.       ",
"   .XXXXXXX.        ",
"  .XXXXOOXX         ",
"     OOOO.     .    ",
"   XOOOOO     XXX.  ",
"  XOooooOX    OooX. ",
" XOooooooOOOOOooooX ",
" XOooooooOOOOOooooX ",
"  XOooooOX    OooX. ",
"   XOOOOO     XXX.  ",
"     OOOO.     .    ",
"  .XXXXOOXX         ",
"   .XXXXXXX.        ",
"     .XXXXXX.       ",
"       OXOOOX..     ",
"                    ",
"                    ",
"                    ",
"                    ",
"      .... O        ",
"    ..XXXXXXOOO     ",
"      XXXXXXXXO     ",
"     . OOOOXXXXXX   ",
"   ..OOOOOOXX  . .  ",
"  .OooooOOO.        ",
"  .OoooooOX         ",
"   OooooooO    X.   ",
"   XOooooOOOO  OXX  ",
" .   OOOOXOOOOoooo. ",
"  XXXOOOO   .Ooooo. ",
"  .XXXOO.     OoooX ",
"   .XXXOX.   XXoXXX ",
"    XXXXXX   ..X..  ",
"     OXXX.          ",
"      XOOX.         ",
"         OX.        ",
"           .        ",
"                    ",
"        .           ",
"        .XX.        ",
"         XXXXOO     ",
"     OX.OOXXXXXO    ",
"    OOooOOOOOXXOO   ",
"    XooooOOOOXXXOX  ",
"    .oooooOO.XX...X ",
" .. OOooooO       . ",
"  XXOOOoooOX        ",
"  XXXOOOOOOO        ",
"  .XXOOO XOOO  .X   ",
"   XXOO.   OOOOXX   ",
"   OXXXX    OoooX.  ",
"   OXXXX    OoooX.  ",
"    OOX.   .Xoooo.  ",
"     OO.   XXXoo.   ",
"      X.     ...    ",
"       X.           ",
"        .           ",
"                    ",
"           .        ",
"       ..   X.      ",
"      .OOOX XX.     ",
"   .  .oooO XXXX    ",
"   . .OooooOOXXXO   ",
"  .XX OooooOOOXXX   ",
"  .XXOOooooOOOOXXO  ",
"  .XXOOOoooOO.XXXO  ",
"  .XXOOOOoOX  .X.XO ",
"   XXOOOXOOO     .X ",
"  OXXXX.  OO      . ",
"   OXXX   OO.       ",
"   OXX     OO X.    ",
"   OOX     ooOX.    ",
"    X.   XOooooX    ",
"    X    .Xooo..    ",
"     .    Xooo..    ",
"           ..XX     ",
"                    ",
"                    ",
"         XX         ",
"     .  XOOX  .     ",
"    .X XOooOX X     ",
"    XX OooooO X.    ",
"   .XXOOooooOOXX    ",
"   XXXOOooooOOXX.   ",
"  OXXOOOooooOOOXXO  ",
"  XXXOOOOooOOOOXXX  ",
"  OXXX. XOOX .XXXO  ",
"  OXXX   OO   XXXO  ",
"  OX.    OO    .XO  ",
"  X.     OO     .X  ",
"  .      OO      X  ",
"  .    XOooOX    .  ",
"      .XooooX.      ",
"       XooooX       ",
"       .XooX.       ",
"        .XX.        ",
"                    ",
"                    ",
"        .           ",
"      .X   ..       ",
"     .XX XOOO.      ",
"    XXXX Oooo.  .   ",
"   OXXXOOooooO. .   ",
"  XXXXOOOooooO X.   ",
"  OXXOOOOooooOOXX.  ",
"  OXXX.OOoooOOOXX.  ",
" OX.X.  XOoOOOOXX.  ",
" X.     OOOXOOOXX   ",
"..      OO  .XXXXO  ",
"       .OO   XXXO   ",
"    .X OO     XXO   ",
"    .XOoo     XOO   ",
"    XooooOX   XX    ",
"    .XoooX.    .    ",
"    .XoooX    .     ",
"     XX..           ",
"                    ",
"                    ",
"           .        ",
"        .XX.        ",
"     OOXXXX         ",
"    OXXXXXOO.XO     ",
"   OOXXOOOOOooXO    ",
"  XOXXXOOOOooooX    ",
" X...XX.OOooooo.    ",
"..       OooooOO .. ",
"        XOoooOOOXX  ",
"        OOOOOOOXXX  ",
"   X.  OOOX OOOXX.  ",
"   XXOOOO   .OOXX   ",
"  .XoooO    XXXXO   ",
"  .ooooO    XXXXO   ",
"  .ooooX.   .XOO    ",
"   .oXXXX   .OO     ",
"    ...     .X      ",
"           .X       ",
"           .        ",
"                    ",
"                    ",
"        O ...       ",
"     OOOXXXXXX..    ",
"   XXOXXXXXXXX      ",
"  . .XXXXOOOO .     ",
"       XXOOOOOO..   ",
"        .OOOooooO.  ",
"         XOoooooO.  ",
"   .X    OooooooO   ",
"  XXO  OOOOooooOX   ",
" .ooooOOOOXOOOO   . ",
" .ooooO.   OOOOXXX  ",
" XoooO     .OOXXX.  ",
" X..oXX   .XOXXX.   ",
"  ..X..   XXXXXX    ",
"          .XXOO     ",
"         .XOO       ",
"        .XO         ",
"        .           ",
"                    ",
"                    ",
"     ..XOOOXO       ",
"       .XXXXXX.     ",
"        .XXXXXXX.   ",
"         XXOOXXX..  ",
"    .     .OOOO     ",
"  .XXX     OOOOOX   ",
" .XooO    XOooooOX  ",
" XooooOOOOOooooooOX ",
" XooooOOOOOooooooOX ",
" .XooO    XOooooOX  ",
"  .XXX     OOOOOX   ",
"    .     .OOOO     ",
"         XXOOXXXX.  ",
"        .XXXXXXX.   ",
"       .XXXXXX.     ",
"     .XXOOOXO       ",
"                    ",
"                    ",
"        .           ",
"        .XO         ",
"         .XOOX      ",
"          .XXXO     ",
"  ..X..   XXXXX     ",
" XXXoXX   .XOXXX    ",
" XoooO     .OOXX.   ",
" .ooooO.   OOOOXXX  ",
" .ooooOOOOXOOOO   . ",
"  XXO  OOOOooooOX   ",
"   .X    OooooooO   ",
"         XOoooooO.  ",
"        .OOOooooO.  ",
"       XXOOOOOO..   ",
"  . XXXXXOOOO .     ",
"   .XOXXXXXXXX      ",
"     OOOXXXXX...    ",
"        O ...       ",
"                    ",
"                    ",
"           .        ",
"           .X       ",
"    ...     .X      ",
"   .ooXXX   .OO     ",
"  .ooooX.   .XOO    ",
"  .XoooO    XXXXO   ",
"  .XoooO    XXXXO   ",
"   XXOOOO   .OOXX   ",
"   X.  OOOX OOOXX.  ",
"        OOOOOOOXXX  ",
"        XOoooOOOXX  ",
"..       OooooOO .. ",
" X...XX.OOooooo.    ",
"  XOXXXOOOOooooX    ",
"   OOXXOOOOOooXO    ",
"    OXXXXXOO.XO     ",
"     OOXXXX         ",
"        .XX.        ",
"           .        ",
"                    ",
"                    ",
"     XX..           ",
"    .XoooX    .     ",
"    .XoooX.    .    ",
"    XooooOX   .X    ",
"    .XOoo     XOO   ",
"    .X OO     XXO   ",
"       .OO   XXXO   ",
"..      OO  .XXXXO  ",
" X.     OOOXOOOXX   ",
" OX.X.  XOoOOOOXX.  ",
"  OXXX.OOoooOOOXX.  ",
"  OXXOOOOooooOOXX.  ",
"   OXXOOOooooO XX   ",
"   OXXXOOooooO. .   ",
"    XXXX Oooo.  .   ",
"     .XX XOOO.      ",
"      .X   ..       ",
"        .           ",
"                    "};
