/* XPM */
static char * C2_xpm[] = {
"20 320 5 1",
" 	c None",
".	c #A00000",
"X	c #C80000",
"o	c #780000",
"O	c #FF0000",
"                    ",
"                    ",
"                    ",
"                    ",
"        .  .        ",
"        X  X        ",
"     oooo  oooo     ",
"  .XoOOOO  OOOOoX.  ",
"  XoOOOOO  OOOOOoX  ",
"  ooOOOXX  XXOOOoo  ",
"  ooOOXooXXooXOOoo  ",
"  XXOO.OoXXoO.OOXX  ",
"  . OO.oO..Oo.OO .  ",
"      .Oo  oO.      ",
"       oO  Oo       ",
"       oO  Oo       ",
"                    ",
"                    ",
"                    ",
"                    ",
"                    ",
"                    ",
"                    ",
"           .        ",
"    ......X  .      ",
"   XXooOOoo  X      ",
"   ooOOOOOO  o      ",
"   ooOOOOO  OOoX    ",
"  .XOOOXXX  OOOO.   ",
"    OO.OoXX.XOOOoX  ",
"     O.ooXXooOOOOo. ",
"     .OOO.XoOXOOoo  ",
"      oo  OOo.OOoo  ",
"      oO  oO.OOXXX  ",
"          Oo.   .   ",
"         Xo         ",
"                    ",
"                    ",
"                    ",
"                    ",
"                    ",
"                    ",
"      .             ",
"     oXX..          ",
"    ooooOoX  .      ",
"   XXooOOOOoX       ",
"   X.OOOOOOO   .    ",
"     OOXoXO   X     ",
"     O.ooo   Oo     ",
"     .oOoXX OOOX    ",
"     oOO.XXoXOOo.   ",
"    ooO ..oooOOO.   ",
"     O   OOoXOOoX   ",
"        OOo.OOooX.  ",
"       Ooo.OOOooo   ",
"        o    .Xo    ",
"             XX     ",
"                    ",
"                    ",
"                    ",
"                    ",
"         .          ",
"      XoooX         ",
"     .XooOo.        ",
"      XOOOOO.       ",
"      OOOOOOo       ",
"      O.XOOOOoX.    ",
"     ..oOoXOO       ",
"     oOOoo.     .   ",
"    oOoOXXX  OoX    ",
"    X   .XXXOOo.    ",
"        OooXOOO.    ",
"      OoOoOXOOO.    ",
"      ooO..OOOo.    ",
"        .OOOOOo.    ",
"          OOooX.    ",
"           XooX     ",
"           .        ",
"                    ",
"                    ",
"                    ",
"                    ",
"       .XooX.       ",
"        XoooX       ",
"       OOOOOo       ",
"       OOOOOOo      ",
"      ...XOOOo      ",
"    ooOoOoXOOo      ",
"    OOoOooXOOoX.    ",
"       .XX          ",
"       .XX          ",
"    OOoOooXOOoX.    ",
"    ooOoOoXOOo      ",
"      ...XOOOo      ",
"       OOOOOOo      ",
"       OOOOOo       ",
"        XoooX       ",
"       .XooX.       ",
"                    ",
"                    ",
"                    ",
"                    ",
"           .        ",
"           XooX     ",
"          OOooX     ",
"        .OOOOOo.    ",
"      ooO..OOOo.    ",
"      OoOoOXOOO.    ",
"        OooXOOO.    ",
"    X   .XXXOOo.    ",
"    oOoOXXX  OoX    ",
"     oOOoo.     .   ",
"     ..oOoXOO       ",
"      O.XOOOOoX.    ",
"      OOOOOOo       ",
"      XOOOOOX       ",
"     .XooOo.        ",
"      XoooX         ",
"         .          ",
"                    ",
"                    ",
"                    ",
"                    ",
"             XX     ",
"        o    .Xo    ",
"       Ooo.OOOooo   ",
"        OOo.OOooo.  ",
"     O   OOoXOOoX   ",
"    ooO ..oooOOO.   ",
"     oOO.XXoXOOo.   ",
"     .oOoXX OOOX    ",
"     O.ooo   Oo     ",
"     OOXoXO   X     ",
"   X.OOOOOOO   .    ",
"   XXooOOOOoX       ",
"    ooooOoX  .      ",
"     oXX..          ",
"      .             ",
"                    ",
"                    ",
"                    ",
"                    ",
"                    ",
"                    ",
"         Xo         ",
"          Oo.   .   ",
"      oO  oO.OOXXX  ",
"      oo  OOo.OOoo  ",
"     .OOO.XoOXOOoo  ",
"     O.ooXXooOOOOo. ",
"    OO.OoXX.XOOOoX  ",
"  .XOOOXXX  OOOO.   ",
"   ooOOOOO  OOo.    ",
"   ooOOOOOO  o      ",
"   XXooOOoo  X      ",
"    ......X  .      ",
"           .        ",
"                    ",
"                    ",
"                    ",
"                    ",
"                    ",
"                    ",
"                    ",
"       oO  Oo       ",
"       oO  Oo       ",
"      .Oo  oO.      ",
"  . OO.oO..Oo.OO .  ",
"  XXOO.OoXXoO.OOXX  ",
"  ooOOXooXXooXOOoo  ",
"  ooOOOXX  XXOOOoo  ",
"  XoOOOOO  OOOOOoX  ",
"  .XoOOOO  OOOOoX.  ",
"     oooo  oooo     ",
"        X  X        ",
"        .  .        ",
"                    ",
"                    ",
"                    ",
"                    ",
"                    ",
"                    ",
"                    ",
"                    ",
"         oX         ",
"   .   .oO          ",
"  XXXOO.Oo  Oo      ",
"  ooOO.oOO  oo      ",
"  ooOOXOoX.OOO.     ",
" .oOOOOooXXoo.O     ",
"  XoOOOX.XXoO.OO    ",
"   .OOOO  XXXOOOX.  ",
"    XoOO  OOOOOoo   ",
"      o  OOOOOOoo   ",
"      X  ooOOooXX   ",
"      .  X......    ",
"        .           ",
"                    ",
"                    ",
"                    ",
"                    ",
"                    ",
"                    ",
"     XX             ",
"    oX.    o        ",
"   oooOOO.ooO       ",
"  .XooOO.oOO        ",
"   XoOOXoOO   O     ",
"   .OOOooo.. Ooo    ",
"   .oOOXoXX.OOo     ",
"    XOOO XXoOo.     ",
"     oO   ooo.O     ",
"     X   OXoXOO     ",
"    .   OOOOOOO.X   ",
"       XoOOOOooXX   ",
"      .  XoOoooo    ",
"          ..Xoo     ",
"             .      ",
"                    ",
"                    ",
"                    ",
"                    ",
"        .           ",
"     XooX           ",
"    .XooOO          ",
"    .oOOOOO.        ",
"    .oOOO..Ooo      ",
"    .OOOXOoOoO      ",
"    .OOOXooO        ",
"    .oOOXXX.   X    ",
"    XoO  XXXOoOo    ",
"   .     .ooOOo     ",
"       OOXoOo..     ",
"    .XoOOOOX.O      ",
"       oOOOOOO      ",
"       .OOOOOX      ",
"        .oOooX.     ",
"         XoooX      ",
"          .         ",
"                    ",
"                    ",
"                    ",
"       .XooX.       ",
"       XoooX        ",
"       oOOOOO       ",
"      oOOOOOO       ",
"      oOOOX...      ",
"      oOOXoOoOoo    ",
"    .XoOOXooOoOO    ",
"          XX.       ",
"          XX.       ",
"    .XoOOXooOoOO    ",
"      oOOXoOoOoo    ",
"      oOOOX...      ",
"      oOOOOOO       ",
"       oOOOOO       ",
"       XoooX        ",
"       .XooX.       ",
"                    ",
"                    ",
"                    ",
"          .         ",
"         XoooX      ",
"        .oOooX.     ",
"       XOOOOOX      ",
"       oOOOOOO      ",
"    .XoOOOOX.O      ",
"       OOXoOo..     ",
"   .     .ooOOo     ",
"    XoO  XXXOoOo    ",
"    .oOOXXX.   X    ",
"    .OOOXooO        ",
"    .OOOXOoOoO      ",
"    .oOOO..Ooo      ",
"    .oOOOOO.        ",
"    .XooOO          ",
"     XooX           ",
"        .           ",
"                    ",
"                    ",
"                    ",
"                    ",
"             .      ",
"          ..XXo     ",
"      .  XoOoooo    ",
"       XoOOOOoooX   ",
"    .   OOOOOOOXX   ",
"     X   OXoXOO     ",
"     oO   ooo.O     ",
"    XOOO XXoOo.     ",
"   .oOOXoXX.OOo     ",
"   .OOOooo.. Ooo    ",
"   XoOOXoOO   O     ",
"  .oooOO.oOO        ",
"   oooOOO.ooO       ",
"    oX.    o        ",
"     XX             ",
"                    ",
"                    ",
"                    ",
"                    ",
"                    ",
"                    ",
"        .           ",
"      .  X......    ",
"      X  ooOOooXX   ",
"      o  OOOOOOoo   ",
"    .oOO  OOOOOoo   ",
"   .OOOO  XXXOOOX.  ",
"  XoOOOX.XXoO.OO    ",
" .oOOOOooXXoo.O     ",
"  ooOOXOoX.OOO.     ",
"  ooOO.oOO  oo      ",
"  XXXOO.Oo  Oo      ",
"   .   .oO          ",
"         oX         ",
"                    ",
"                    ",
"                    ",
"                    "};
