/* XPM */
static char * C10_xpm[] = {
"20 320 5 1",
" 	c None",
".	c #C80000",
"X	c #780000",
"o	c #FF0000",
"O	c #A00000",
"                    ",
"                    ",
"         ..         ",
"         XX         ",
"        .oo.        ",
"        .oo.        ",
"         XX         ",
"         XX         ",
"         XX         ",
"   O     XX     O   ",
"   X   O.oo.O   X   ",
"   X...XXooXX...X   ",
"   XXXXXooooXXXXX   ",
"   .XXXXooooXXXX.   ",
"    ..XXooooXX..    ",
"      OXXooXXO      ",
"        OooO        ",
"                    ",
"                    ",
"                    ",
"                    ",
"                    ",
"            O.      ",
"           .XX      ",
"          OXoo      ",
"           ooX      ",
"    O      XX       ",
"    X     .X        ",
"   X.     XX        ",
"   XX..X.ooX        ",
"   OXXXXXoo.O       ",
"   O.XXXoooXX   O   ",
"     XXooooXX.. X   ",
"     OXooooXXXXX    ",
"      OooooXXXXX    ",
"       ooXXO...O    ",
"                    ",
"                    ",
"                    ",
"                    ",
"                    ",
"                    ",
"                    ",
"               O    ",
"      O      .X.O   ",
"     X      .XoX    ",
"    X.      .oX.    ",
"   XXX.    .X..     ",
"   .XXXXOO.X.       ",
"   O.XXXXoo.        ",
"    XXXooooO        ",
"    OXooooXO        ",
"     XooooXX        ",
"     XoooXXX.  O    ",
"      XXXXXXX.X     ",
"        OX.XXX      ",
"          O.X       ",
"                    ",
"                    ",
"                    ",
"                    ",
"                    ",
"                    ",
"       XO           ",
"    OXX             ",
"    .XX.            ",
"    .XX.      XoX.  ",
"    .XXXXO   XooXO  ",
"    OXXXX.XXXXoX.   ",
"    XooooooX.  O    ",
"    Xoooooo         ",
"    oooooX.         ",
"    ooooXXX         ",
"     OXXXX.         ",
"      OXXX.         ",
"        .XX.XO      ",
"        OOXX        ",
"                    ",
"                    ",
"                    ",
"                    ",
"                    ",
"                    ",
"      .XXXO         ",
"     .XX.           ",
"     .XX.           ",
"    OXXX.           ",
"    XXXXXO          ",
"   OXoooX.    ..    ",
"   oooooooXXXXooX.  ",
"   oooooooXXXXooX.  ",
"   OXoooX.    ..    ",
"    XXXXXO          ",
"    OXXX.           ",
"     .XX.           ",
"     .XX.           ",
"      .XXXO         ",
"                    ",
"                    ",
"                    ",
"                    ",
"                    ",
"                    ",
"        OOXX        ",
"        .XX.XO      ",
"      OXXX.         ",
"     OXXXX.         ",
"    ooooXXX         ",
"    oooooX.         ",
"    Xoooooo         ",
"    XooooooX.  O    ",
"    OXXXX.XXXXoX.   ",
"    .XXXXO   XooXO  ",
"    .XX.      XoX.  ",
"    .XX.            ",
"    OXX             ",
"       XO           ",
"                    ",
"                    ",
"                    ",
"                    ",
"                    ",
"                    ",
"          O.X       ",
"        OX.XXX      ",
"      XXXXXXX.X     ",
"     XoooXXX.  O    ",
"     XooooXX        ",
"    OXooooXO        ",
"    XXXooooO        ",
"   O.XXXXoo.        ",
"   .XXXXOO.X.       ",
"   XXX.    .X..     ",
"    X.      .oX.    ",
"     X      .XoX    ",
"      O      .X.O   ",
"               O    ",
"                    ",
"                    ",
"                    ",
"                    ",
"                    ",
"                    ",
"                    ",
"       ooXXO...O    ",
"      OooooXXXXX    ",
"     OXooooXXXXX    ",
"     XXooooXX.. X   ",
"   O.XXXoooXX   O   ",
"   OXXXXXoo.O       ",
"   XX..X.ooX        ",
"   X.     XX        ",
"    X     .X        ",
"    O      XX       ",
"           ooX      ",
"          OXoo      ",
"           .XX      ",
"            O.      ",
"                    ",
"                    ",
"                    ",
"                    ",
"                    ",
"        OooO        ",
"      OXXooXXO      ",
"    ..XXooooXX.     ",
"   .XXXXooooXXX.    ",
"   XXXXXooooXXXXX   ",
"   X...XXooXX...X   ",
"   X   O.oo.O   X   ",
"   O     XX     O   ",
"         XX         ",
"         XX         ",
"         XX         ",
"        .oo.        ",
"        .oo.        ",
"         XX         ",
"         ..         ",
"                    ",
"                    ",
"                    ",
"                    ",
"                    ",
"                    ",
"    O...OXXoo       ",
"    XXXXXooooO      ",
"    XXXXXooooXO     ",
"   X ..XXooooXX     ",
"   O   XXoooXXX.O   ",
"       O.ooXXXXXO   ",
"        Xoo.X..XX   ",
"        XX     .X   ",
"        X.     X    ",
"       XX      O    ",
"      Xoo           ",
"      ooXO          ",
"      XX.           ",
"      .O            ",
"                    ",
"                    ",
"                    ",
"                    ",
"                    ",
"       X.O          ",
"      XXX.XO        ",
"     X.XXXXXXX      ",
"    O  .XXXoooX     ",
"        XXooooX     ",
"        OXooooXO    ",
"        OooooXXX    ",
"        .ooXXXX.O   ",
"       .X.OOXXXX.   ",
"     ..X.    .XXX   ",
"    .Xo.      .X    ",
"    XoX.      X     ",
"   O.X.      O      ",
"    O               ",
"                    ",
"                    ",
"                    ",
"                    ",
"                    ",
"                    ",
"        XXOO        ",
"      OX.XX.        ",
"         .XXXO      ",
"         .XXXXO     ",
"         XXXoooo    ",
"         .Xooooo    ",
"         ooooooX    ",
"    O  .XooooooX    ",
"   .XoXXXX.XXXXO    ",
"  OXooX   OXXXX.    ",
"  .XoX      .XX.    ",
"            .XX.    ",
"             XXO    ",
"           OX       ",
"                    ",
"                    ",
"                    ",
"                    ",
"                    ",
"                    ",
"         OXXX.      ",
"           .XX.     ",
"           .XX.     ",
"           .XXX     ",
"          OXXXXX    ",
"    ..    .XoooXO   ",
"  .XooXXXXooooooo   ",
"  .XooXXXXooooooo   ",
"    ..    .XoooXO   ",
"          OXXXXX    ",
"           .XXXO    ",
"           .XX.     ",
"           .X.      ",
"         OXXX       ",
"                    ",
"                    ",
"                    ",
"                    ",
"                    ",
"                    ",
"            OX      ",
"              XXO   ",
"             .XX.   ",
"   .XoX      .XX.   ",
"   OXooX   OXXXX.   ",
"    .XoXXXX.XXXXO   ",
"     O  .XooooooX   ",
"          ooooooX   ",
"          .Xooooo   ",
"          XXXoooo   ",
"          .XXXXO    ",
"          .XXXO     ",
"       OX.XX.       ",
"         XXOO       ",
"                    ",
"                    ",
"                    ",
"                    ",
"                    ",
"                    ",
"    O               ",
"   O.X.      O      ",
"    XoX.      X     ",
"    .Xo.      .X    ",
"     ..X.    .XXX   ",
"       .X.OOXXXX.   ",
"        .ooXXXX.O   ",
"        OooooXXX    ",
"        OXooooXO    ",
"        XXooooX     ",
"    O  .XXXoooX     ",
"     X.XXXXXXX      ",
"      XXX.XO        ",
"       X.O          ",
"                    ",
"                    ",
"                    ",
"                    ",
"                    ",
"       .O           ",
"       XX.          ",
"       ooXO         ",
"       Xoo          ",
"        XX      O   ",
"         X.     X   ",
"         XX     .X  ",
"         Xoo.X..XX  ",
"        O.ooXXXXXO  ",
"    O   XXoooXXX.O  ",
"    X ..XXooooXX    ",
"     XXXXXooooXO    ",
"     XXXXXooooO     ",
"      O..OXXoo      ",
"                    ",
"                    ",
"                    ",
"                    "};
