/* XPM */
static char * CV_xpm[] = {
"20 320 5 1",
" 	c None",
".	c #A00000",
"X	c #C80000",
"o	c #FF0000",
"O	c #780000",
"                    ",
"        .XX.        ",
"       XXooXX       ",
"       XooooX       ",
"      .oooooo.      ",
" .    XXooooXX    . ",
" X      OooO      X ",
" O      OooO      O ",
" O      OooO      O ",
" OX   XOOooOOX   XO ",
" OXX XOOooooOOX XXO ",
" OXXXOOooooooOOXXXO ",
" OXXXOOooooooOOXXXO ",
" O XXOOooooooOOXX O ",
"    XXOooXXooOXX    ",
"     XOooOOooOX     ",
"     .Ooo  ooO.     ",
"      .oO  Oo.      ",
"       OX  XO       ",
"       X.  .X       ",
"                    ",
"          ..XX      ",
"   .     XXooX.     ",
"  O     .ooooXX     ",
"  O     XoooooX     ",
" O       Ooooo.     ",
" OX      OooOXX     ",
" OXX    OooO        ",
"OXXX XOOOooO       .",
"O XXOOoooooO      X ",
"  XXOOoooooOX     O ",
"  XXOoooooooOX  XO  ",
"  .XOoooooooOO XXO  ",
"  .XOooXXooOOXXXXO  ",
"   OooOOXooOOXXXO   ",
"   .oO  OoOXXXX O   ",
"   OXO  ooOX.       ",
"   ..  Xo...        ",
"       .O.          ",
"        .           ",
"       .            ",
"      O             ",
"     O       ...    ",
"    OX     XXXOoO   ",
"   OXX     XOoooo.  ",
"  OXXX      ooooO.  ",
"   XXXXX.  OooooX.  ",
"   XXOOOOOOooooOX   ",
"   XOOOoOooooO XX   ",
"   XXOooooooO       ",
"   XOoooooooO       ",
"  .OoooooooOO.      ",
"  .oooOXooooOX     .",
"  OoO .OoooOOX    O ",
" XXX   oooOOOXXXXO  ",
"  .   OooOXOXXXXO   ",
"     XooOXXXXXXO    ",
"    .XO..     O     ",
"     X              ",
"                    ",
"           .        ",
"         OX         ",
"      OOO           ",
"    OOXXX           ",
"     XXX            ",
"    XXX      X.XX.  ",
"    XXXOX    XooXXX ",
"   .XOOOOX   OooooX ",
"  .XXOOooOOOOooooo. ",
"  .OOoooooooooooooX ",
" ..ooooooooooOOooX  ",
"XOooOXXooooOO  X.   ",
" .X  OXooooO        ",
"     OoooooO        ",
"   OOooooOOX        ",
"  .XooOOOOO         ",
"  XO.OXXXXXXX    .  ",
"      ..XXXXXX OO   ",
"           XOOO     ",
"          OO        ",
"                    ",
"      OOOOOOOX.     ",
"       XXXX         ",
"      XXXX          ",
"     XXXX           ",
"   .XXOOOX          ",
"  .OOOOOOOX   X.    ",
"XOoooooooOO   XoXX  ",
".XOoooooooOOOOoooX. ",
"    OXooooooooooooX ",
"    OXooooooooooooX ",
".XOoooooooOOOOoooX. ",
"XOoooooooOO   XoXX  ",
"  .OOOOOOOX   X.    ",
"   .XXOOOX          ",
"     XXXX           ",
"      XXXX          ",
"       XXXX         ",
"      OOOOOOO..     ",
"                    ",
"                    ",
"          OO        ",
"           XOOO     ",
"      ..XXXXXX OO   ",
"  .O.OXXXXXXX    .  ",
"  .XooOOOOO         ",
"   OOooooOOX        ",
"     OoooooO        ",
" .X  OXooooO        ",
".OooOXXooooOO  X.   ",
" ..ooooooooooOOooX  ",
"  .OOooooooooooooX. ",
"  .XXOOooOOOOooooo. ",
"   .XOOOOX   OooooX ",
"    XXXOX    XooXXX ",
"    XXX      X.XX.  ",
"     XXX            ",
"    OOXXX           ",
"      OOO           ",
"         OX         ",
"                    ",
"     X              ",
"    .XO..     O     ",
"     XooOXXXXXXO    ",
"  .   OooOXOXXXXO   ",
" XXX   oooOOOXXXXO  ",
"  OoO .OoooOOX    O ",
"  .oooOXooooOX     .",
"  .OoooooooOO.      ",
"   XOoooooooO       ",
"   XXOooooooO       ",
"   XOOOoOooooO XX   ",
"   XXOOOOOOooooOX   ",
"   XXXXX.  OooooX.  ",
"  OXXX      ooooO.  ",
"   OXX     XOoooo.  ",
"    OX     XXXoOO   ",
"     O       ...    ",
"      O             ",
"       .            ",
"                    ",
"         X          ",
"        .O.         ",
"    X.  Xo...       ",
"    OXO  ooOX.      ",
"    .oO  OoOXXXX O  ",
"    OooOOXooOOXXXO  ",
"   .XOooXXooOOXXXO  ",
"   .XOoooooooOO XXO ",
"   XXOoooooooOX  XO ",
"   XXOOoooooOX     O",
" O XXOOoooooO      X",
" OXXX XOOOooO       ",
"  OXX    OooO       ",
"  OX      OooOXX    ",
"  O       Ooooo.    ",
"   O     XoooooX    ",
"   O     .ooooX.    ",
"    .     XoooX     ",
"           X.X      ",
"                    ",
"       X.  .X       ",
"       OX  XO       ",
"      .oO  Oo.      ",
"     .Ooo  ooO.     ",
"     XOooOOooOX     ",
"    XXOooXXooOXX    ",
" O XXOOooooooOOXX O ",
" OXXXOOooooooOOXXXO ",
" OXXXOOooooooOOXXXO ",
" OXX XOOooooOOX XXO ",
" OX   XOOooOOX   XO ",
" O      OooO      O ",
" O      OooO      O ",
" .      OooO      X ",
" .    XXooooXX    . ",
"      .oooooo.      ",
"       XooooX       ",
"       XXooXX       ",
"        .XXX        ",
"                    ",
"          .         ",
"         .O.        ",
"       ...oX  ..    ",
"      .XOoo  OX.    ",
"  O XXXXOoO  OoO    ",
"  OXXXOOooXOOoo.    ",
" OXXXXOOooXXooOOX   ",
" OXX OOoooooooOX.   ",
" OX  XOoooooooOXX   ",
"O     XOoooooOOXX   ",
"X      OoooooOOXX O ",
"       OooOOOX XXXO ",
"       OooO    XXO  ",
"    XXOooO      XO  ",
"    .ooooO       O  ",
"    XoooooX     O   ",
"    XXoooo.     O   ",
"     XooXX     .    ",
"      X..           ",
"                    ",
"              X     ",
"     O     ..OX.    ",
"    OXXXXXXOooX     ",
"   OXXXXOXOooO   .  ",
"  OXXXXOOOooo   O.X ",
" O    XOOoooO. OOX  ",
".     XOooooXOooo.  ",
"      .OOoooooooO.  ",
"       OoooooooOX   ",
"       OooooooOXX   ",
"   XX OooooOoOOOX   ",
"   XOooooOOOOOOXX   ",
"  .XooooO  .XXXXX   ",
"  .ooooo      XXXO  ",
"  .OoooOX     XXO   ",
"   OoOXXX     OO    ",
"    ...       O     ",
"             O      ",
"            .       ",
"                    ",
"        OO          ",
"     OOOX           ",
"   OO XXXXXX..      ",
"  .    XXXXXXXXO..  ",
"         OOOOOooO.  ",
"        XOOooooOX   ",
"        OoooooO     ",
"        OooooXO  X. ",
"   .X  OOooooXXOooOX",
"  XooOOoooooooooo.. ",
" XoooooooooooooOO.  ",
" .oooooOOOOooOOXX.  ",
" XooooO   XOOOOX.   ",
"  XXooX    XOXXX    ",
"   .XX.      XXX    ",
"            XX.     ",
"           XXOOO    ",
"           OOO      ",
"         XO         ",
"                    ",
"                    ",
"     ..OOOOOOO      ",
"         XXXX       ",
"          XXXX      ",
"           XXXX     ",
"          XOOOXX.   ",
"    .X   XOOOOOOX.  ",
"  XXoX   OOoooooooOX",
" .XoooOOOOoooooooOX.",
" XooooooooooooXO    ",
" XooooooooooooXO    ",
" XXoooOOOOoooooooOX.",
"  XXoX   OOoooooooOX",
"    .X   XOOOOOOO.  ",
"          XOOOXX.   ",
"           XXXX     ",
"          XXXX      ",
"         XXXX       ",
"     .XOOOOOOO      ",
"                    ",
"         XO         ",
"           OOO      ",
"           XXXOO    ",
"            XX.     ",
"   .XX.      XXX    ",
"  XXooX    XOXXX    ",
" XooooO   XOOOOX.   ",
" .oooooOOOOooOOXX.  ",
" .XooooooooooooOO.  ",
"  XooOOoooooooooo.. ",
"   .X  OOooooXXOooOX",
"        OooooXO  X. ",
"        OoooooO     ",
"        XOOooooOO   ",
"         OOOOOooX.  ",
"  .    XXXXXXO.O..  ",
"   OO XXXXXX..      ",
"     OOOX           ",
"        OO          ",
"                    ",
"            .       ",
"             O      ",
"    ...       O     ",
"   OOoXXX     XO    ",
"  .ooooOX     XXO   ",
"  .Ooooo      XXXO  ",
"  .XooooO  .XXXXX   ",
"   XOooooOOOOOOXX   ",
"   XX OooooOoOOOX   ",
"       OooooooOXX   ",
"       OoooooooOX   ",
"      .OOoooooooO.  ",
".     XOooooXOooo.  ",
" O    XOOoooO. OoO  ",
"  OOXXXOOOooo   XXX ",
"   OXXXXOXOooO   .  ",
"    OXXXXXXOoOX     ",
"     O     ..OX.    ",
"              X     ",
"                    ",
"      .X.           ",
"     XoooX     .    ",
"    .Ooooo.    O    ",
"    XoooooX     O   ",
"    XooooO      O   ",
"    .XOooO      XO  ",
"       OooO    XXO  ",
"       OooOOOX XX.O ",
"X      OoooooOOXX . ",
"O     XOoooooOOXX   ",
" OX  XOoooooooOXX   ",
" OOX OOoooooooOX.   ",
" OOOXXOOooXXooOX.   ",
"  O.XXOOooXOOooX    ",
"  O XXXXOoO  OoO    ",
"      .XOoo  OXX    ",
"       ...XX  ..    ",
"         ...        ",
"          .         "};
