/* XPM */
static char * C1_xpm[] = {
"20 320 5 1",
" 	c None",
".	c #A00000",
"X	c #C80000",
"o	c #FF0000",
"O	c #780000",
"                    ",
"          .         ",
"         XoX        ",
"         XoX        ",
"         OoO        ",
"          O         ",
"          O         ",
"          O         ",
"          O         ",
"       OOoooOO      ",
"     OOOXXoXXOOO    ",
"    OooXOOXOOXooO   ",
"    Ooo.OOXOO.ooO   ",
"     XO.OO OO.oX    ",
"        OO OO       ",
"        OO OO       ",
"         O O        ",
"                    ",
"                    ",
"                    ",
"                    ",
"                    ",
"                    ",
"            X.      ",
"           XoX      ",
"           OoX      ",
"           oOX      ",
"           O        ",
"           O        ",
"     O OO O         ",
"   OOoOOOoo         ",
"   OXooXOOooO       ",
"    ooXOXOXOOO      ",
"     .OOOXOXooO     ",
"      OO OO.ooOO    ",
"      OO OO.oXO     ",
"      O OO.  X      ",
"        O           ",
"                    ",
"                    ",
"                    ",
"                    ",
"                    ",
"                    ",
"               .    ",
"             .Oo.   ",
"     OX      OoO    ",
"    OOOOO    oO.    ",
"    XooOOO  O       ",
"    ooXXOOoO        ",
"     ..OXOoo        ",
"      OOOXOOO       ",
"     OOOXOXOO       ",
"     OO OOOXOX      ",
"     O OOO.XoO      ",
"      OOO .ooO      ",
"           oX       ",
"                    ",
"                    ",
"                    ",
"                    ",
"                    ",
"                    ",
"                    ",
"      O             ",
"     OOO            ",
"    XXooO     XXX.  ",
"     oooOO    OooX  ",
"     ..XOo  OOoOX   ",
"    .OOOXooO        ",
"    OOOXOOo         ",
"   OO  OXOOO        ",
"     OOOOXOO        ",
"    OOOOXoO         ",
"       .oooO        ",
"        oXO         ",
"         OO         ",
"                    ",
"                    ",
"                    ",
"                    ",
"                    ",
"                    ",
"       OO           ",
"      XooO          ",
"      OooO          ",
"      ..XOO         ",
"    OOOOOXO         ",
"   OOOOOOXo    OXX  ",
"       XXooOOOOooo. ",
"   OOOOOOXo    OXX  ",
"    OOOOOXO         ",
"      ..XOO         ",
"      oooO          ",
"      XooO          ",
"       OO           ",
"                    ",
"                    ",
"                    ",
"                    ",
"                    ",
"                    ",
"                    ",
"         OO         ",
"        oXO         ",
"       .oooO        ",
"    OOOOXoO         ",
"     OOOOXOO        ",
"   OO  OXOOO        ",
"    OOOXOOo         ",
"    .OOOXooO        ",
"     ..XOo  OOoOX   ",
"     oooOO    OooX  ",
"    XXooO     XXX.  ",
"     OOO            ",
"      O             ",
"                    ",
"                    ",
"                    ",
"                    ",
"                    ",
"                    ",
"                    ",
"                    ",
"          oXO       ",
"     OOO .ooOO      ",
"    O OOO.XoOX      ",
"    OO OOOXOO       ",
"    OOOXOXOOO       ",
"     OOOXOOO        ",
"    ..OXOoo         ",
"   ooXXOOoO         ",
"   XooOOO  O        ",
"    OOX     oO.     ",
"            OoO     ",
"            .Oo.    ",
"              .     ",
"                    ",
"                    ",
"                    ",
"                    ",
"                    ",
"                    ",
"        O           ",
"      O OO.  X      ",
"      OO OO.oXO     ",
"      OO OO.ooOO    ",
"     .OOOXOXooO     ",
"    ooXOXOXOOO      ",
"   OXooXOOooO       ",
"   OOoOOOoo         ",
"     O OO O         ",
"           O        ",
"           O        ",
"           oOX      ",
"           OoX      ",
"           XXX      ",
"            ..      ",
"                    ",
"                    ",
"                    ",
"                    ",
"                    ",
"        O O         ",
"       OO OO        ",
"       OO OO        ",
"    Xo.OO OO.OX     ",
"   Ooo.OOXOO.ooO    ",
"   OooXOOXOOXooO    ",
"    OOOXXoXXOOO     ",
"      OOoooOO       ",
"         O          ",
"         O          ",
"         O          ",
"         O          ",
"        OoO         ",
"        XoX         ",
"        XoX         ",
"         .          ",
"                    ",
"                    ",
"                    ",
"                    ",
"           O        ",
"      X  .OO O      ",
"     OXo.OO OO      ",
"    OOoo.OO OO      ",
"     OooXOXOOO.     ",
"      OOOXOXOXoo    ",
"       OooOOXooXO   ",
"         ooOOOoOO   ",
"         O OO O     ",
"        O           ",
"        X           ",
"      XOO           ",
"      XOX           ",
"      XoX           ",
"      .o            ",
"                    ",
"                    ",
"                    ",
"                    ",
"                    ",
"       Xo           ",
"      Ooo. OOO      ",
"      OoX.OOO O     ",
"      XOXOOO OO     ",
"       OOXOXOOO     ",
"       OOOXOOO      ",
"        ooOXO..     ",
"        OoOOXXoX    ",
"       O  OOOoo.    ",
"    .Oo    OOOOO    ",
"    OoO      OX     ",
"   XoO.             ",
"    X               ",
"                    ",
"                    ",
"                    ",
"                    ",
"                    ",
"                    ",
"                    ",
"         OO         ",
"         OXo        ",
"        Oooo.       ",
"         OoXOOOO    ",
"        OOXOOOO     ",
"        OOOXO  OO   ",
"         oOOXOOO    ",
"        OooXOOO.    ",
"   XOOOO  oOX.X     ",
"  Xooo    OOooO     ",
"  .XXX     OooXX    ",
"            OOO     ",
"             O      ",
"                    ",
"                    ",
"                    ",
"                    ",
"                    ",
"                    ",
"                    ",
"           OO       ",
"          OooX      ",
"          Oooo      ",
"         OOX..      ",
"         OXOOOOO    ",
"  XXO    oXOOOOOO   ",
" .oooOOOOooXX       ",
"  XXO    oXOOOOOO   ",
"         OXOOOOO    ",
"         OOX..      ",
"          OooO      ",
"          OooX      ",
"           OO       ",
"                    ",
"                    ",
"                    ",
"                    ",
"                    ",
"                    ",
"                    ",
"                    ",
"             O      ",
"            OOO     ",
"  .XXX     OooXX    ",
"  XooO    OOooo     ",
"   XOoOO  oOX..     ",
"        OooXOOO.    ",
"         oOOXOOO    ",
"        OOOXO  OO   ",
"        OOXOOOO     ",
"         OoXOOOO    ",
"        Oooo.       ",
"         OXo        ",
"         OO         ",
"                    ",
"                    ",
"                    ",
"                    ",
"                    ",
"                    ",
"     .              ",
"    .oO.            ",
"     OoO            ",
"     .Oo     XOO    ",
"        O  OOOooX   ",
"         OoOOXXoo   ",
"         ooOXO..    ",
"        OOOXOOO     ",
"       OOOXOXOOO    ",
"       OOXOOO OO    ",
"      XOoX.OOO O    ",
"      OOoo. OOO     ",
"       OXo          ",
"                    ",
"                    ",
"                    ",
"                    ",
"                    ",
"                    ",
"      .X            ",
"      XoX           ",
"      XoO           ",
"      XOo           ",
"        O           ",
"        O           ",
"         O OO O     ",
"         ooOOOoOO   ",
"       OooOOXooXO   ",
"      OOOXOXOXoo    ",
"     OooXOXOOO.     ",
"    OOoo.OO OO      ",
"     OXo.OO OO      ",
"       X .OO O      ",
"           O        ",
"                    ",
"                    ",
"                    "};
