/* XPM */
static char * FR2_xpm[] = {
"20 320 5 1",
" 	c None",
".	c #C8C800000000",
"X	c #787800000000",
"o	c #FFFF00000000",
"O	c #A0A000000000",
"                    ",
"                    ",
"         ..         ",
"         XX         ",
"        .oo.        ",
"        .oo.        ",
"         XX         ",
"         XX         ",
"  .      XX      .  ",
"  X   XXXooXXX   X  ",
"  X.XXX XooX XXX.X  ",
"  ..     oo     ..  ",
"  ..XXXXXooXXXXX..  ",
"  X.XXXXooooXXXX.X  ",
"   OXXXXooooXXXXO   ",
"    O.XXooooXX.O    ",
"     ...XooX...     ",
"       OOooOO       ",
"                    ",
"                    ",
"                    ",
"                    ",
"            XX      ",
"           XoX      ",
"          .ooX      ",
"    X      Xo.      ",
"   X.     XX        ",
"   X.     XX        ",
"  ...... XXX        ",
"  X.  ..XXX         ",
"  ..XX  XoX.     .  ",
"  ..XXXXoo ...  .X  ",
"   OXXXoooX  ...X   ",
"   ..XoooXXXX ...   ",
"    OooooXXXXX.X    ",
"    OoooXXXX...X    ",
"     XoX.....O      ",
"      XXOO          ",
"                    ",
"                    ",
"                    ",
"                    ",
"                    ",
"      X.      X.X   ",
"     X.      .oo.   ",
"    ..       XooX   ",
"   X...     XXX.    ",
"   .. ...  XXX      ",
"   ..X  .XXXX       ",
"   .XXX XXoX        ",
"   OXXXXooXX        ",
"   O.XooooX..       ",
"    .ooooX. .   .   ",
"    .ooooXX .. .X   ",
"    OooXXXXX ..X    ",
"     O....X....     ",
"        OO...X      ",
"                    ",
"                    ",
"                    ",
"                    ",
"                    ",
"         X.         ",
"       .X.          ",
"     XX..           ",
"     ....           ",
"    O.X ..     .XXX ",
"    ..XX .     oooX ",
"    .XXX .. XXXXoX  ",
"    .XXXX XoXXX .   ",
"   O.XoooooXX       ",
"   O.oooooXX        ",
"   .oooooX ..       ",
"   .ooooXX ..       ",
"    XXXXXXX .       ",
"     OO.XXX ....    ",
"       .O....XX     ",
"         ..X.       ",
"                    ",
"                    ",
"                    ",
"                    ",
"      X..XX.        ",
"     O....          ",
"    OXXX X          ",
"   ..XXX X          ",
"   .XXXX XX         ",
"  O.XXXX  X         ",
"  OXoooX XX   ..    ",
"  oooooooooXXXooX.  ",
"  oooooooooXXXooX.  ",
"  OXoooX XX   ..    ",
"  O.XXXX  X         ",
"   .XXXX XX         ",
"   ..XXX X          ",
"    OXXX X          ",
"     O....          ",
"      X..XX.        ",
"                    ",
"                    ",
"                    ",
"                    ",
"        ..X.        ",
"      .O....XX      ",
"    OO.XXX ....     ",
"   XXXXXXX .        ",
"  .ooooXX ..        ",
"  .oooooX ..        ",
"  O.oooooXX         ",
"  O.XoooooXX        ",
"   .XXXX XoXXX .    ",
"   .XXX .. XXXXoX   ",
"   ..XX .     oooX  ",
"   O.X ..     .XXX  ",
"    ....            ",
"    XX..            ",
"      .X.           ",
"        X.          ",
"                    ",
"                    ",
"                    ",
"                    ",
"                    ",
"        OO...X      ",
"     O....X....     ",
"    OooXXXXX ..X    ",
"    .ooooXX .. .X   ",
"    .ooooX. .   .   ",
"   O.XooooX..       ",
"   OXXXXooXX        ",
"   .XXX XXoX        ",
"   ..X  .XXXX       ",
"   .. ...  XXX      ",
"   X...     XXX.    ",
"    ..       XooX   ",
"     X.      .oo.   ",
"      X.      X.X   ",
"                    ",
"                    ",
"                    ",
"                    ",
"                    ",
"      XXOO          ",
"     XoX.....O      ",
"    OoooXXXX...X    ",
"    OooooXXXXX.X    ",
"   ..XoooXXXX ...   ",
"   OXXXoooX  ...X   ",
"  ..XXXXoo ...  .X  ",
"  ..XX  XoX.     .  ",
"  X.  ..XXX         ",
"  ...... XXX        ",
"   X.     XX        ",
"   X.     XX        ",
"    X      Xo.      ",
"          .ooX      ",
"           XoX      ",
"            XX      ",
"                    ",
"                    ",
"                    ",
"                    ",
"                    ",
"       OOooOO       ",
"     ....oo....     ",
"    O.XXooooXX.O    ",
"   OXXXXooooXXX.O   ",
"  X.XXXXooooXXXX.X  ",
"  ..XXXXXooXXXXX..  ",
"  ..     oo     ..  ",
"  X.XXX XooX XXX.X  ",
"  X   XXXooXXX   X  ",
"  .      XX      .  ",
"         XX         ",
"         XX         ",
"        .oo.        ",
"        .oo.        ",
"         XX         ",
"         ..         ",
"                    ",
"                    ",
"                    ",
"                    ",
"          OOXX      ",
"      O.....XoX     ",
"    X...XXXXoooO    ",
"    X.XXXXXooooO    ",
"   ... XXXXoooX..   ",
"   X...  XoooXXXO   ",
"  X.  ... ooXXXX..  ",
"  .     .XoX  XX..  ",
"         XXX..  .X  ",
"        XXX ......  ",
"        XX     .X   ",
"        XX     .X   ",
"      .oX      X    ",
"      Xoo.          ",
"      XoX           ",
"      XX            ",
"                    ",
"                    ",
"                    ",
"                    ",
"      X...OO        ",
"     ....X....O     ",
"    X.. XXXXXooO    ",
"   X. .. XXoooo.    ",
"   .   . .Xoooo.    ",
"       ..XooooX.O   ",
"        XXooXXXXO   ",
"        XoXX XXX.   ",
"       XXXX.  X..   ",
"      XXX  ... ..   ",
"    .XXX     ...X   ",
"   XooX       ..    ",
"   .oo.      .X     ",
"   X.X      .X      ",
"                    ",
"                    ",
"                    ",
"                    ",
"                    ",
"        .X..        ",
"      XX....O.      ",
"     .... XXX.OO    ",
"        . XXXXXXX   ",
"        .. XXoooo.  ",
"        .. Xooooo.  ",
"         XXooooo.O  ",
"        XXoooooX.O  ",
"    . XXXoX XXXX.   ",
"   XoXXXX .. XXX.   ",
"  Xooo     . XX..   ",
"  XXX.     .. X.O   ",
"            ....    ",
"            ..XX    ",
"           .X.      ",
"          .X        ",
"                    ",
"                    ",
"                    ",
"                    ",
"        .XX..X      ",
"          ....O     ",
"          X XXXO    ",
"          X XXX..   ",
"         XX XXXX.   ",
"         X  XXXX.O  ",
"    ..   XX Xooo.O  ",
"  .XooXXXooooooooo  ",
"  .XooXXXooooooooo  ",
"    ..   XX Xooo.O  ",
"         X  XXXX.O  ",
"         XX XXXX.   ",
"          X XXX..   ",
"          X XX.O    ",
"          ....O     ",
"        .XX..X      ",
"                    ",
"                    ",
"                    ",
"                    ",
"          .X        ",
"           .X.      ",
"            ..XX    ",
"            ....    ",
"  XXX.     .. X.O   ",
"  Xooo     . XX..   ",
"   XoXXXX .. XXX.   ",
"    . XXXoX XXXX.   ",
"        XXoooooX.O  ",
"         XXooooo.O  ",
"        .. Xooooo.  ",
"        .. XXoooo.  ",
"        . XXXXXXX   ",
"     .... XXX.OO    ",
"      XX....O.      ",
"        .X..        ",
"                    ",
"                    ",
"                    ",
"                    ",
"                    ",
"   X.X      .X      ",
"   .oo.      .X     ",
"   XooX       ..    ",
"    .XXX     ...X   ",
"      XXX  ... ..   ",
"       XXXX.  X..   ",
"        XoXX XXX.   ",
"        XXooXXXXO   ",
"       ..XooooX.O   ",
"   .   . .Xoooo.    ",
"   X. .. XXoooo.    ",
"    X.. XXXXXooO    ",
"     ....X....O     ",
"      X...OO        ",
"                    ",
"                    ",
"                    ",
"                    ",
"                    ",
"      XX            ",
"      XoX           ",
"      Xoo.          ",
"      .oX      X    ",
"        XX     .X   ",
"        XX     .X   ",
"        XXX ......  ",
"         XXX..  .X  ",
"  .     .XoX  XX..  ",
"  X.  ... ooXXXX..  ",
"   X...  XoooXXXO   ",
"   ... XXXXoooX..   ",
"    X.XXXXXooooO    ",
"    X...XXXXoooO    ",
"      O.....XoX     ",
"          OOXX      ",
"                    ",
"                    "};
