/* XPM */
static char * C13_xpm[] = {
"20 320 5 1",
" 	c None",
".	c #C80000",
"X	c #A00000",
"o	c #780000",
"+	c #FF0000",
"                    ",
"                    ",
"                    ",
"                    ",
"                    ",
"                    ",
"       .    .       ",
"     X o    o X     ",
"     . o    o .     ",
"     .oo XX oo.     ",
"     .oo.++.oo.     ",
"      .o.++.o.      ",
"       ..oo..       ",
"       . oo .       ",
"       o    o       ",
"                    ",
"                    ",
"                    ",
"                    ",
"                    ",
"                    ",
"                    ",
"                    ",
"                    ",
"                    ",
"      . .           ",
"     . Xo           ",
"     .oo    .X      ",
"     .oo X  o       ",
"     .o.++X . o     ",
"      ..++.oo.      ",
"     ...o+.oo.      ",
"     o oo....       ",
"          .         ",
"          o         ",
"                    ",
"                    ",
"                    ",
"                    ",
"                    ",
"                    ",
"                    ",
"                    ",
"                    ",
"        .X          ",
"       .. Xo        ",
"      ..ooo         ",
"       ooo          ",
"       oo.X   o     ",
"      ...++X oX     ",
"     o..o++.oo X    ",
"     o ooo.ooo..    ",
"        o..oo..     ",
"         ..  .      ",
"        oo          ",
"                    ",
"                    ",
"                    ",
"                    ",
"                    ",
"                    ",
"                    ",
"                    ",
"                    ",
"          o         ",
"        ..  X       ",
"       .oo.o.       ",
"       .oo          ",
"     o....X         ",
"       .+++X        ",
"       oo++  o.     ",
"       o...ooX      ",
"        ..ooo X     ",
"       o. ....      ",
"                    ",
"                    ",
"                    ",
"                    ",
"                    ",
"                    ",
"                    ",
"                    ",
"                    ",
"                    ",
"                    ",
"         ...X       ",
"        .oo         ",
"     o..ooooo.      ",
"       ...          ",
"      oo++X         ",
"      oo++X         ",
"       ...          ",
"     o..ooooo.      ",
"        .oo         ",
"         ...X       ",
"                    ",
"                    ",
"                    ",
"                    ",
"                    ",
"                    ",
"                    ",
"                    ",
"                    ",
"                    ",
"       o. ....      ",
"        ..ooo .     ",
"       o...ooX      ",
"       oo++  o.     ",
"       .+++X        ",
"     o....X         ",
"       .oo          ",
"       .oo.o.       ",
"        ..  X       ",
"          o         ",
"                    ",
"                    ",
"                    ",
"                    ",
"                    ",
"                    ",
"                    ",
"                    ",
"                    ",
"                    ",
"        oo          ",
"         ..  .      ",
"        o..oo..     ",
"     o ooo.ooo..    ",
"     o..o++.oo X    ",
"      ...++X oX     ",
"       oo.X   o     ",
"       ooo          ",
"      ..ooo         ",
"       .. Xo        ",
"        .X          ",
"                    ",
"                    ",
"                    ",
"                    ",
"                    ",
"                    ",
"                    ",
"                    ",
"                    ",
"           o        ",
"           .        ",
"      o oo....      ",
"      ...o+.oo.     ",
"       ..++.oo.     ",
"      .o.++X . o    ",
"      .oo X  o      ",
"      .oo    .X     ",
"      . Xo          ",
"       X .          ",
"                    ",
"                    ",
"                    ",
"                    ",
"                    ",
"                    ",
"                    ",
"                    ",
"                    ",
"                    ",
"       o    o       ",
"       . oo .       ",
"       ..oo..       ",
"      .o.++.o.      ",
"     .oo.++.oo.     ",
"     .oo XX oo.     ",
"     . o    o .     ",
"     X o    o X     ",
"       .    .       ",
"                    ",
"                    ",
"                    ",
"                    ",
"                    ",
"                    ",
"                    ",
"                    ",
"                    ",
"                    ",
"                    ",
"         o          ",
"         .          ",
"       ....oo o     ",
"      .oo.+o...     ",
"      .oo.++..      ",
"     o . X++.o.     ",
"       o  X oo.     ",
"      X.    oo.     ",
"           oX .     ",
"           . .      ",
"                    ",
"                    ",
"                    ",
"                    ",
"                    ",
"                    ",
"                    ",
"                    ",
"                    ",
"                    ",
"          oo        ",
"      .  ..         ",
"     ..oo..o        ",
"    ..ooo.ooo o     ",
"    X oo.++o..o     ",
"     Xo X++...      ",
"     o   X.oo       ",
"          ooo       ",
"         ooo..      ",
"        oX ..       ",
"          X.        ",
"                    ",
"                    ",
"                    ",
"                    ",
"                    ",
"                    ",
"                    ",
"                    ",
"                    ",
"                    ",
"      .... .o       ",
"     X ooo..        ",
"      Xoo...o       ",
"     .o  ++oo       ",
"        X+++.       ",
"         X....o     ",
"          oo.       ",
"       .o.oo.       ",
"       X  ..        ",
"         o          ",
"                    ",
"                    ",
"                    ",
"                    ",
"                    ",
"                    ",
"                    ",
"                    ",
"                    ",
"       X...         ",
"         oo.        ",
"      .ooooo..o     ",
"          ...       ",
"         X++oo      ",
"         X++oo      ",
"          ...       ",
"      .ooooo..o     ",
"         oo.        ",
"       X...         ",
"                    ",
"                    ",
"                    ",
"                    ",
"                    ",
"                    ",
"                    ",
"                    ",
"                    ",
"                    ",
"         o          ",
"       X  ..        ",
"       .o.oo.       ",
"          oo.       ",
"         X....o     ",
"        X+++.       ",
"     .o  ++oo       ",
"      Xoo...o       ",
"     . ooo..        ",
"      .... .o       ",
"                    ",
"                    ",
"                    ",
"                    ",
"                    ",
"                    ",
"                    ",
"                    ",
"                    ",
"          X.        ",
"        oX ..       ",
"         ooo..      ",
"          ooo       ",
"     o   X.oo       ",
"     Xo X++...      ",
"    X oo.++o..o     ",
"    ..ooo.ooo o     ",
"     ..oo..o        ",
"      .  ..         ",
"          oo        ",
"                    ",
"                    ",
"                    ",
"                    ",
"                    ",
"                    ",
"                    ",
"                    ",
"                    ",
"                    ",
"          . X       ",
"          oX .      ",
"     X.    oo.      ",
"      o  X oo.      ",
"    o . X++.o.      ",
"     .oo.++..       ",
"     .oo.+o...      ",
"      ....oo o      ",
"        .           ",
"        o           ",
"                    ",
"                    ",
"                    ",
"                    ",
"                    "};
