/* XPM */
static char * C5_xpm[] = {
"20 20 5 1",
" 	c None",
".	c #C80000",
"X	c #A00000",
"o	c #780000",
"O	c #FF0000",
"                    ",
"        ...X        ",
"      .ooo.o  ..    ",
"   X      .   Xo.   ",
"    oo.X  X  .oOo.  ",
"    ooo.  X  oOoX.  ",
"  . .oooXXo XOo.    ",
"  o X.oooooooX      ",
" .o   XooOOOo    oX ",
" .o   XoOOOOooXX... ",
" ...XXooOOOOoX   o. ",
" Xo    oOOOooX   o. ",
"      Xooooooo.X o  ",
"    .oOX oXXooo. .  ",
"  .XoOo  X  .ooo    ",
"  .oOo.  X  X.oo    ",
"   .oX   .      X   ",
"    ..  o.ooo.      ",
"        X...        ",
"                    "};
