/* XPM */
static char * C0_xpm[] = {
"20 320 5 1",
" 	c None",
".	c #A00000",
"X	c #C80000",
"o	c #780000",
"O	c #FF0000",
"                    ",
"                    ",
"                    ",
"                    ",
"      .       .     ",
"      .       .     ",
"      X       X     ",
"      X   .   X     ",
"     XX  oOo  XX    ",
"     oXXoOOOoXXo    ",
"     oXXoOOOoXXo    ",
"     XXXoOOOoXXX    ",
"      XXoOOOoXX     ",
"        ooOoo       ",
"         oXo        ",
"                    ",
"                    ",
"                    ",
"                    ",
"                    ",
"                    ",
"                    ",
"                    ",
"        .           ",
"        .           ",
"       X            ",
"      oX       .    ",
"      oX  .    .    ",
"     XXXXoOX  X     ",
"     XXXoOOo  X     ",
"     XXoOOOOoXX     ",
"     oXoOOOoXXo     ",
"      ooOOOoXXo     ",
"       oOooXXX      ",
"        OooXX       ",
"                    ",
"                    ",
"                    ",
"                    ",
"                    ",
"                    ",
"                    ",
"                    ",
"          .         ",
"         .          ",
"        X           ",
"      oX            ",
"     oXX            ",
"     XXXXo..        ",
"     XXoOOO.    .   ",
"     XoOOOOo   .    ",
"     ooOOOOX  X     ",
"     ooOOOoXXX      ",
"      XoooXXXo      ",
"       ooXXXo       ",
"                    ",
"                    ",
"                    ",
"                    ",
"                    ",
"                    ",
"                    ",
"                    ",
"                    ",
"           ..       ",
"      ooXXX         ",
"     XXXX           ",
"    XXXXo           ",
"    XXooOoX         ",
"    ooOOOOO.        ",
"    ooOOOOo         ",
"    OOOOOoX   ..    ",
"     ooooXXXXX      ",
"      oXXXXoo       ",
"       oXXX         ",
"                    ",
"                    ",
"                    ",
"                    ",
"                    ",
"                    ",
"                    ",
"                    ",
"                    ",
"                    ",
"       XooX         ",
"      XXXXXXX..     ",
"      XXXX          ",
"     ooooo          ",
"    ooOOOOo         ",
"    XOOOOOO.        ",
"    ooOOOOo         ",
"     ooooo          ",
"      XXXX          ",
"      XXXXXXX..     ",
"       XooX         ",
"                    ",
"                    ",
"                    ",
"                    ",
"                    ",
"                    ",
"                    ",
"                    ",
"                    ",
"        oXXX        ",
"       oXXXXoo      ",
"      ooooXXXXX     ",
"     OOOOOoX   ..   ",
"     ooOOOOo        ",
"     ooOOOOO.       ",
"     XXooOoX        ",
"     XXXXo          ",
"      XXXX          ",
"       ooXXX        ",
"            ..      ",
"                    ",
"                    ",
"                    ",
"                    ",
"                    ",
"                    ",
"                    ",
"                    ",
"                    ",
"       ooXXXo       ",
"      XoooXXXo      ",
"     ooOOOoXXX      ",
"     ooOOOOX  X     ",
"     XoOOOOo   .    ",
"     XXoOOO.    .   ",
"     XXXXo..        ",
"     oXX            ",
"      oX            ",
"        X           ",
"         .          ",
"          .         ",
"                    ",
"                    ",
"                    ",
"                    ",
"                    ",
"                    ",
"                    ",
"       OooXX        ",
"      oOooXXX       ",
"     ooOOOoXXo      ",
"    oXoOOOoXXo      ",
"    XXoOOOOoXX      ",
"    XXXoOOo  X      ",
"    XXXXoOX  X      ",
"     oX  .    .     ",
"     oX       .     ",
"      X             ",
"       .            ",
"       .            ",
"                    ",
"                    ",
"                    ",
"                    ",
"                    ",
"                    ",
"                    ",
"                    ",
"        oXo         ",
"       ooOoo        ",
"     XXoOOOoXX      ",
"    XXXoOOOoXXX     ",
"    oXXoOOOoXXo     ",
"    oXXoOOOoXXo     ",
"    XX  oOo  XX     ",
"     X   .   X      ",
"     X       X      ",
"     .       .      ",
"     .       .      ",
"                    ",
"                    ",
"                    ",
"                    ",
"                    ",
"                    ",
"                    ",
"                    ",
"                    ",
"                    ",
"       XXooO        ",
"      XXXooOo       ",
"     oXXoOOOoo      ",
"     oXXoOOOoXo     ",
"     XXoOOOOoXX     ",
"     X  oOOoXXX     ",
"     X  XOoXXXX     ",
"    .    .  Xo      ",
"    .       Xo      ",
"            .       ",
"           .        ",
"           .        ",
"                    ",
"                    ",
"                    ",
"                    ",
"                    ",
"                    ",
"                    ",
"                    ",
"      oXXXoo        ",
"     oXXXoooX       ",
"     XXXoOOOoo      ",
"    X  XOOOOoo      ",
"   .   oOOOOoX      ",
"  .    .OOOoXX      ",
"       ..oXXXo      ",
"           Xo       ",
"           X        ",
"          X         ",
"         .          ",
"        .           ",
"                    ",
"                    ",
"                    ",
"                    ",
"                    ",
"                    ",
"                    ",
"                    ",
"        XXXo        ",
"      ooXXXXo       ",
"     XXXXXoooo      ",
"   ..   XoOOOOO     ",
"        oOOOOoo     ",
"       .OOOOOoo     ",
"        XoOooXX     ",
"          oXXXX     ",
"          XXX       ",
"        XXXoo       ",
"      ..            ",
"                    ",
"                    ",
"                    ",
"                    ",
"                    ",
"                    ",
"                    ",
"                    ",
"        XooX        ",
"    ..XXXXXXX       ",
"         XXXX       ",
"         ooooo      ",
"        oOOOOoo     ",
"       .OOOOOOX     ",
"        oOOOOoo     ",
"         ooooo      ",
"         XXXX       ",
"    ..XXXXXXX       ",
"        XooX        ",
"                    ",
"                    ",
"                    ",
"                    ",
"                    ",
"                    ",
"                    ",
"                    ",
"                    ",
"      ..            ",
"        XXXoo       ",
"          XXXX      ",
"          oXXXX     ",
"        XoOooXX     ",
"       .OOOOOoo     ",
"        oOOOOoo     ",
"   ..   XoOOOOO     ",
"     XXXXXoooo      ",
"      ooXXXXo       ",
"        XXXo        ",
"                    ",
"                    ",
"                    ",
"                    ",
"                    ",
"                    ",
"                    ",
"                    ",
"         .          ",
"          .         ",
"           X        ",
"            Xo      ",
"            XXo     ",
"        ..oXXXX     ",
"   .    .OOOoXX     ",
"    .   oOOOOoX     ",
"     X  XOOOOoo     ",
"      XXXoOOOoo     ",
"      oXXXoooX      ",
"       oXXXoo       ",
"                    ",
"                    ",
"                    ",
"                    ",
"                    ",
"                    ",
"                    ",
"                    ",
"           .        ",
"           .        ",
"            X       ",
"    .       Xo      ",
"    .    .  Xo      ",
"     X  XOoXXXX     ",
"     X  oOOoXXX     ",
"     XXoOOOOoXX     ",
"     oXXoOOOoXo     ",
"     oXXoOOOoo      ",
"      XXXooOo       ",
"       XXooO        ",
"                    ",
"                    ",
"                    ",
"                    ",
"                    "};
