/* XPM */
static char * UT_xpm[] = {
"20 320 5 1",
" 	c None",
".	c #A0A000000000",
"X	c #C8C800000000",
"o	c #FFFF00000000",
"O	c #787800000000",
"                    ",
"        .XX.        ",
"       XXooXX       ",
"       XooooX       ",
"      .XooooX.      ",
"        XooX        ",
"        XOOX        ",
"  .      OO      .  ",
"  X      OO      X  ",
"  OXX    OO    XXO  ",
"  OXXX   OO   XXXO  ",
"  OXXXOOOOOOOOXXXO  ",
"  XXXOOOX..XOOOXXX  ",
"  .XXOOO.  .OOOXX.  ",
"   XXXOO.  .OOXXX   ",
"   .XXoO.  .OoXX.   ",
"    XX O.  .O XX    ",
"    .X  o..o  X.    ",
"     .   oo   .     ",
"                    ",
"                    ",
"           X...     ",
"          XoooX.    ",
"         XXoooO.    ",
"    X     XooooX    ",
"   .X     .ooOO.    ",
"   OXX    .oo. .    ",
"   OXX    Oo.       ",
"  OXXXX   OX        ",
"  .XXXOO OO.        ",
"  .XXOOOOOO       . ",
"  XXXOOOX.OO...XXO  ",
"  .XXOO.  XOOOXXXO  ",
"  XXXo..  .OOOXXXO  ",
"  .. O.   .OOOXXO   ",
"  .   O  .OoXXXX.   ",
"      o...O XXX     ",
"      oo    XX.     ",
"           OX       ",
"           .        ",
"                    ",
"                    ",
"      ..     .X.    ",
"     OX    ..XXoX   ",
"    OXX    .Xoooo.  ",
"   XOXX     XoooXX  ",
"  .XXXX     OoooX.  ",
"   XXOX.   OOOXX.   ",
"  XXOOOO  OOO  ..   ",
"  XXXOOOOOOO        ",
" .XXOOOX.OO         ",
" XX OO. ..O         ",
" .  O.   XOO.    .  ",
"    o   .OOOXXXXX.  ",
"    .. .OOOOOXXXO   ",
"    o.oOOOXOXXOO    ",
"         XXXXXX     ",
"        XXXX .      ",
"       .X.          ",
"                    ",
"                    ",
"         .          ",
"      OOO           ",
"    .OXXX           ",
"    XXXXX     .X..  ",
"  .XXXXX.     XoXX. ",
"  XXXOOO.    .Xooo. ",
" XXXXOOO.   .Ooooo. ",
".O  oOOOO .XooooooX ",
"   OO..XOOOOO..XXX  ",
"   ..   .OO     X   ",
"   .    XO          ",
"  o.  ..OOO         ",
"  ooO.OOOOOX        ",
"     OoOOOXXXX      ",
"      XXXXXXXXXX    ",
"    ..XXXXXXOO.     ",
"     .X.X..O        ",
"                    ",
"                    ",
"                    ",
"                    ",
"      .XOOOX.       ",
"    .XXXXXX         ",
"  .XXXXXXXX         ",
" .XXXXOOXX          ",
"    oOOOO      X    ",
"   OOOOOO      XXX  ",
"  o....XO    XXooX. ",
" o.    .OOOOOOooooX ",
" o.    .OOOOOOooooX ",
"  o....XO    XXooX. ",
"   OOOOOO      XXX  ",
"    oOOOO      .    ",
" .XXXXOOXX          ",
"  .XXXXXXXX         ",
"    .XXXXXX         ",
"      .XOOOX.       ",
"                    ",
"                    ",
"                    ",
"                    ",
"    ..X.X..O        ",
"     .XXXXXXOO.     ",
"      XXXXXXXXXX    ",
"     OoOOOXXXX      ",
"  ooO..OOOOX        ",
"  o.  ..OOO         ",
"   .    XO          ",
"   ..   .OO     X   ",
"   OO..XOOOOO..XXX  ",
".O  oOOOO .XooooooX ",
" XXXXOOO.   .ooooo. ",
"  XXXOOO.    .Oooo. ",
"  .XXXXX.     OoOX. ",
"    XXXXX     .X..  ",
"    .OXXX           ",
"      OOO           ",
"         .          ",
"                    ",
"                    ",
"       .X.          ",
"        XXXX .      ",
"         XXXXXX     ",
"    o.oOOOXOXXOO    ",
"    .. .OOOOOXXXO   ",
"    o   .OOOXXXXX   ",
" .  O.   XOO.    .  ",
" XX OO. ..O         ",
" .XXOOOX.OO         ",
"  XXXOOOOOOO        ",
"  XXOOOO  OOO  ..   ",
"   XXOX.   OOOXX.   ",
"  .XXXX     OoooX.  ",
"   XOXX     XoooXX  ",
"    OXX    .Xoooo.  ",
"     OX    ..XXoX   ",
"      ..     .X.    ",
"                    ",
"                    ",
"           .        ",
"           OX       ",
"      oo    XX.     ",
"      o...O XXX     ",
"  .   O  .OoXXXX.   ",
"  .. O.   .OOOXXO   ",
"  XXXoO.  .OOOXXXO  ",
"  .XXOO.  XOOOXXXO  ",
"  XXXOOOX.OO...XXO  ",
"  .XXOOOOOO       . ",
"  .XXXOO OO.        ",
"  OXXXX   OX        ",
"   OXX    Oo.       ",
"   OXX    .oo. .    ",
"   .X     .ooOO.    ",
"    X     XooooX    ",
"         XXoooO.    ",
"          XoooX.    ",
"           X...     ",
"                    ",
"                    ",
"     .   oo   .     ",
"    .X  o..o  X.    ",
"    XX O.  .O XX    ",
"   .XXoO.  .OoXX.   ",
"   XXXOO.  .OOXXX   ",
"  .XXOOO.  .OOOXX.  ",
"  XXXOOOX..XOOOXXX  ",
"  OXXXOOOOOOOOXXXO  ",
"  OXXX   OO   XXXO  ",
"  OXX    OO    XXO  ",
"  X      OO      X  ",
"  .      OO      .  ",
"        XOOX        ",
"        XooX        ",
"      .XooooXX      ",
"       XooooX       ",
"       XXooXX       ",
"        .XX.        ",
"                    ",
"        .           ",
"       XO           ",
"     .XX    oo      ",
"     XXX O...o      ",
"   .XXXXoO.  O   .  ",
"   OXXOOO.   .O ..  ",
"  OXXXOOO.  .OoXXX  ",
"  OXXXOOOX  .OOXX.  ",
"  OXX...OO.XOOOXXX  ",
" .       OOOOOOXX.  ",
"        .OO OOXXX.  ",
"        XO   XXXXO  ",
"       .oO    XXO   ",
"    . .oo.    XXO   ",
"    .OOoo.     X.   ",
"    XooooX     X    ",
"    .OoooXX         ",
"    .XoooX          ",
"     ...X           ",
"                    ",
"                    ",
"          .X.       ",
"      . XXXX        ",
"     XXXXXX         ",
"    OOXXOXOOOo.o    ",
"   OXXXOOOOO. ..    ",
"  .XXXXXOOO.   o    ",
"  .    .OOX   .O  . ",
"         O.. .OO XX ",
"         OO.XOOOXX. ",
"        OOOOOOOXXX  ",
"   ..  OOO  OOOOXX  ",
"   .XXOOO   .XOXX   ",
"  .XoooO     XXXX.  ",
"  XXoooX     XXOX   ",
"  .ooooX.    XXO    ",
"   XoXX..    XO     ",
"    .X.     ..      ",
"                    ",
"                    ",
"                    ",
"                    ",
"        O..X.X..    ",
"     .OOXXXXXX.     ",
"    XXXXXXXXXX      ",
"      XXXXOOOoO     ",
"        XOOOOO.Ooo  ",
"         OOO..  .o  ",
"          OX    .   ",
"   X     OO.   ..   ",
"  XXX..OOOOOX..OO   ",
" XooooooX. OOOOo  O.",
" .ooooo.   .OOOXXXX ",
" .oooO.    .OOOXXX  ",
" .XOoO     .XXXXX.  ",
"  ..X.     XXXXX    ",
"           XXXO.    ",
"           OOO      ",
"          .         ",
"                    ",
"                    ",
"                    ",
"       .XOOOX.      ",
"         XXXXXX.    ",
"         XXXXXXXX.  ",
"          XXOOXXXX. ",
"    .      OOOOo    ",
"  XXX      OOOOOO   ",
" .XooXX    OX....o  ",
" XooooOOOOOO.    .o ",
" XooooOOOOOO.    .o ",
" .XooXX    OX....o  ",
"  XXX      OOOOOO   ",
"    X      OOOOo    ",
"          XXOOXXXX. ",
"         XXXXXXXX.  ",
"         XXXXXX.    ",
"       .XOOOX.      ",
"                    ",
"                    ",
"                    ",
"          .         ",
"           OOO      ",
"           XXXO     ",
"  ..X.     XXXX.    ",
" .XOoO     .XXXX    ",
" .oooO.    .OOOXX.  ",
" .ooooo.   .OOOXXX  ",
" XooooooX. OOOOo  X ",
"  XXX..OOOOOX..OO   ",
"   X     OO.   ..   ",
"          OX    .   ",
"         OOO..  .o  ",
"        XOOOOO.Ooo  ",
"      XXXXOOOoO     ",
"    XXXXXXXXXX      ",
"     .OOXXXXXX.     ",
"        O..X.X..    ",
"                    ",
"                    ",
"                    ",
"                    ",
"    .X.     ..      ",
"   XoXX..    XO     ",
"  .ooooX.    XXO    ",
"  XXoooX     XXOO   ",
"  .XoooO     XXXX.  ",
"   .XXOOO   .XOXX   ",
"   ..  OOO  OOOOXX  ",
"        OOOOOOOXXX  ",
"         OO.XOOOXX. ",
"         O.. .OO XX ",
"  .    .OOX   .O  . ",
"  .XXXXXOOO.   o    ",
"   OXXXOOOOO. ..    ",
"    OOXXOXOOOo.o    ",
"     XXXXXX         ",
"      . XXXX        ",
"          .X.       ",
"                    ",
"                    ",
"     ...X           ",
"    .XoooX          ",
"    .OoooXX         ",
"    XooooX     O    ",
"    .OOoo.     X.   ",
"    . .oo.    XXO   ",
"       .oO    XXO   ",
"        XO   XXXXO  ",
"        .OO OOXXX.  ",
" .       OOOOOOXX.  ",
"  OXX...OO.XOOOXXX  ",
"  OXXXOOOX  .OOXX.  ",
"  OXXXOOO.  .OoXXX  ",
"   OXXOOO.   .O ..  ",
"    .XXXoO.  O   .  ",
"      XX O...o      ",
"      .X    oo      ",
"        .           ",
"                    "};
