/* XPM */
static char * C9_xpm[] = {
"20 20 5 1",
" 	c None",
".	c #C80000",
"X	c #780000",
"o	c #A00000",
"+	c #FF0000",
"                    ",
"        .XXX.       ",
"      o.XXXX        ",
"   o    XXX  oXXX   ",
"    .   ....    X   ",
"     .X+ .. +X. X   ",
"  o  X   ..   X o   ",
"  .  +  .XX.  +   . ",
" .XX.  .X++X.  . XX ",
" XXX...X++++X...XXX ",
" XXX...X++++X...XXX ",
" XX .  .X++X. .XXX. ",
" .   +  .XX.  +  .  ",
"   o X   ..   X  o  ",
"   X .X+ .. +X.     ",
"   X    ....   .    ",
"   XXXo  XXX    o   ",
"        XXXX.o      ",
"       .XXX.        ",
"                    "};
