/* XPM */
static char * CA_xpm[] = {
"20 320 5 1",
" 	c None",
".	c #A0A0A0A00000",
"X	c #C8C8C8C80000",
"o	c #FFFFFFFF0000",
"O	c #787878780000",
"                    ",
"                    ",
"                    ",
"       ......       ",
"      .XXooXX.      ",
"      .XooooX.      ",
"      .XooooX.      ",
"       .XooX.       ",
"       .XooX.       ",
"       .XXXX.       ",
"     o  X..X  o     ",
"     o   OO   o     ",
"     o   OO   o     ",
"     o  OOOO  o     ",
"     o .OOOO. o     ",
"     oX. OO .Xo     ",
"     oX      Xo     ",
"     o        o     ",
"                    ",
"                    ",
"                    ",
"                    ",
"          ..        ",
"         .XX..      ",
"         XXooo.     ",
"        .XooooX.    ",
"        .XooooX.    ",
"        .XoooXX.    ",
"      o .XXoX..     ",
"     o   .XXX.      ",
"     o   O.X        ",
"    o   OOO   o     ",
"    oX.OOO    o     ",
"   oX.OOOO   o      ",
"   o   OOO.  o      ",
"          .Xo       ",
"           Xo       ",
"            o       ",
"                    ",
"                    ",
"                    ",
"                    ",
"                    ",
"           .X.      ",
"          .XXX.     ",
"          .Xooo.    ",
"       o ..XoooX.   ",
"      o  .XooooXX   ",
"     o   XXooXXX.   ",
"    o    .XXX...    ",
"   oX.  OO.X..      ",
"  oXX.OOOO          ",
"      OOO    o      ",
"       OO   o       ",
"        .. o        ",
"        XXo         ",
"        Xo          ",
"        o           ",
"                    ",
"                    ",
"                    ",
"                    ",
"                    ",
"                    ",
"             ..     ",
"       oo   .XX.    ",
"     oo   O.XooX.   ",
"  ooo     .Xoooo.   ",
"   XX    XXoooooX.  ",
"    ..  O.XXoooXX.  ",
"     OOOOO.XXXXX.   ",
"     OOOO  ....     ",
"     OOO            ",
"      ..   o        ",
"      XX oo         ",
"      Xoo           ",
"     oo             ",
"                    ",
"                    ",
"                    ",
"                    ",
"                    ",
"                    ",
"                    ",
"                    ",
"  oooooooo          ",
"   XX        ...    ",
"    ..    ...XXX.   ",
"     OO  XXXXooX.   ",
"    OOOOO.Xooooo.   ",
"    OOOOO.Xooooo.   ",
"     OO  XXXXooX.   ",
"    ..    ...XXX.   ",
"   XX        ...    ",
"  oooooooo          ",
"                    ",
"                    ",
"                    ",
"                    ",
"                    ",
"                    ",
"                    ",
"                    ",
"     oo             ",
"      Xoo           ",
"      XX oo         ",
"      ..   o        ",
"     OOO            ",
"     OOOO  ....     ",
"     OOOOO.XXXXX.   ",
"    ..  O.XXoooXX.  ",
"   XX    XXoooooX.  ",
"  ooo     .Xoooo.   ",
"     oo   O.XooX.   ",
"       oo   .XX.    ",
"             ..     ",
"                    ",
"                    ",
"                    ",
"                    ",
"                    ",
"                    ",
"        o           ",
"        Xo          ",
"        XXo         ",
"        .. o        ",
"       OO   o       ",
"      OOO    o      ",
"  oXX.OOOO          ",
"   oX.  OO.X..      ",
"    o    .XXX...    ",
"     o   XXooXXX.   ",
"      o  .XooooXX   ",
"       o ..XoooX.   ",
"          .Xooo.    ",
"          .XXX.     ",
"           .X.      ",
"                    ",
"                    ",
"                    ",
"                    ",
"                    ",
"            o       ",
"           Xo       ",
"          .Xo       ",
"   o   OOO.  o      ",
"   oX.OOOO   o      ",
"    oX.OOO    o     ",
"    o   OOO   o     ",
"     o   O.X        ",
"     o   .XXX.      ",
"      o .XXoX..     ",
"        .XoooXX.    ",
"        .XooooX.    ",
"        .XooooX.    ",
"         XXooo.     ",
"         .XX..      ",
"          ..        ",
"                    ",
"                    ",
"                    ",
"                    ",
"     o        o     ",
"     oX      Xo     ",
"     oX. OO .Xo     ",
"     o .OOOO. o     ",
"     o  OOOO  o     ",
"     o   OO   o     ",
"     o   OO   o     ",
"     o  X..X  o     ",
"       .XXXX.       ",
"       .XooX.       ",
"       .XooX.       ",
"      .XooooX.      ",
"      .XooooX.      ",
"      .XXooXX.      ",
"       ......       ",
"                    ",
"                    ",
"                    ",
"                    ",
"                    ",
"       o            ",
"       oX           ",
"       oX.          ",
"      o  .OOO   o   ",
"      o   OOOO.Xo   ",
"     o    OOO.Xo    ",
"     o   OOO   o    ",
"        X.O   o     ",
"      .XXX.   o     ",
"     ..XoXX. o      ",
"    .XXoooX.        ",
"    .XooooX.        ",
"    .XooooX.        ",
"     .oooXX         ",
"      ..XX.         ",
"        ..          ",
"                    ",
"                    ",
"                    ",
"                    ",
"           o        ",
"          oX        ",
"         oXX        ",
"        o ..        ",
"       o   OO       ",
"      o    OOO      ",
"          OOOO.XXo  ",
"      ..X.OO  .Xo   ",
"    ...XXX.    o    ",
"   .XXXooXX   o     ",
"   XXooooX.  o      ",
"   .XoooX.. o       ",
"    .oooX.          ",
"     .XXX.          ",
"      .X.           ",
"                    ",
"                    ",
"                    ",
"                    ",
"                    ",
"                    ",
"             oo     ",
"           ooX      ",
"         oo XX      ",
"        o   ..      ",
"            OOO     ",
"     ....  OOOO     ",
"   .XXXXX.OOOOO     ",
"  .XXoooXX.O  ..    ",
"  .XoooooXX    XX   ",
"   .ooooX.     ooo  ",
"   .XooX.O   oo     ",
"    .XX.   oo       ",
"     ..             ",
"                    ",
"                    ",
"                    ",
"                    ",
"                    ",
"                    ",
"                    ",
"                    ",
"                    ",
"          oooooooo  ",
"    ...        XX   ",
"   .XXX...    ..    ",
"   .XooXXXX  OO     ",
"   .oooooX.OOOOO    ",
"   .oooooX.OOOOO    ",
"   .XooXXXX  OO     ",
"   .XXX...    ..    ",
"    ...        XX   ",
"          oooooooo  ",
"                    ",
"                    ",
"                    ",
"                    ",
"                    ",
"                    ",
"                    ",
"                    ",
"                    ",
"     ..             ",
"    .XX.   oo       ",
"   .XooX.O   oo     ",
"   .ooooX.     ooo  ",
"  .XoooooXX    XX   ",
"  .XXoooXX.O  ..    ",
"   .XXXXX.OOOOO     ",
"     ....  OOOO     ",
"            OOO     ",
"        o   ..      ",
"         oo XX      ",
"           ooX      ",
"             oo     ",
"                    ",
"                    ",
"                    ",
"                    ",
"                    ",
"                    ",
"      .X.           ",
"     .XXX.          ",
"    .oooX.          ",
"   .XoooX.. o       ",
"   XXooooX.  o      ",
"   .XXXooXX   o     ",
"    ...XXX.    o    ",
"      ..X.OO  .Xo   ",
"          OOOO.XXo  ",
"      o    OOO      ",
"       o   OO       ",
"        o ..        ",
"         oXX        ",
"          oX        ",
"           o        ",
"                    ",
"                    ",
"                    ",
"                    ",
"        ..          ",
"      ..XX.         ",
"     .oooXX         ",
"    .XooooX.        ",
"    .XooooX.        ",
"    .XXoooX.        ",
"     ..XoXX. o      ",
"      .XXX.   o     ",
"        X.O   o     ",
"     o   OOO   o    ",
"     o    OOO.Xo    ",
"      o   OOOO.Xo   ",
"      o  .OOO   o   ",
"       oX.          ",
"       oX           ",
"       o            ",
"                    ",
"                    "};
