/* XPM */
static char * C1_xpm[] = {
"20 320 5 1",
" 	c None",
".	c #787800",
"X	c #C8C800",
"o	c #FFFF00",
"+	c #A0A000",
"                    ",
"                    ",
"                    ",
"        ....        ",
"       .XXXX.       ",
"      .XXooXX.      ",
"      .XXooXX.      ",
"      .XXooXX.      ",
"       .XXXX.       ",
"        .XX.        ",
"      .  XX  .      ",
"      .+ XX +.      ",
"      .+XXXX+.      ",
"      .  ..  .      ",
"      .      .      ",
"      .      .      ",
"      .      .      ",
"                    ",
"                    ",
"                    ",
"                    ",
"                    ",
"           .        ",
"         ..X..      ",
"        .XXXXX.     ",
"        .XXooX..    ",
"        XXXooXX.    ",
"        .XXoXXX.    ",
"       . .XXXX.     ",
"      .+ XXX..      ",
"      .+ XX         ",
"     . +XXX +.      ",
"     .  ..X++.      ",
"     +      .       ",
"    .       .       ",
"           .        ",
"           +        ",
"                    ",
"                    ",
"                    ",
"                    ",
"                    ",
"                    ",
"           ..       ",
"          .XXX.     ",
"         .XXXoX.    ",
"         .XXoooX    ",
"       . .XoooXX.   ",
"      .+  XXoXXX.   ",
"     .++ XXXXXX.    ",
"    .  XXXX ...     ",
"   .   .XX          ",
"        .X++.       ",
"          +.        ",
"          .         ",
"         .          ",
"        .           ",
"                    ",
"                    ",
"                    ",
"                    ",
"                    ",
"                    ",
"                    ",
"            ...     ",
"           .XX..    ",
"       .. .XXXXX.   ",
"     ..++ .XXooX.   ",
"   ..  +  XXoooXX.  ",
"       XXXXXXXXX.   ",
"       .XXX.XXXX.   ",
"       .X   .X..    ",
"        +++.        ",
"         ..         ",
"      +..           ",
"     .              ",
"                    ",
"                    ",
"                    ",
"                    ",
"                    ",
"                    ",
"                    ",
"                    ",
"                    ",
"                    ",
"   .......  ...     ",
"       ++  .XXX.    ",
"       X  .XXXXX.   ",
"      .XXXXXoooX.   ",
"      .XXXXXoooX.   ",
"       X  .XXXXX.   ",
"       ++  .XXX.    ",
"   .......  ...     ",
"                    ",
"                    ",
"                    ",
"                    ",
"                    ",
"                    ",
"                    ",
"                    ",
"                    ",
"                    ",
"    .               ",
"     +..            ",
"        ..          ",
"       +++.         ",
"      .X   .X..     ",
"      .XXX.XXXX.    ",
"      XXXXXXXXX.    ",
"  +.  +  XXoooXX.   ",
"    ..++ .XXooX.    ",
"      .. .XXXXX.    ",
"          .XX..     ",
"           ...      ",
"                    ",
"                    ",
"                    ",
"                    ",
"                    ",
"                    ",
"                    ",
"        .           ",
"         .          ",
"          .         ",
"          +.        ",
"        .X++.       ",
"   .   .XX          ",
"    .  XXXX ...     ",
"     .++ XXXXXX.    ",
"      .+  XXoXXX.   ",
"       . .XoooXX.   ",
"         .XXoooX    ",
"         .XXXoX.    ",
"          .XXX.     ",
"           ..       ",
"                    ",
"                    ",
"                    ",
"                    ",
"                    ",
"                    ",
"           .        ",
"           .        ",
"    .       .       ",
"     +      .       ",
"     .  ..X++.      ",
"     . +XXX +.      ",
"      .+ XX         ",
"      .+ XXX..      ",
"       . .XXXX.     ",
"        .XXoXXX.    ",
"        XXXooXX.    ",
"        .XXooX..    ",
"        .XXXXX.     ",
"         ..X..      ",
"           .        ",
"                    ",
"                    ",
"                    ",
"                    ",
"                    ",
"      .      .      ",
"      .      .      ",
"      .      .      ",
"      .  ..  .      ",
"      .+XXXX+.      ",
"      .+ XX +.      ",
"      .  XX  .      ",
"        .XX.        ",
"       .XXXX.       ",
"      .XXooXX.      ",
"      .XXooXX.      ",
"      .XXooXX.      ",
"       .XXXX.       ",
"        ....        ",
"                    ",
"                    ",
"                    ",
"                    ",
"                    ",
"                    ",
"         +          ",
"         .          ",
"        .       .   ",
"        .      +    ",
"       .++X..  .    ",
"       .+ XXX+ .    ",
"          XX +.     ",
"       ..XXX +.     ",
"      .XXXX. .      ",
"     .XXXoXX.       ",
"     .XXooXXX       ",
"     ..XooXX.       ",
"      .XXXXX.       ",
"       ..X..        ",
"         .          ",
"                    ",
"                    ",
"                    ",
"                    ",
"                    ",
"           .        ",
"          .         ",
"         .          ",
"        .+          ",
"       .++X.        ",
"          XX.   .   ",
"     ... XXXX  .    ",
"    .XXXXXX ++.     ",
"   .XXXoXX  +.      ",
"   .XXoooX. .       ",
"    XoooXX.         ",
"    .XoXXX.         ",
"     .XXX.          ",
"       ..           ",
"                    ",
"                    ",
"                    ",
"                    ",
"                    ",
"                    ",
"                    ",
"               .    ",
"            ..+     ",
"          ..        ",
"         .+++       ",
"     ..X.   X.      ",
"    .XXXX.XXX.      ",
"    .XXXXXXXXX      ",
"   .XXoooXX  +  ..  ",
"    .XooXX. ++..    ",
"    .XXXXX. ..      ",
"     ..XX.          ",
"      ...           ",
"                    ",
"                    ",
"                    ",
"                    ",
"                    ",
"                    ",
"                    ",
"                    ",
"                    ",
"                    ",
"     ...  .......   ",
"    .XXX.  ++       ",
"   .XXXXX.  X       ",
"   .XoooXXXXX.      ",
"   .XoooXXXXX.      ",
"   .XXXXX.  X       ",
"    .XXX.  ++       ",
"     ...  .......   ",
"                    ",
"                    ",
"                    ",
"                    ",
"                    ",
"                    ",
"                    ",
"                    ",
"                    ",
"                    ",
"     ...            ",
"    ..XX.           ",
"   .XXXXX. ..       ",
"   .XooXX. ++..     ",
"  .XXoooXX  +  .+   ",
"   .XXXXXXXXX       ",
"   .XXXX.XXX.       ",
"    ..X.   X.       ",
"        .+++        ",
"         ..         ",
"           ..+      ",
"              .     ",
"                    ",
"                    ",
"                    ",
"                    ",
"                    ",
"                    ",
"                    ",
"       ..           ",
"     .XXX.          ",
"    .XoXXX.         ",
"    XoooXX.         ",
"   .XXoooX. .       ",
"   .XXXoXX  +.      ",
"    .XXXXXX ++.     ",
"     ... XXXX  .    ",
"          XX.   .   ",
"       .++X.        ",
"        .+          ",
"         .          ",
"          .         ",
"           .        ",
"                    ",
"                    ",
"                    ",
"                    ",
"                    ",
"        .           ",
"      ..X..         ",
"     .XXXXX.        ",
"    ..XooXX.        ",
"    .XXooXXX        ",
"    .XXXoXX.        ",
"     .XXXX. .       ",
"      ..XXX +.      ",
"         XX +.      ",
"      .+ XXX+ .     ",
"      .++X..  .     ",
"       .      +     ",
"       .       .    ",
"        .           ",
"        .           ",
"                    ",
"                    ",
"                    "};
