/* XPM */
static char * C7_xpm[] = {
"20 20 5 1",
" 	c None",
".	c #A0A000",
"X	c #FFFF00",
"o	c #787800",
"O	c #C8C800",
"                    ",
"         ...        ",
"          .         ",
"          .         ",
"     X  o...o       ",
"      X.OO.OO.o     ",
"      .X  .  o.     ",
"     oO ooOoo Oo    ",
"  .  .O oXXXo O.  . ",
"  ......OXXXO...... ",
"  .  .O oXXXo O.  . ",
"     oO ooOoo Oo    ",
"      .o  .  X.     ",
"      o.OO.OO.X     ",
"        o...o  X    ",
"          .         ",
"          .         ",
"         ...        ",
"                    ",
"                    "};
