/* XPM */
static char * C5_xpm[] = {
"20 20 5 1 XPMEXT",
" 	c None",
".	c #C8C8C8C80000",
"X	c #FFFFFFFF0000",
"o	c #787878780000",
"O	c #A0A0A0A00000",
"                    ",
"       .XXXX.   o   ",
"  o ...  OO  Oo Oo  ",
"   O     OO  o..OOo ",
"  . .Oo  OO  O.o.   ",
"  . O..ooOOo O...o  ",
"  . o..ooOOoo.OOoO  ",
" .   ooOo..oOo    X ",
" X   ooo.XX.ooo   X ",
" XOOOOO.XXXX.OOOOOX ",
" XOOOOO.XXXX.OOOOOX ",
" X   ooo.XX.ooo   X ",
" .    oOo..oOoo   . ",
"  OoOO.ooOOooO.o .  ",
"  o...O oOOoo..O .  ",
"   .o.O  OO  oOO .  ",
" oOO..o  OO     O   ",
"  oO oO  OO  ... o  ",
"   o   .XXXX.       ",
"                    ",
"XPMEXT nviews",
"1",
"XPMENDEXT"};
