/* XPM */
static char * C0_xpm[] = {
"20 320 5 1",
".	c #787800",
"X	c #A0A000",
"o	c #C8C800",
"O	c #FFFF00",
" 	c None",
"                    ",
"                    ",
"                    ",
"                    ",
"          .         ",
"        .XoX.       ",
"       .XoOoX.      ",
"       .XoOoX.      ",
"        .XoX.       ",
"       . .o. .      ",
"       .  .  .      ",
"       .  O  .      ",
"       X  .  X      ",
"          .         ",
"          .         ",
"          O         ",
"                    ",
"                    ",
"                    ",
"                    ",
"                    ",
"                    ",
"                    ",
"                    ",
"         ....       ",
"        .XXoX.      ",
"        .XoOoX      ",
"        .XOoXX.     ",
"       . .oXX.      ",
"      .  ....       ",
"      .  o  .       ",
"     X   .  .       ",
"        .  .        ",
"        .  X        ",
"       o            ",
"                    ",
"                    ",
"                    ",
"                    ",
"                    ",
"                    ",
"                    ",
"                    ",
"                    ",
"                    ",
"          ...       ",
"         .Xoo.      ",
"        ..oOoo.     ",
"       . .oOOo.     ",
"      X  .oooX.     ",
"         .....      ",
"        .   .       ",
"       .   .        ",
"      .   X         ",
"                    ",
"                    ",
"                    ",
"                    ",
"                    ",
"                    ",
"                    ",
"                    ",
"                    ",
"                    ",
"                    ",
"           .        ",
"          ..X.      ",
"       ....XoX.     ",
"     X.  .XoOo.     ",
"         .ooooX     ",
"       .O..XXX.     ",
"     ..    .X.      ",
"    O     .         ",
"        ..          ",
"       X            ",
"                    ",
"                    ",
"                    ",
"                    ",
"                    ",
"                    ",
"                    ",
"                    ",
"                    ",
"                    ",
"                    ",
"                    ",
"       X... ..      ",
"           .XX.     ",
"          .XooX     ",
"    O...O.ooOOo.    ",
"          .XooX     ",
"           .XX.     ",
"       X... ..      ",
"                    ",
"                    ",
"                    ",
"                    ",
"                    ",
"                    ",
"                    ",
"                    ",
"                    ",
"                    ",
"                    ",
"        X           ",
"         ..         ",
"     o     .        ",
"      ..    ...     ",
"        .o..XXX.    ",
"          .oOoX.    ",
"      X.  .XoOo.    ",
"        ...XXoX.    ",
"           .XX.     ",
"            .       ",
"                    ",
"                    ",
"                    ",
"                    ",
"                    ",
"                    ",
"                    ",
"                    ",
"                    ",
"                    ",
"                    ",
"      .   X         ",
"       .   .        ",
"        .   .       ",
"         .....      ",
"      X  .oooX.     ",
"       . .oOOo.     ",
"        ..oOoo.     ",
"         .Xoo.      ",
"          ...       ",
"                    ",
"                    ",
"                    ",
"                    ",
"                    ",
"                    ",
"                    ",
"                    ",
"                    ",
"       O            ",
"        .  X        ",
"        .  .        ",
"     X   .  .       ",
"      .  O  .       ",
"      .  ....       ",
"       . .oX..      ",
"        .XOoX..     ",
"        XXoOoX      ",
"        .XooX.      ",
"         .X..       ",
"                    ",
"                    ",
"                    ",
"                    ",
"                    ",
"                    ",
"                    ",
"                    ",
"                    ",
"         O          ",
"         .          ",
"         .          ",
"      X  .  X       ",
"      .  O  .       ",
"      .  .  .       ",
"      . .o. .       ",
"       .XoX.        ",
"      .XoOoX.       ",
"      .XoOoX.       ",
"       .XoX.        ",
"         .          ",
"                    ",
"                    ",
"                    ",
"                    ",
"                    ",
"                    ",
"                    ",
"                    ",
"                    ",
"            o       ",
"        X  .        ",
"        .  .        ",
"       .  .   X     ",
"       .  o  .      ",
"       ....  .      ",
"      .XXo. .       ",
"     .XXoOX.        ",
"      XoOoX.        ",
"      .XoXX.        ",
"       ....         ",
"                    ",
"                    ",
"                    ",
"                    ",
"                    ",
"                    ",
"                    ",
"                    ",
"                    ",
"                    ",
"         X   .      ",
"        .   .       ",
"       .   .        ",
"      .....         ",
"     .Xooo.  X      ",
"     .oOOo. .       ",
"     .ooOo..        ",
"      .ooX.         ",
"       ...          ",
"                    ",
"                    ",
"                    ",
"                    ",
"                    ",
"                    ",
"                    ",
"                    ",
"                    ",
"                    ",
"            X       ",
"          ..        ",
"         .     O    ",
"      .X.    ..     ",
"     .XXX..O.       ",
"     XooOo.         ",
"     .oOoX.  .X     ",
"     .XoX....       ",
"      .X..          ",
"        .           ",
"                    ",
"                    ",
"                    ",
"                    ",
"                    ",
"                    ",
"                    ",
"                    ",
"                    ",
"                    ",
"                    ",
"      .. ...X       ",
"     .XX.           ",
"     XooX.          ",
"    .oOOoo.O...O    ",
"     XooX.          ",
"     .XX.           ",
"      .. ...X       ",
"                    ",
"                    ",
"                    ",
"                    ",
"                    ",
"                    ",
"                    ",
"                    ",
"                    ",
"                    ",
"                    ",
"                    ",
"       .            ",
"     .XX.           ",
"    .XoXX...        ",
"    .oOoX.  .X      ",
"    .XoOo.          ",
"    .XXX..o.        ",
"     ...    ..      ",
"        .     o     ",
"         ..         ",
"           X        ",
"                    ",
"                    ",
"                    ",
"                    ",
"                    ",
"                    ",
"                    ",
"                    ",
"                    ",
"                    ",
"       ...          ",
"      .ooX.         ",
"     .ooOo..        ",
"     .oOOo. .       ",
"     .Xooo.  X      ",
"      .....         ",
"       .   .        ",
"        .   .       ",
"         X   .      ",
"                    ",
"                    ",
"                    ",
"                    ",
"                    ",
"                    ",
"                    ",
"                    ",
"                    ",
"                    ",
"                    ",
"       ..X.         ",
"      .XooX.        ",
"      XoOoXX        ",
"     ..XoOX.        ",
"      ..Xo. .       ",
"       ....  .      ",
"       .  O  .      ",
"       .  .   X     ",
"        .  .        ",
"        X  .        ",
"            O       ",
"                    ",
"                    ",
"                    ",
"                    "};
