/* XPM */
static char * C9_xpm[] = {
"20 20 5 1",
" 	c None",
".	c #787878780000",
"o	c #FFFFFFFF0000",
"O	c #C8C8C8C80000",
"+	c #A0A0A0A00000",
"                    ",
"        ....        ",
"     ....oo....     ",
"    .oooO++Oooo.    ",
"   ..OOO+..+OOO..   ",
"  .oOoO+.  .+OoOo.  ",
"  .oOOo.    .oOOo.  ",
"  oOO++o.  .o.+OOo  ",
" ..O+. .OooO. .+O.. ",
" .o+.   oooo   .+o. ",
" .o+.   oooo   .+o. ",
" ..O+. .OooO. .++.. ",
"  oOO+.o.  .o.++Oo  ",
"  .oOOo.    .o+OOo  ",
"  .oOoO+.  .++oOo.  ",
"   ..OOO+..++OO..   ",
"    .ooO++++OOo.    ",
"     ..o.oo.oo.     ",
"        ....        ",
"                    "};
