#define borgcube_width 28
#define borgcube_height 448
static unsigned char borgcube_bits[] = {
  0xff, 0xff, 0xff, 0x07, 0x00, 0x00, 0x00, 0x00, 0x00, 0x00, 0x00, 0x00,
  0x00, 0x00, 0x00, 0x00, 0xf0, 0xff, 0xff, 0x00, 0x10, 0x00, 0x80, 0x00,
  0x10, 0x00, 0x80, 0x00, 0x10, 0x00, 0x80, 0x00, 0x10, 0x00, 0x80, 0x00,
  0x10, 0x00, 0x80, 0x00, 0x10, 0x00, 0x80, 0x00, 0x10, 0x00, 0x80, 0x00,
  0x10, 0x00, 0x80, 0x00, 0x10, 0x00, 0x80, 0x00, 0x10, 0x00, 0x80, 0x00,
  0x10, 0x00, 0x80, 0x00, 0x10, 0x00, 0x80, 0x00, 0x10, 0x00, 0x80, 0x00,
  0x10, 0x00, 0x80, 0x00, 0x10, 0x00, 0x80, 0x00, 0x10, 0x00, 0x80, 0x00,
  0x10, 0x00, 0x80, 0x00, 0x10, 0x00, 0x80, 0x00, 0xf0, 0xff, 0xff, 0x00,
  0x00, 0x00, 0x00, 0x00, 0x00, 0x00, 0x00, 0x00, 0x00, 0x00, 0x00, 0x00,
  0x01, 0x00, 0x00, 0x00, 0x01, 0x00, 0x00, 0x00, 0x00, 0x00, 0x00, 0x00,
  0x00, 0x00, 0x00, 0x00, 0x00, 0x00, 0x00, 0x00, 0xf0, 0xff, 0xff, 0x00,
  0x10, 0x00, 0x80, 0x00, 0x10, 0x00, 0x80, 0x00, 0x10, 0x00, 0x80, 0x00,
  0x10, 0x00, 0x80, 0x00, 0x10, 0x00, 0x80, 0x00, 0x10, 0x00, 0x80, 0x00,
  0x10, 0x00, 0x80, 0x00, 0x10, 0x00, 0x80, 0x00, 0x10, 0x00, 0x80, 0x00,
  0x10, 0x00, 0x80, 0x00, 0x10, 0x00, 0x80, 0x00, 0x10, 0x00, 0x80, 0x00,
  0x10, 0x00, 0x80, 0x00, 0x10, 0x00, 0x80, 0x00, 0x10, 0x00, 0x80, 0x00,
  0x10, 0x00, 0x80, 0x00, 0x10, 0x00, 0x80, 0x00, 0x10, 0x00, 0x80, 0x00,
  0xf0, 0xff, 0xff, 0x00, 0x00, 0x00, 0x00, 0x00, 0x00, 0x00, 0x00, 0x00,
  0x00, 0x00, 0x00, 0x00, 0x01, 0x00, 0x00, 0x00, 0x01, 0x00, 0x00, 0x00,
  0x00, 0x00, 0x00, 0x00, 0x00, 0x00, 0x00, 0x00, 0x00, 0x00, 0x00, 0x00,
  0xf0, 0xff, 0xff, 0x00, 0x10, 0x00, 0x80, 0x00, 0x10, 0x00, 0x80, 0x00,
  0x10, 0x00, 0x80, 0x00, 0x10, 0x00, 0x80, 0x00, 0x10, 0x00, 0x80, 0x00,
  0x10, 0x00, 0x80, 0x00, 0x10, 0x00, 0x80, 0x00, 0x10, 0x00, 0x80, 0x00,
  0x10, 0x00, 0x80, 0x00, 0x10, 0x00, 0x80, 0x00, 0x10, 0x00, 0x80, 0x00,
  0x10, 0x00, 0x80, 0x00, 0x10, 0x00, 0x80, 0x00, 0x10, 0x00, 0x80, 0x00,
  0x10, 0x00, 0x80, 0x00, 0x10, 0x00, 0x80, 0x00, 0x10, 0x00, 0x80, 0x00,
  0x10, 0x00, 0x80, 0x00, 0xf0, 0xff, 0xff, 0x00, 0x00, 0x00, 0x00, 0x00,
  0x00, 0x00, 0x00, 0x00, 0x00, 0x00, 0x00, 0x00, 0x01, 0x00, 0x00, 0x00,
  0x01, 0x00, 0x00, 0x00, 0x00, 0x00, 0x00, 0x00, 0x00, 0x00, 0x00, 0x00,
  0x00, 0x00, 0x00, 0x00, 0xf0, 0xff, 0xff, 0x00, 0x10, 0x00, 0x80, 0x00,
  0x10, 0x00, 0x80, 0x00, 0x10, 0x00, 0x80, 0x00, 0x10, 0x00, 0x80, 0x00,
  0x10, 0x00, 0x80, 0x00, 0x10, 0x00, 0x80, 0x00, 0x10, 0x00, 0x80, 0x00,
  0x10, 0x00, 0x80, 0x00, 0x10, 0x00, 0x80, 0x00, 0x10, 0x00, 0x80, 0x00,
  0x10, 0x00, 0x80, 0x00, 0x10, 0x00, 0x80, 0x00, 0x10, 0x00, 0x80, 0x00,
  0x10, 0x00, 0x80, 0x00, 0x10, 0x00, 0x80, 0x00, 0x10, 0x00, 0x80, 0x00,
  0x10, 0x00, 0x80, 0x00, 0x10, 0x00, 0x80, 0x00, 0xf0, 0xff, 0xff, 0x00,
  0x00, 0x00, 0x00, 0x00, 0x00, 0x00, 0x00, 0x00, 0x00, 0x00, 0x00, 0x00,
  0x01, 0x00, 0x00, 0x00, 0x01, 0x00, 0x00, 0x00, 0x00, 0x00, 0x00, 0x00,
  0x00, 0x00, 0x00, 0x00, 0x00, 0x00, 0x00, 0x00, 0xf0, 0xff, 0xff, 0x00,
  0x10, 0x00, 0x80, 0x00, 0x10, 0x00, 0x80, 0x00, 0x10, 0x00, 0x80, 0x00,
  0x10, 0x00, 0x80, 0x00, 0x10, 0x00, 0x80, 0x00, 0x10, 0x00, 0x80, 0x00,
  0x10, 0x00, 0x80, 0x00, 0x10, 0x00, 0x80, 0x00, 0x10, 0x00, 0x80, 0x00,
  0x10, 0x00, 0x80, 0x00, 0x10, 0x00, 0x80, 0x00, 0x10, 0x00, 0x80, 0x00,
  0x10, 0x00, 0x80, 0x00, 0x10, 0x00, 0x80, 0x00, 0x10, 0x00, 0x80, 0x00,
  0x10, 0x00, 0x80, 0x00, 0x10, 0x00, 0x80, 0x00, 0x10, 0x00, 0x80, 0x00,
  0xf0, 0xff, 0xff, 0x00, 0x00, 0x00, 0x00, 0x00, 0x00, 0x00, 0x00, 0x00,
  0x00, 0x00, 0x00, 0x00, 0x01, 0x00, 0x00, 0x00, 0x01, 0x00, 0x00, 0x00,
  0x00, 0x00, 0x00, 0x00, 0x00, 0x00, 0x00, 0x00, 0x00, 0x00, 0x00, 0x00,
  0xf0, 0xff, 0xff, 0x00, 0x10, 0x00, 0x80, 0x00, 0x10, 0x00, 0x80, 0x00,
  0x10, 0x00, 0x80, 0x00, 0x10, 0x00, 0x80, 0x00, 0x10, 0x00, 0x80, 0x00,
  0x10, 0x00, 0x80, 0x00, 0x10, 0x00, 0x80, 0x00, 0x10, 0x00, 0x80, 0x00,
  0x10, 0x00, 0x80, 0x00, 0x10, 0x00, 0x80, 0x00, 0x10, 0x00, 0x80, 0x00,
  0x10, 0x00, 0x80, 0x00, 0x10, 0x00, 0x80, 0x00, 0x10, 0x00, 0x80, 0x00,
  0x10, 0x00, 0x80, 0x00, 0x10, 0x00, 0x80, 0x00, 0x10, 0x00, 0x80, 0x00,
  0x10, 0x00, 0x80, 0x00, 0xf0, 0xff, 0xff, 0x00, 0x00, 0x00, 0x00, 0x00,
  0x00, 0x00, 0x00, 0x00, 0x00, 0x00, 0x00, 0x00, 0x01, 0x00, 0x00, 0x00,
  0x01, 0x00, 0x00, 0x00, 0x00, 0x00, 0x00, 0x00, 0x00, 0x00, 0x00, 0x00,
  0x00, 0x00, 0x00, 0x00, 0xf0, 0xff, 0xff, 0x00, 0x10, 0x00, 0x80, 0x00,
  0x10, 0x00, 0x80, 0x00, 0x10, 0x00, 0x80, 0x00, 0x10, 0x00, 0x80, 0x00,
  0x10, 0x00, 0x80, 0x00, 0x10, 0x00, 0x80, 0x00, 0x10, 0x00, 0x80, 0x00,
  0x10, 0x00, 0x80, 0x00, 0x10, 0x00, 0x80, 0x00, 0x10, 0x00, 0x80, 0x00,
  0x10, 0x00, 0x80, 0x00, 0x10, 0x00, 0x80, 0x00, 0x10, 0x00, 0x80, 0x00,
  0x10, 0x00, 0x80, 0x00, 0x10, 0x00, 0x80, 0x00, 0x10, 0x00, 0x80, 0x00,
  0x10, 0x00, 0x80, 0x00, 0x10, 0x00, 0x80, 0x00, 0xf0, 0xff, 0xff, 0x00,
  0x00, 0x00, 0x00, 0x00, 0x00, 0x00, 0x00, 0x00, 0x00, 0x00, 0x00, 0x00,
  0x03, 0x00, 0x00, 0x00, 0x03, 0x00, 0x00, 0x00, 0x00, 0x00, 0x00, 0x00,
  0x00, 0x00, 0x00, 0x00, 0x00, 0x00, 0x00, 0x00, 0xf0, 0xff, 0xff, 0x00,
  0x10, 0x00, 0x80, 0x00, 0x10, 0x00, 0x80, 0x00, 0x10, 0x00, 0x80, 0x00,
  0x10, 0x00, 0x80, 0x00, 0x10, 0x00, 0x80, 0x00, 0x10, 0x00, 0x80, 0x00,
  0x10, 0x00, 0x80, 0x00, 0x10, 0x00, 0x80, 0x00, 0x10, 0x00, 0x80, 0x00,
  0x10, 0x00, 0x80, 0x00, 0x10, 0x00, 0x80, 0x00, 0x10, 0x00, 0x80, 0x00,
  0x10, 0x00, 0x80, 0x00, 0x10, 0x00, 0x80, 0x00, 0x10, 0x00, 0x80, 0x00,
  0x10, 0x00, 0x80, 0x00, 0x10, 0x00, 0x80, 0x00, 0x10, 0x00, 0x80, 0x00,
  0xf0, 0xff, 0xff, 0x00, 0x00, 0x00, 0x00, 0x00, 0x00, 0x00, 0x00, 0x00,
  0x00, 0x00, 0x00, 0x00, 0x03, 0x00, 0x00, 0x00, 0x03, 0x00, 0x00, 0x00,
  0x00, 0x00, 0x00, 0x00, 0x00, 0x00, 0x00, 0x00, 0x00, 0x00, 0x00, 0x00,
  0xf0, 0xff, 0xff, 0x00, 0x10, 0x00, 0x80, 0x00, 0x10, 0x00, 0x80, 0x00,
  0x10, 0x00, 0x80, 0x00, 0x10, 0x00, 0x80, 0x00, 0x10, 0x00, 0x80, 0x00,
  0x10, 0x00, 0x80, 0x00, 0x10, 0x00, 0x80, 0x00, 0x10, 0x00, 0x80, 0x00,
  0x10, 0x00, 0x80, 0x00, 0x10, 0x00, 0x80, 0x00, 0x10, 0x00, 0x80, 0x00,
  0x10, 0x00, 0x80, 0x00, 0x10, 0x00, 0x80, 0x00, 0x10, 0x00, 0x80, 0x00,
  0x10, 0x00, 0x80, 0x00, 0x10, 0x00, 0x80, 0x00, 0x10, 0x00, 0x80, 0x00,
  0x10, 0x00, 0x80, 0x00, 0xf0, 0xff, 0xff, 0x00, 0x00, 0x00, 0x00, 0x00,
  0x00, 0x00, 0x00, 0x00, 0x00, 0x00, 0x00, 0x00, 0x03, 0x00, 0x00, 0x00,
  0x03, 0x00, 0x00, 0x00, 0x00, 0x00, 0x00, 0x00, 0x00, 0x00, 0x00, 0x00,
  0x00, 0x00, 0x00, 0x00, 0xf0, 0xff, 0xff, 0x00, 0x10, 0x00, 0x80, 0x00,
  0x10, 0x00, 0x80, 0x00, 0x10, 0x00, 0x80, 0x00, 0x10, 0x00, 0x80, 0x00,
  0x10, 0x00, 0x80, 0x00, 0x10, 0x00, 0x80, 0x00, 0x10, 0x00, 0x80, 0x00,
  0x10, 0x00, 0x80, 0x00, 0x10, 0x00, 0x80, 0x00, 0x10, 0x00, 0x80, 0x00,
  0x10, 0x00, 0x80, 0x00, 0x10, 0x00, 0x80, 0x00, 0x10, 0x00, 0x80, 0x00,
  0x10, 0x00, 0x80, 0x00, 0x10, 0x00, 0x80, 0x00, 0x10, 0x00, 0x80, 0x00,
  0x10, 0x00, 0x80, 0x00, 0x10, 0x00, 0x80, 0x00, 0xf0, 0xff, 0xff, 0x00,
  0x00, 0x00, 0x00, 0x00, 0x00, 0x00, 0x00, 0x00, 0x00, 0x00, 0x00, 0x00,
  0x03, 0x00, 0x00, 0x00, 0x03, 0x00, 0x00, 0x00, 0x00, 0x00, 0x00, 0x00,
  0x00, 0x00, 0x00, 0x00, 0x00, 0x00, 0x00, 0x00, 0xf0, 0xff, 0xff, 0x00,
  0x10, 0x00, 0x80, 0x00, 0x10, 0x00, 0x80, 0x00, 0x10, 0x00, 0x80, 0x00,
  0x10, 0x00, 0x80, 0x00, 0x10, 0x00, 0x80, 0x00, 0x10, 0x00, 0x80, 0x00,
  0x10, 0x00, 0x80, 0x00, 0x10, 0x00, 0x80, 0x00, 0x10, 0x00, 0x80, 0x00,
  0x10, 0x00, 0x80, 0x00, 0x10, 0x00, 0x80, 0x00, 0x10, 0x00, 0x80, 0x00,
  0x10, 0x00, 0x80, 0x00, 0x10, 0x00, 0x80, 0x00, 0x10, 0x00, 0x80, 0x00,
  0x10, 0x00, 0x80, 0x00, 0x10, 0x00, 0x80, 0x00, 0x10, 0x00, 0x80, 0x00,
  0xf0, 0xff, 0xff, 0x00, 0x00, 0x00, 0x00, 0x00, 0x00, 0x00, 0x00, 0x00,
  0x00, 0x00, 0x00, 0x00, 0x03, 0x00, 0x00, 0x00, 0x03, 0x00, 0x00, 0x00,
  0x00, 0x00, 0x00, 0x00, 0x00, 0x00, 0x00, 0x00, 0x00, 0x00, 0x00, 0x00,
  0xf0, 0xff, 0xff, 0x00, 0x10, 0x00, 0x80, 0x00, 0x10, 0x00, 0x80, 0x00,
  0x10, 0x00, 0x80, 0x00, 0x10, 0x00, 0x80, 0x00, 0x10, 0x00, 0x80, 0x00,
  0x10, 0x00, 0x80, 0x00, 0x10, 0x00, 0x80, 0x00, 0x10, 0x00, 0x80, 0x00,
  0x10, 0x00, 0x80, 0x00, 0x10, 0x00, 0x80, 0x00, 0x10, 0x00, 0x80, 0x00,
  0x10, 0x00, 0x80, 0x00, 0x10, 0x00, 0x80, 0x00, 0x10, 0x00, 0x80, 0x00,
  0x10, 0x00, 0x80, 0x00, 0x10, 0x00, 0x80, 0x00, 0x10, 0x00, 0x80, 0x00,
  0x10, 0x00, 0x80, 0x00, 0xf0, 0xff, 0xff, 0x00, 0x00, 0x00, 0x00, 0x00,
  0x00, 0x00, 0x00, 0x00, 0x00, 0x00, 0x00, 0x00, 0x03, 0x00, 0x00, 0x00,
  0x03, 0x00, 0x00, 0x00, 0x00, 0x00, 0x00, 0x00, 0x00, 0x00, 0x00, 0x00,
  0x00, 0x00, 0x00, 0x00, 0xf0, 0xff, 0xff, 0x00, 0x10, 0x00, 0x80, 0x00,
  0x10, 0x00, 0x80, 0x00, 0x10, 0x00, 0x80, 0x00, 0x10, 0x00, 0x80, 0x00,
  0x10, 0x00, 0x80, 0x00, 0x10, 0x00, 0x80, 0x00, 0x10, 0x00, 0x80, 0x00,
  0x10, 0x00, 0x80, 0x00, 0x10, 0x00, 0x80, 0x00, 0x10, 0x00, 0x80, 0x00,
  0x10, 0x00, 0x80, 0x00, 0x10, 0x00, 0x80, 0x00, 0x10, 0x00, 0x80, 0x00,
  0x10, 0x00, 0x80, 0x00, 0x10, 0x00, 0x80, 0x00, 0x10, 0x00, 0x80, 0x00,
  0x10, 0x00, 0x80, 0x00, 0x10, 0x00, 0x80, 0x00, 0xf0, 0xff, 0xff, 0x00,
  0x00, 0x00, 0x00, 0x00, 0x00, 0x00, 0x00, 0x00, 0x00, 0x00, 0x00, 0x00,
  0x03, 0x00, 0x00, 0x00, 0x03, 0x00, 0x00, 0x00, 0x00, 0x00, 0x00, 0x00,
  0x00, 0x00, 0x00, 0x00, 0x00, 0x00, 0x00, 0x00, 0xf0, 0xff, 0xff, 0x00,
  0x10, 0x00, 0x80, 0x00, 0x10, 0x00, 0x80, 0x00, 0x10, 0x00, 0x80, 0x00,
  0x10, 0x00, 0x80, 0x00, 0x10, 0x00, 0x80, 0x00, 0x10, 0x00, 0x80, 0x00,
  0x10, 0x00, 0x80, 0x00, 0x10, 0x00, 0x80, 0x00, 0x10, 0x00, 0x80, 0x00,
  0x10, 0x00, 0x80, 0x00, 0x10, 0x00, 0x80, 0x00, 0x10, 0x00, 0x80, 0x00,
  0x10, 0x00, 0x80, 0x00, 0x10, 0x00, 0x80, 0x00, 0x10, 0x00, 0x80, 0x00,
  0x10, 0x00, 0x80, 0x00, 0x10, 0x00, 0x80, 0x00, 0x10, 0x00, 0x80, 0x00,
  0xf0, 0xff, 0xff, 0x00, 0x00, 0x00, 0x00, 0x00, 0x00, 0x00, 0x00, 0x00,
  0x00, 0x00, 0x00, 0x00, 0x03, 0x00, 0x00, 0x00, 0x03, 0x00, 0x00, 0x00,
  0x00, 0x00, 0x00, 0x00, 0x00, 0x00, 0x00, 0x00, 0x00, 0x00, 0x00, 0x00,
  0xf0, 0xff, 0xff, 0x00, 0x10, 0x00, 0x80, 0x00, 0x10, 0x00, 0x80, 0x00,
  0x10, 0x00, 0x80, 0x00, 0x10, 0x00, 0x80, 0x00, 0x10, 0x00, 0x80, 0x00,
  0x10, 0x00, 0x80, 0x00, 0x10, 0x00, 0x80, 0x00, 0x10, 0x00, 0x80, 0x00,
  0x10, 0x00, 0x80, 0x00, 0x10, 0x00, 0x80, 0x00, 0x10, 0x00, 0x80, 0x00,
  0x10, 0x00, 0x80, 0x00, 0x10, 0x00, 0x80, 0x00, 0x10, 0x00, 0x80, 0x00,
  0x10, 0x00, 0x80, 0x00, 0x10, 0x00, 0x80, 0x00, 0x10, 0x00, 0x80, 0x00,
  0x10, 0x00, 0x80, 0x00, 0xf0, 0xff, 0xff, 0x00, 0x00, 0x00, 0x00, 0x00,
  0x00, 0x00, 0x00, 0x00, 0x00, 0x00, 0x00, 0x00, 0x03, 0x00, 0x00, 0x00,
  0x03, 0x00, 0x00, 0x00, 0x00, 0x00, 0x00, 0x00, 0x00, 0x00, 0x00, 0x00,
  0x00, 0x00, 0x00, 0x00, 0x00, 0x00, 0x00, 0x00, 0xf0, 0xff, 0xff, 0x00,
  0x10, 0x00, 0x80, 0x00, 0x10, 0x00, 0x80, 0x00, 0x10, 0x00, 0x80, 0x00,
  0x10, 0x00, 0x80, 0x00, 0x10, 0x00, 0x80, 0x00, 0x10, 0x00, 0x80, 0x00,
  0x10, 0x00, 0x80, 0x00, 0x10, 0x00, 0x80, 0x00, 0x10, 0x00, 0x80, 0x00,
  0x10, 0x00, 0x80, 0x00, 0x10, 0x00, 0x80, 0x00, 0x10, 0x00, 0x80, 0x00,
  0x10, 0x00, 0x80, 0x00, 0x10, 0x00, 0x80, 0x00, 0x10, 0x00, 0x80, 0x00,
  0x10, 0x00, 0x80, 0x00, 0x10, 0x00, 0x80, 0x00, 0x10, 0x00, 0x80, 0x00,
  0xf0, 0xff, 0xff, 0x00, 0x00, 0x00, 0x00, 0x00, 0x00, 0x00, 0x00, 0x00,
  0x00, 0x00, 0x00, 0x00, };
