/* XPM */
static char * JS_xpm[] = {
"20 20 9 1",
" 	c None",
"N      c #000000000000",
".	c #7F7F50503F3F",
"X	c #B0B070700000",
"o	c #0000FFFF0000",
"O	c #E1E190900000",
"+	c #FFFFC8C80000",
"@	c #FFFF00000000",
"#	c #00007F7FEFEF",
"                    ",
"                    ",
"         ..         ",
"         XX         ",
"       X XX X       ",
"        .XX.        ",
"        XooX        ",
"    X  .XNNX.  X    ",
"     .XX.OO.XX.     ",
"  .XXXoNO++ONoXXX@  ",
"  #XXXoNO++ONoXXX.  ",
"     .XX.OO.XX.     ",
"    X  .XNNX.  X    ",
"        XooX        ",
"        .XX.        ",
"       X XX X       ",
"         XX         ",
"         ..         ",
"                    ",
"                    "
};
