/* XPM */
static char * WBnew_xpm[] = {
"20 20 6 1",
". 	c None",
"N	c #000000",
"+	c #7E523C",
"@	c #B27204",
"#	c #02FE04",
"$	c #F3B504",
"....................",
"....................",
".........++.........",
"........+@@+........",
".......+@@@@+.......",
"......+@@##@@+......",
".....+@@NNNN@@+.....",
"....+@@NNNNNN@@+....",
"...+@@NNN$$NNN@@+...",
"..+@@#NN$$$$NN#@@+..",
"..+@@#NN$$$$NN#@@+..",
"...+@@NNN$$NNN@@+...",
"....+@@NNNNNN@@+....",
".....+@@NNNN@@+.....",
"......+@@##@@+......",
".......+@@@@+.......",
"........+@@+........",
".........++.........",
"....................",
"...................."};
