/* XPM */
static char * DD_xpm[] = {
"20 320 15 1",
" 	c #000000000000",
".	c #A0A0A0A0A0A0",
"X	c #DFDFDFDFDFDF",
"o	c #AFAFAFAFAFAF",
"O	c #C0C0C0C0C0C0",
"+	c #8F8F8F8F8F8F",
"@	c #CFCFCFCFCFCF",
"#	c #FFFFFFFF0000",
"$	c #A1A1A1A1A1A1",
"%	c #C1C1C1C1C1C1",
"&	c #909090909090",
"*	c #B0B0B0B0B0B0",
"=	c #D0D0D0D0D0D0",
"-	c #E0E0E0E0E0E0",
";	c #000000000000",
"                    ",
"                    ",
"                    ",
"                    ",
"                    ",
"    .           .   ",
"    .           .   ",
"    X    oOo    X   ",
"    X+  .@X@.  +X   ",
"    XooooXXXooooX   ",
"    X+  .@X@.  +X   ",
"    X    ooo    X   ",
"    .    ooo    .   ",
"    .           .   ",
"                    ",
"                    ",
"                    ",
"                    ",
"                    ",
"                   #",
"                    ",
"                    ",
"                    ",
"      .             ",
"     .              ",
"     X              ",
"    X+              ",
"    X$  $@%&     .  ",
"   X$+&*oXX*    *   ",
"   .   &@XX=&   *   ",
"  &    &oX@.o& +X   ",
"       $oo&  &oX    ",
"        &&    +X    ",
"              X     ",
"              .     ",
"             &      ",
"                    ",
"                    ",
"                    ",
"                   #",
"                    ",
"                    ",
"         &          ",
"        $           ",
"       -            ",
"      -+            ",
"     -+o            ",
"    $   o.%*        ",
"   &    .=X%*       ",
"        %XX-%       ",
"       &o%-=.    &  ",
"       $oo%.o   .   ",
"        $&   o+X    ",
"             +X     ",
"             X      ",
"            $       ",
"           &        ",
"                    ",
"                    ",
"                   #",
"                    ",
"                    ",
"            .       ",
"         X**        ",
"       XX+          ",
"     .X+o           ",
"    &   &&          ",
"         o&         ",
"         .=*&       ",
"        &@XX%       ",
"       &oXXX@       ",
"       &oo@o$       ",
"        $&&*        ",
"           &    .   ",
"           +$+X.    ",
"            X-      ",
"          .-        ",
"         &          ",
"                    ",
"                   #",
"                    ",
"                    ",
"                    ",
"                    ",
"      ..XXXXX..     ",
"         +o+        ",
"          o         ",
"          o         ",
"         .o.        ",
"       oo@X@o       ",
"       ooXXXO       ",
"       oo@X@o       ",
"         .o.        ",
"          o         ",
"          o         ",
"         +o+        ",
"      ..XXXXX.$     ",
"                    ",
"                    ",
"                   #",
"                    ",
"                    ",
"         &          ",
"          .X        ",
"            XX      ",
"           +$+-$    ",
"           &    $   ",
"        $&&*        ",
"       &oo@o$       ",
"       &oXXX@       ",
"        &@XX%       ",
"         .=*&       ",
"         o&         ",
"    &   &&          ",
"     .X+o           ",
"       XX+          ",
"         X**        ",
"            $       ",
"                    ",
"                   #",
"                    ",
"                    ",
"                    ",
"           &        ",
"            $       ",
"             -      ",
"             +-     ",
"        $&   o+-    ",
"       $oo%.o   $   ",
"       &o%X=.    &  ",
"        %-XX%       ",
"   &    .=-%*       ",
"    $   o.%*        ",
"     X+o            ",
"      X+            ",
"       X            ",
"        .           ",
"         &          ",
"                    ",
"                   #",
"                    ",
"                    ",
"                    ",
"                    ",
"              &     ",
"               .    ",
"               X    ",
"         &&    +X   ",
"        $oo&  &oX   ",
"   &    &oX@.o& +X  ",
"    .   &@XX=&   *  ",
"    - +&*oXX*    *  ",
"     X$  $@%&     . ",
"     -+             ",
"      X             ",
"      .             ",
"       .            ",
"                    ",
"                    ",
"                   #",
"                    ",
"                    ",
"                    ",
"                    ",
"                    ",
"                    ",
"    .           .   ",
"    .    ooo    .   ",
"    X    ooo    X   ",
"    X+  .@X@.  +X   ",
"    XooooXXXooooX   ",
"    X+  .@X@.  +X   ",
"    X    oOo    X   ",
"    .           .   ",
"    .           .   ",
"                    ",
"                    ",
"                    ",
"                    ",
"                   #",
"                    ",
"                    ",
"                    ",
"                    ",
"      &             ",
"     .              ",
"     X              ",
"    X+    &&        ",
"    Xo&  &oo$       ",
"   X+ &o.@Xo&    &  ",
"   *   &=XX@&   .   ",
"  $     *XXo*&+$X   ",
"        &%@$  $X    ",
"              +X    ",
"              X     ",
"              .     ",
"             .      ",
"                    ",
"                    ",
";                  #",
"                    ",
"                    ",
"                    ",
"        &           ",
"       $            ",
"      X             ",
"     X+             ",
"    X+o   &$        ",
"   .   o.%oo$       ",
"  &    .=-%o&       ",
"       %-XX%        ",
"       *%X=.    &   ",
"        *%.o   $    ",
"            o+-     ",
"            +-      ",
"            -       ",
"           $        ",
"          &         ",
"                    ",
"                   #",
"                    ",
"                    ",
"                    ",
"           &        ",
"         -.         ",
"       -X           ",
"     .X+$+          ",
"    .    &          ",
"         *&&$       ",
"        $o@oo&      ",
"        @XXXo&      ",
"        %XX@&       ",
"        &*=.        ",
"          &o        ",
"           &&   &   ",
"            o+X.    ",
"           +XX      ",
"         **X        ",
"        .           ",
"                   #",
"                    ",
"                    ",
"                    ",
"                    ",
"     ..XXXXX..      ",
"        +o+         ",
"         o          ",
"         o          ",
"        .o.         ",
"       o@X@oo       ",
"       OXXXoo       ",
"       o@X@oo       ",
"        .o.         ",
"         o          ",
"         o          ",
"        +o+         ",
"     $.XXXXX..      ",
"                    ",
"                    ",
"                   #",
"                    ",
"                    ",
"       $            ",
"        **X         ",
"          +XX       ",
"           o+X.     ",
"          &&   &    ",
"         &o         ",
"       &*=.         ",
"       %XX@&        ",
"       @XXXo&       ",
"       $o@oo&       ",
"        *&&$        ",
"   $    &           ",
"    $-+$+           ",
"      XX            ",
"        X.          ",
"          &         ",
"                    ",
"                   #",
"                    ",
"                    ",
"          &         ",
"           .        ",
"            X       ",
"            +X      ",
"            o+X     ",
"        *%.o   $    ",
"       *%-=.    &   ",
"       %XX-%        ",
"  &    .=X%o&       ",
"   $   o.%oo$       ",
"    -+o   &$        ",
"     -+             ",
"      -             ",
"       $            ",
"        &           ",
"                    ",
"                    ",
";                  #",
"                    ",
"                    ",
"                    ",
"             .      ",
"              .     ",
"              X     ",
"              +-    ",
"  .     &%@$  $X    ",
"   *    *XXo*&+ -   ",
"   *   &=XX@&   .   ",
"   X+ &o.@Xo&    &  ",
"    Xo&  &oo$       ",
"    X+    &&        ",
"     X              ",
"     .              ",
"      &             ",
"                    ",
"                    ",
"                    ",
";                   "};
