/* XPM */
static char * C0_xpm[] = {
"20 320 8 1",
" 	c None",
".	c #7F7F97977F7F",
"X	c #9090ABAB9090",
"o	c #A1A1C1C1A1A1",
"O	c #B0B0D0D0B0B0",
"+	c #0000FFFF0000",
"@	c #FFFF00000000",
"&	c #B0B000000000",
"                    ",
"                    ",
"                    ",
"                    ",
"      .       .     ",
"      .       .     ",
"      X       X     ",
"      X   .   X     ",
"     XX  oOo  XX    ",
"     +XXoOOOoXX+    ",
"     +XXoOOOoXX+    ",
"     XXXoOOOoXXX    ",
"      XXoOOOoXX     ",
"        @oOo@       ",
"         @X@        ",
"                    ",
"                    ",
"                    ",
"                    ",
"                    ",
"                    ",
"                    ",
"                    ",
"        .           ",
"        .           ",
"       X            ",
"      +X       .    ",
"      +X  .    .    ",
"     XXXXoOX  X     ",
"     XXXoOOo  X     ",
"     XXoOOOOoXX     ",
"     @XoOOOoXX+     ",
"      @oOOOoXX+     ",
"       oOooXXX      ",
"        O@@XX       ",
"                    ",
"                    ",
"                    ",
"                    ",
"                    ",
"                    ",
"                    ",
"                    ",
"          .         ",
"         .          ",
"        X           ",
"      +X            ",
"     +XX            ",
"     XXXXo..        ",
"     XXoOOO.    .   ",
"     XoOOOOo   .    ",
"     @oOOOOX  X     ",
"     &oOOOoXXX      ",
"      XoooXXX+      ",
"       &@XXX+       ",
"                    ",
"                    ",
"                    ",
"                    ",
"                    ",
"                    ",
"                    ",
"                    ",
"                    ",
"           ..       ",
"      ++XXX         ",
"     XXXX           ",
"    XXXXo           ",
"    XXooOoX         ",
"    @oOOOOO.        ",
"    @oOOOOo         ",
"    OOOOOoX   ..    ",
"     ooooXXXXX      ",
"      @XXXX++       ",
"       @XXX         ",
"                    ",
"                    ",
"                    ",
"                    ",
"                    ",
"                    ",
"                    ",
"                    ",
"                    ",
"                    ",
"       X++X         ",
"      XXXXXXX..     ",
"      XXXX          ",
"     @oooo          ",
"    @oOOOOo         ",
"    XOOOOOO.        ",
"    @oOOOOo         ",
"     @oooo          ",
"      XXXX          ",
"      XXXXXXX..     ",
"       X++X         ",
"                    ",
"                    ",
"                    ",
"                    ",
"                    ",
"                    ",
"                    ",
"                    ",
"                    ",
"        @XXX        ",
"       @XXXX++      ",
"      ooooXXXXX     ",
"     OOOOOoX   ..   ",
"     @oOOOOo        ",
"     @oOOOOO.       ",
"     XXooOoX        ",
"     XXXXo          ",
"      XXXX          ",
"       ++XXX        ",
"            ..      ",
"                    ",
"                    ",
"                    ",
"                    ",
"                    ",
"                    ",
"                    ",
"                    ",
"                    ",
"       &@XXX+       ",
"      XoooXXX+      ",
"     &oOOOoXXX      ",
"     @oOOOOX  X     ",
"     XoOOOOo   .    ",
"     XXoOOO.    .   ",
"     XXXXo..        ",
"     +XX            ",
"      +X            ",
"        X           ",
"         .          ",
"          .         ",
"                    ",
"                    ",
"                    ",
"                    ",
"                    ",
"                    ",
"                    ",
"       O@@XX        ",
"      oOooXXX       ",
"     @oOOOoXX+      ",
"    @XoOOOoXX+      ",
"    XXoOOOOoXX      ",
"    XXXoOOo  X      ",
"    XXXXoOX  X      ",
"     +X  .    .     ",
"     +X       .     ",
"      X             ",
"       .            ",
"       .            ",
"                    ",
"                    ",
"                    ",
"                    ",
"                    ",
"                    ",
"                    ",
"                    ",
"        @X@         ",
"       @oOo@        ",
"     XXoOOOoXX      ",
"    XXXoOOOoXXX     ",
"    +XXoOOOoXX+     ",
"    +XXoOOOoXX+     ",
"    XX  oOo  XX     ",
"     X   .   X      ",
"     X       X      ",
"     .       .      ",
"     .       .      ",
"                    ",
"                    ",
"                    ",
"                    ",
"                    ",
"                    ",
"                    ",
"                    ",
"                    ",
"                    ",
"       XX@@O        ",
"      XXXooOo       ",
"     +XXoOOOo@      ",
"     +XXoOOOoX@     ",
"     XXoOOOOoXX     ",
"     X  oOOoXXX     ",
"     X  XOoXXXX     ",
"    .    .  X+      ",
"    .       X+      ",
"            .       ",
"           .        ",
"           .        ",
"                    ",
"                    ",
"                    ",
"                    ",
"                    ",
"                    ",
"                    ",
"                    ",
"      +XXX@&        ",
"     +XXXoooX       ",
"     XXXoOOOo&      ",
"    X  XOOOOo@      ",
"   .   oOOOOoX      ",
"  .    .OOOoXX      ",
"       ..oXXX+      ",
"           X+       ",
"           X        ",
"          X         ",
"         .          ",
"        .           ",
"                    ",
"                    ",
"                    ",
"                    ",
"                    ",
"                    ",
"                    ",
"                    ",
"        XXX@        ",
"      ++XXXX@       ",
"     XXXXXoooo      ",
"   ..   XoOOOOO     ",
"        oOOOOo@     ",
"       .OOOOOo@     ",
"        XoOooXX     ",
"          oXXXX     ",
"          XXX       ",
"        XXX++       ",
"      ..            ",
"                    ",
"                    ",
"                    ",
"                    ",
"                    ",
"                    ",
"                    ",
"                    ",
"        X++X        ",
"    ..XXXXXXX       ",
"         XXXX       ",
"         oooo@      ",
"        oOOOOo@     ",
"       .OOOOOOX     ",
"        oOOOOo@     ",
"         oooo@      ",
"         XXXX       ",
"    ..XXXXXXX       ",
"        X++X        ",
"                    ",
"                    ",
"                    ",
"                    ",
"                    ",
"                    ",
"                    ",
"                    ",
"                    ",
"      ..            ",
"        XXX++       ",
"          XXXX      ",
"          oXXXX     ",
"        XoOooXX     ",
"       .OOOOOo@     ",
"        oOOOOo@     ",
"   ..   XoOOOOO     ",
"     XXXXXoooo      ",
"      ++XXXX@       ",
"        XXX@        ",
"                    ",
"                    ",
"                    ",
"                    ",
"                    ",
"                    ",
"                    ",
"                    ",
"         .          ",
"          .         ",
"           X        ",
"            X+      ",
"            XX+     ",
"        ..oXXXX     ",
"   .    .OOOoXX     ",
"    .   oOOOOoX     ",
"     X  XOOOOo@     ",
"      XXXoOOOo&     ",
"      +XXXoooX      ",
"       +XXX@&       ",
"                    ",
"                    ",
"                    ",
"                    ",
"                    ",
"                    ",
"                    ",
"                    ",
"           .        ",
"           .        ",
"            X       ",
"    .       X+      ",
"    .    .  X+      ",
"     X  XOoXXXX     ",
"     X  oOOoXXX     ",
"     XXoOOOOoXX     ",
"     +XXoOOOoX@     ",
"     +XXoOOOo@      ",
"      XXXooOo       ",
"       XX@@O        ",
"                    ",
"                    ",
"                    ",
"                    ",
"                    "};
