/* XPM */
static char * C4_xpm[] = {
"20 320 5 1",
" 	c None",
".	c #00A0A0",
"X	c #007878",
"o	c #00C8C8",
"O	c #00FFFF",
"                    ",
"         ..         ",
"        XooX        ",
"        .OO.        ",
"    .  XOOOOX  .    ",
"   .   XoOOoX   .   ",
"   .    .oo.    .   ",
"   .   XOOOOX   .   ",
"   ..  XOOOOX  ..   ",
"   ..   .oo.   ..   ",
"   ..X XOOOOX X..   ",
"   o.XooOOOOooX.o   ",
"   XoooOOOOOOoooX   ",
"   Xo.ooOOOOoo.oX   ",
"   Xo.ooOOOOoo.oX   ",
"   Xo..oOOOOo..oX   ",
"    X. ooXXoo .X    ",
"        .XX.        ",
"                    ",
"                    ",
"                    ",
"             .      ",
"       .   Xoo.     ",
"      X   .oOO.     ",
"     .    oOOO.X    ",
"     .    oOOOo     ",
"    ..   .o.oo.  X  ",
"    ..  XoOOo.   X  ",
"   o..X  .OOOo   .  ",
"   XoXooOO.Oo.   .  ",
"   Xo.oOOOO.X   .X  ",
"  Xo.ooOOOOOo X..   ",
"  Xo.ooOOOOOOoX..   ",
"  X...oOOOOoo.oX    ",
"     ooOOOOoo.oX    ",
"      .XXOo..ooX    ",
"       XXooX.oX     ",
"             .X     ",
"                    ",
"                    ",
"                    ",
"         ..         ",
"        .           ",
"       .     oo.X   ",
"      ..    oOOO.   ",
"     ..     oOOOo   ",
"    X.XX  oo.oOOo   ",
"   Xo.X  oOOo.oo    ",
"  Xo.oooXoOOOo      ",
"  X..oOOOoOOOo    . ",
"  X.ooOOOOooo     . ",
"    ooOOOOOX     .  ",
"    oOOOOOOo X ..   ",
"    .XOOOOOoXX..    ",
"    XXXOooooo..     ",
"     X.ooo..oX      ",
"         ..oX       ",
"         XXX        ",
"                    ",
"                    ",
"                    ",
"                    ",
"         ...XX      ",
"       ...          ",
"    XXX..      X    ",
"  XXoooXX    XX...  ",
"  .oo..o  XoX.OOOo. ",
"   ..ooOoXoOOoOOOo  ",
"   X.ooOOOoOOOoOo.  ",
"   ooOOOOOOoOOX..   ",
"   oOOOOOOO..X      ",
"   XXOOOOOO X       ",
"   XXOOOOOo      .  ",
"    .ooooooX    .   ",
"     ..oo.X.....    ",
"      ...oo...      ",
"      .ooXXo        ",
"      XXX           ",
"                    ",
"                    ",
"                    ",
"                    ",
"                    ",
"    XXXXo......     ",
"   Xoooo....   .    ",
"   ....oXX          ",
"    .oooo           ",
"   ooooOoX XX XX    ",
"  .oOOOOOO.OO.oO.X  ",
"  XXOOOOOOoOOoOOOo. ",
"  XXOOOOOOoOOoOOOo. ",
"  .oOOOOOO.OO.oO.X  ",
"   ooooOoX XX XX    ",
"    .oooo           ",
"   ....oXX          ",
"   Xoooo....   .    ",
"    XXXXo......     ",
"                    ",
"                    ",
"                    ",
"                    ",
"                    ",
"      XXX           ",
"      .ooXXo        ",
"      ...oo...      ",
"     o.oo.X.....    ",
"    .ooooooX    .   ",
"   XXOOOOOo      .  ",
"   XXOOOOOO X       ",
"   oOOOOOOO.o.      ",
"   ooOOOOO.OOooo.   ",
"   X.ooOO.OOO.OOoX  ",
"   ..ooOoXoOooOOOo  ",
"  .oo..o  .o.oOOOo. ",
"  XXoooXX    .o...  ",
"    XXX..      X    ",
"       ...          ",
"         X..XX      ",
"                    ",
"                    ",
"                    ",
"                    ",
"         XXX        ",
"         ..oX       ",
"     X.ooo..oX      ",
"    XXXOoooo...     ",
"    .XOOOOOoXX..    ",
"    oOOOOOOo X ..   ",
"    ooOOOOOX     .  ",
"  X.ooOOOOooo     . ",
"  X..oOOOoOOOo    . ",
"  Xo.oooXoOOOo      ",
"   XooX  oOOo.oo    ",
"    X.XX  oo.oOOo   ",
"     ..     oOOOo   ",
"      ..    oOOO.   ",
"       .     oo.X   ",
"        .           ",
"         ..         ",
"                    ",
"                    ",
"                    ",
"             .X     ",
"       XXooX.oX     ",
"      .XXOo..ooX    ",
"     .oOOOOoo.oX    ",
"  X...oOOOOoo.oX    ",
"  Xo.ooOOOOOOoX..   ",
"  Xo.ooOOOOOo X..   ",
"   Xo.oOOOOOX   ..  ",
"   XoXooOOOooX   .  ",
"   o..X  .oOOo   X  ",
"    ..  X.OOOX   .  ",
"    ..   XOOo.X  X  ",
"     .    XoOOX     ",
"     .    .OOO.X    ",
"      .   .oOO.     ",
"       .   .oo.     ",
"             .      ",
"                    ",
"                    ",
"                    ",
"        .XX.        ",
"    X. ooXXoo .X    ",
"   Xo..oOOOOo..oX   ",
"   Xo.ooOOOOoo.oX   ",
"   Xo.ooOOOOoo.oX   ",
"   XoooOOOOOOoooX   ",
"   o.XooOOOOooX.o   ",
"   ..X XOOOOX X..   ",
"   ..   .oo.   ..   ",
"   ..  XOOOOX  ..   ",
"   .   XOOOOX   .   ",
"   .    .oo.    .   ",
"   .   XoOOoX   .   ",
"    .  XOOOOX  .    ",
"        .OO.        ",
"        XooX        ",
"         ..         ",
"                    ",
"                    ",
"                    ",
"     X.             ",
"     Xo.XooXX       ",
"    Xoo..oOXX.      ",
"    Xo.ooOOOOoo     ",
"    Xo.ooOOOOo...X  ",
"   ..XoOOOOOOoo.oX  ",
"   ..X oOOOOOoo.oX  ",
"  X.   X.OOOOo.oX   ",
"  .   .oO.OOooXoX   ",
"  .   oOOO.  X..o   ",
"  X   .oOOoX  ..    ",
"  X  .oo.o.   ..    ",
"     oOOOo    .     ",
"    X.OOOo    .     ",
"     .OOo.   .      ",
"     .ooX   .       ",
"      .             ",
"                    ",
"                    ",
"                    ",
"        XXX         ",
"       Xo..         ",
"      Xo..ooo.X     ",
"     ..oooooOXXX    ",
"    ..XXoOOOOOX.    ",
"   .. X oOOOOOOo    ",
"  .     XOOOOOoo    ",
" .     oooOOOOoo.X  ",
" .    oOOOoOOOo..X  ",
"      oOOOoXooo.oX  ",
"    oo.oOOo  X.oX   ",
"   oOOo.oo  XX.X    ",
"   oOOOo     ..     ",
"   .OOOo    ..      ",
"   X.oo     .       ",
"           .        ",
"         ..         ",
"                    ",
"                    ",
"                    ",
"           XXX      ",
"        oXXoo.      ",
"      ...oo...      ",
"    .....X.oo.o     ",
"   .    XooooooX    ",
"  .      oOOOOOXX   ",
"       X OOOOOOXX   ",
"      X..OOOOOOOo   ",
"   ..XOOoOOOOOOoo   ",
"  .oOoOOOoOOOoo.X   ",
"  oOOOoOOoXoOoo..   ",
" .oOOO.XoX  o..oo.  ",
"  ...XX    XXoooXX  ",
"    X      ..XXX    ",
"          ...       ",
"      X.X..         ",
"                    ",
"                    ",
"                    ",
"                    ",
"                    ",
"     ......oXXXX    ",
"    .   ....ooooX   ",
"          XXo....   ",
"           oooo.    ",
"    XX XX XoOoooo   ",
"  X.Oo.OO.OOOOOOo.  ",
" .oOOOoOOoOOOOOOXX  ",
" .oOOOoOOoOOOOOOXX  ",
"  X.Oo.OO.OOOOOOo.  ",
"    XX XX XoOoooo   ",
"           oooo.    ",
"          XXo....   ",
"    .   ....ooooX   ",
"     ......oXXXX    ",
"                    ",
"                    ",
"                    ",
"                    ",
"                    ",
"      XX..X         ",
"          ...       ",
"    X      ..XX     ",
"  ...o.    XXooX    ",
" .oOOOo.o.  o..oXX  ",
"  oOOOooOoXoOoo...  ",
"  XoOO.OOO.OOoo.X   ",
"   .oooOO.OOOOOoo   ",
"      .o.OOOOOOOo   ",
"       X OOOOOOXX   ",
"  .      oOOOOOXX   ",
"   .    Xoooooo.    ",
"    .....X.oo.o     ",
"      ...oo...      ",
"        oXXoo.      ",
"           XXX      ",
"                    ",
"                    ",
"                    ",
"         ..         ",
"           .        ",
"   X.oo     .       ",
"   .OOOo    ..      ",
"   oOOOo     ..     ",
"   oOOo.oo  XX.X    ",
"    oo.oOOo  XooX   ",
"      oOOOoXooo.oX  ",
" .    oOOOoOOOo..X  ",
" .     oooOOOOoo.X  ",
"  .     XOOOOOoo    ",
"   .. X oOOOOOOo    ",
"    ..XXoOOOOOX.    ",
"     ...ooooOXXX    ",
"      Xo..ooo.X     ",
"       Xo..         ",
"        XXX         ",
"                    ",
"                    ",
"                    ",
"      .             ",
"     .oo.   .       ",
"     .OOo.   .      ",
"    X.OOO.    .     ",
"     XOOoX    .     ",
"  X  X.oOOX   ..    ",
"  .   XOOO.X  ..    ",
"  X   oOOo.  X..o   ",
"  .   XooOOOooXoX   ",
"  ..   XOOOOOo.oX   ",
"   ..X oOOOOOoo.oX  ",
"   ..XoOOOOOOoo.oX  ",
"    Xo.ooOOOOo.X.X  ",
"    Xo.ooOOOOoo     ",
"    Xoo..oOXXX      ",
"     Xo.XooXX       ",
"     X.             ",
"                    ",
"                    "};
