/* XPM */
static char * C3_xpm[] = {
"20 320 5 1",
" 	c None",
".	c #00A0A0",
"X	c #00FFFF",
"o	c #007878",
"O	c #00C8C8",
"                    ",
"         ..         ",
"        .XX.        ",
"       oXXXXo       ",
"     . .XXXX. .     ",
"    .  .XOOX.  .    ",
"    .  .OOOO.  .    ",
"   .O  o OO o  O.   ",
"   .O    OO    O.   ",
"   OO    OO    OO   ",
"   OO.  .XX.  .OO   ",
"   oXOOOOXXOOOOXo   ",
"   oXXXOXXXXOXXXo   ",
"   ooXXXXXXXXXXoo   ",
"    oOXXXXXXXXOo    ",
"    oOOXOXXOXOOo    ",
"    .OOOOXXOOOO.    ",
"     ..oo..oo..     ",
"       oo..oo       ",
"                    ",
"                    ",
"            oo.     ",
"       o. o.OX.     ",
"      ..  .XXXOo    ",
"     ..  .XXXXXo    ",
"     .O  .OOOX.o    ",
"    OO   o OOO.  o  ",
"    OO    oOoo. oo  ",
"   oXO.   OO o  .o  ",
"   oXOOO.XXo    O.  ",
"   oXXXOOXX.   OO.  ",
"   oOXXOXXXOO .OO   ",
"   oOXXXXXXOOOOOO   ",
"   oOOXXXXXXXXXo    ",
"   .OOOXXXXXXXXo    ",
"    .oOXXOXOOOo     ",
"    ooo..OOOOoo     ",
"      ..oo..o       ",
"         o .        ",
"                    ",
"                    ",
"                    ",
"         ..         ",
"       .O   .o.X.   ",
"      OO   ..XXXX   ",
"     OO   o.XOXX.   ",
"    oX.   o OOOXo   ",
"   oXXO    OOOX..   ",
"   oXXXo .OOO ..    ",
"  ooOXOOOXXO oo  .  ",
"  OOXXXXXXX.     .  ",
" ..OXXXXXXO     O   ",
"  .oOOXXXXOo   O.   ",
"  oooXXXXXOXO.OO    ",
"   o..XOXXXXXXO     ",
"    ..oOXXOXXo      ",
"     oooOOooo       ",
"      o..Oo         ",
"        .           ",
"                    ",
"                    ",
"                    ",
"          .o.o      ",
"       OOOoo        ",
"     ooOOo    ooo   ",
"   ooXXO.   ...X... ",
"   oOXXO   ooOXXXX. ",
"  oOOXXOo   oOOXXOo ",
" ..OOXXOO.oOOOOXX.  ",
"  .OXXXXXXXOo OX.o  ",
" ooOOXXXXXX  o..    ",
"  o.XXXXXO.      .  ",
"  ..XXXXOOO     .o  ",
"  .oOOXXXXOo  O..   ",
"   ooOOXXXOOOO..    ",
"   o.OOOOXXXOO      ",
"     .Oooooo        ",
"                    ",
"                    ",
"                    ",
"                    ",
"                    ",
"                    ",
"      oooOO..       ",
"   .oooXXOOOO..     ",
"  .OOOXXO.     .    ",
"  .OOXXXO           ",
" ooOXXXOO   o...o   ",
" ooOOXXXO.   OXXX.  ",
" ..XXXXXXXOOOOOXXX. ",
" ..XXXXXXXOOOOOXXX. ",
" ooOOXXXO.   OXXX.  ",
" ooOXXXOO   o...o   ",
"  .OOXXXO           ",
"  .OOOXXO.     .    ",
"   .oooXXOOOO..     ",
"      oooOO..       ",
"                    ",
"                    ",
"                    ",
"                    ",
"                    ",
"                    ",
"     .oooooo        ",
"   o.OOOOXXXOO      ",
"   ooOOXXXOOOO.o    ",
"  .oOOXXXXO.  O.o   ",
"  ..XXXXOOO     .o  ",
"  o.XXXXXO.      .  ",
" ooOOXXXXXX  o..    ",
"  .OXXXXXXXOo OX.o  ",
" ..OOXXOO.oOOOOXX.  ",
"  oOOXXOO   oOOXXOo ",
"   oOXXO   ooOXXXX. ",
"   ooXXO.   ...X... ",
"     ooOOO    ooo   ",
"       OOOO.        ",
"          oooo      ",
"                    ",
"                    ",
"                    ",
"        .           ",
"      o..Oo         ",
"     oooOOooo       ",
"    ..oOXXOXXo      ",
"   o..XOXXXXXXO     ",
"  oooXXXXXOXO.OO    ",
"  .oOOXXXXOo   O.   ",
" ..OXXXXXXO     O   ",
"  OOXXXXXXX.     .  ",
"  ooOXOOOXXO oo  .  ",
"   oXXXo .OOO ..    ",
"   oXXO    OOOX.o   ",
"    oX.   o OOOX.   ",
"     OO   o.XOXXO   ",
"      OO   ..XXXX   ",
"       .O   o.OX.   ",
"         ..         ",
"                    ",
"                    ",
"                    ",
"         o .        ",
"      ..oo..o       ",
"    ooo..OOOOoo     ",
"    .oOXXOXOOOo     ",
"   .OOOXXXXXXXXo    ",
"   OOOXXXXXXXXXo    ",
"   oOXXXXXXOOOOOO   ",
"   oOXXOXXXOo .OO   ",
"   oXXXOOXX.   oO   ",
"   oXOOO.XXo    o.  ",
"   oXOo   OO O  oo  ",
"    OO    oOoo.  .  ",
"    OO   o OOO.  o  ",
"     .O  .OOOX.o    ",
"     ..  .XXXXXo    ",
"      ..  .XXXoo    ",
"       o. o.OX.     ",
"            o..     ",
"                    ",
"                    ",
"       oo..oo       ",
"     ..oo..oo..     ",
"    .OOOOXXOOOOo    ",
"    oOOXOXXOXOOo    ",
"    oOXXXXXXXXOo    ",
"   ooXXXXXXXXXXoo   ",
"   oXXXOXXXXOXXXo   ",
"   oXOOOOXXOOOOXo   ",
"   OO.  .XX.  .OO   ",
"   OO    OO    OO   ",
"   .O    OO    O.   ",
"   .O  o OO o  O.   ",
"    .  .OOOO.  .    ",
"    .  .XOOX.  .    ",
"     . .XXXX. .     ",
"       oXXXXo       ",
"        .XX.        ",
"         ..         ",
"                    ",
"                    ",
"        . o         ",
"       o..oo..      ",
"     ooOOOO..oo     ",
"     oOOOXOXXOoo    ",
"    oXXXXXXXXOO.    ",
"    oXXXXXXXXXOO.   ",
"   OOOOOOXXXXXXOo   ",
"   OO. OOXXXOXXOo   ",
"   OO   .XXOOXXXo   ",
"  oO    oXX.OOOXo   ",
"  o.  o OO   .OXo   ",
"  o  .ooOo    OO    ",
"  o  .OOO o   OO    ",
"    o.XOOO.  O.     ",
"    oXXXXX.  .o     ",
"    o.XXX.  .       ",
"     .XO.o .o       ",
"     ..o            ",
"                    ",
"                    ",
"           .        ",
"         oO..o      ",
"       oooOOooo     ",
"      oXXOXXOo..    ",
"     OXXXXXXOX..o   ",
"    OO.OXOXXXXXooo  ",
"   .O   oOXXXXOOo.  ",
"   O     OXXXXXXO.. ",
"  .     .XXXXXXXOO  ",
"  .  oo OXXOOOXOoo  ",
"    .. OOO. oXXXo   ",
"   o.XOOO    OXXo   ",
"   .XOOO o   .Xo    ",
"   OXXOX.o   OO     ",
"   XXXX..   OO      ",
"   .XO.o   O.       ",
"         ..         ",
"                    ",
"                    ",
"                    ",
"                    ",
"                    ",
"        oooooO.     ",
"      OOXXXOOOO.o   ",
"    ..OOOOXXXOOoo   ",
"   ..O  oOXXXXOOo.  ",
"  o.     OOOXXXX..  ",
"  .      .OXXXXX.o  ",
"    ..o  XXXXXXOOoo ",
"  o.XO oOXXXXXXXO.  ",
"  .XXOOOOo.OOXXOO.. ",
" oOXXOOo   oOXXOOo  ",
" .XXXXOoO   OXXOo   ",
" ..oX...   .OXXoo   ",
"   ooo    oOOoo     ",
"        ooOOO       ",
"      o.o.          ",
"                    ",
"                    ",
"                    ",
"                    ",
"                    ",
"       ..OOooo      ",
"     ..OOOOXXooo.   ",
"    .     .OXXOOO.  ",
"           OXXXOO.  ",
"   o...o   OOXXXOo. ",
"  .XXXO   .OXXXOOoo ",
" .XXXOOOOOXXXXXXX.. ",
" .XXXOOOOOXXXXXXX.. ",
"  .XXXO   .OXXXOOoo ",
"   o...o   OOXXXOoo ",
"           OXXXOO.  ",
"    .     .OXXOOO.  ",
"     ..OOOOXXoooo   ",
"       ..OOooo      ",
"                    ",
"                    ",
"                    ",
"                    ",
"                    ",
"      oooo          ",
"        .OOOO       ",
"   ooo    OOOoo     ",
" ...X...   .OXXoo   ",
" .XXXXOoo   OXXOo   ",
" oOXXOOo   OOXXOOo  ",
"  .XXOOOOo.OOXXOO.. ",
"  o.XO oOXXXXXXXO.  ",
"    ..o  XXXXXXOOoo ",
"  .      .OXXXXX.o  ",
"  o.     OOOXXXX..  ",
"    .O  .OXXXXOOo.  ",
"    o.OOOOXXXOOoo   ",
"      OOXXXOOO.o    ",
"        ooooo.      ",
"                    ",
"                    ",
"                    ",
"                    ",
"                    ",
"         ..         ",
"   .XO.o   O.       ",
"   XXXX..   OO      ",
"   OXXOX.o   OO     ",
"   .XOOO o   .Xo    ",
"   o.XOOO    OXXo   ",
"    .. OOO. oXXXo   ",
"  .  oo OXXOOOXOoo  ",
"  .     .XXXXXXXOO  ",
"   O     OXXXXXXO.. ",
"   .O   oOXXXXOOo.  ",
"    OO.OXOXXXXXooo  ",
"     OXXXXXXOX..o   ",
"      oXXOXXOo..    ",
"       oooOOooo     ",
"         oO..o      ",
"           .        ",
"                    ",
"                    ",
"     ..o            ",
"     .XO.o .o       ",
"    ooXXX.  ..      ",
"    oXXXXX.  ..     ",
"    o.XOOO.  O.     ",
"  o  .OOO o   OO    ",
"  .  .ooOo    OO    ",
"  oo  O OO   oOXo   ",
"  .o    oXX.OOOXo   ",
"   Oo   .XXOOXXXo   ",
"   OO. oOXXXOXXOo   ",
"   OOOOOOXXXXXXOo   ",
"    oXXXXXXXXXOOO   ",
"    oXXXXXXXXOOO.   ",
"     oOOOXOXXOo.    ",
"     ooOOOO..ooo    ",
"       o..oo..      ",
"        . o         ",
"                    "};
