/* XPM */
static char * C2_xpm[] = {
"20 320 5 1",
" 	c None",
".	c #00A0A0",
"X	c #00FFFF",
"o	c #00C8C8",
"O	c #007878",
"                    ",
"         ..         ",
"        .XX.        ",
"        oXXo        ",
"     .  OXXO  .     ",
"    .    oo    .    ",
"    o    oo    o    ",
"    o   .oo.   o    ",
"    o.  oooo  .o    ",
"    oo  oXXo  oo    ",
"    Oo .oXXo. oO    ",
"    Oo.oXXXXo.oO    ",
"    Oo.XXOOXX.oO    ",
"    Oo. .OO. .oO    ",
"     O        O     ",
"     o        o     ",
"      o      o      ",
"                    ",
"                    ",
"                    ",
"                    ",
"                    ",
"           O..      ",
"       .O  oXXO     ",
"      .   OXXo.     ",
"      o    oXO      ",
"     oO   Ooo   O   ",
"     o.  .oo    O   ",
"    OoO Oooo.   .   ",
"    Oo OoXXo.   o   ",
"   O.o.ooXXoO O.o   ",
"   OO.XXXXXoO O.    ",
"   O.. XOOXoo oO    ",
"   oO  .OOXX.oO     ",
"   .      . .oO     ",
"    o       oO      ",
"            O       ",
"          Ooo       ",
"                    ",
"                    ",
"                    ",
"                    ",
"                    ",
"        o..   O.    ",
"       oO    oX..   ",
"      o.    OXXXO   ",
"     Ooo    oXXo    ",
"    Ooo   .oooO     ",
"   Ooo..Ooooo       ",
"   Oo.oooXXo.   .   ",
"  oO. XXXXXo    .   ",
"  o   .OXXoO   Oo   ",
"  o   OOOXo. o.o    ",
"       O.Xo.ooo     ",
"          .ooO      ",
"         .ooO       ",
"         OOO        ",
"       ooo          ",
"                    ",
"                    ",
"                    ",
"                    ",
"                    ",
"          oo..O     ",
"        Ooo         ",
"      OOoo.     .O  ",
"     Ooo       OoX  ",
"   oOo..o.Oo. oXXX  ",
"   o   XooooooooXo  ",
"   O  .XXXXXoo  O   ",
"       OOXXXo.      ",
"       OOXoo     .  ",
"       .XXo.     O  ",
"         X. o.Oo.   ",
"        ..ooooo     ",
"     o O.o.OO       ",
"      .oOOO         ",
"                    ",
"                    ",
"                    ",
"                    ",
"                    ",
"                    ",
"                    ",
"      OOOOoooo.     ",
"    oOooooo.   .    ",
"   o  ...           ",
"       Xo.          ",
"      .XXooo.  Oo.  ",
"      OOXXXooooXXX. ",
"      OOXXXooooXXX. ",
"      .XXooo.  Oo.  ",
"       Xo.          ",
"   o  ...           ",
"    oOooooo.   .    ",
"      OOOOoooo.     ",
"                    ",
"                    ",
"                    ",
"                    ",
"                    ",
"                    ",
"                    ",
"     .oOOO          ",
"    o O.O.OO        ",
"       ..ooooo      ",
"        X. O.Oo.    ",
"      .XXoO     .   ",
"      OOXooO    O   ",
"      OOXXXo.       ",
"  O  .XXXXXooO O    ",
"  o   XooooooooXoO  ",
"  oOo..oOO.. oXXX.  ",
"    Ooo       OoX.  ",
"     OOoOO     .O   ",
"       O..          ",
"         oo.O       ",
"                    ",
"                    ",
"                    ",
"                    ",
"                    ",
"       ooo          ",
"         OOO        ",
"         .ooO       ",
"          .ooO      ",
"       O.Xo.ooo     ",
"  o   OOOXo. o.o    ",
"  o   .OXXoO   Oo   ",
"  oO. XXXXXo    .   ",
"   Oo.oooXXo.   .   ",
"   Ooo..Ooooo       ",
"    Ooo   .oooO     ",
"     Ooo    oXXo    ",
"      o.    OXXXO   ",
"       oO    oX..   ",
"        o..   O.    ",
"                    ",
"                    ",
"                    ",
"                    ",
"                    ",
"                    ",
"          Ooo       ",
"            O       ",
"    o       oO      ",
"   .      . .oO     ",
"   oO  .OOXX.oO     ",
"   O.. XOOXoo oO    ",
"   Oo.XXXXXo. oo    ",
"   O.o.ooXXoO .oo   ",
"    Oo .oXXoo   o   ",
"    Ooo Oooo.   .   ",
"     o.  .oo    .   ",
"     oO    oo   O   ",
"      o    oXO      ",
"      .   OXX..     ",
"       O.  oXXO     ",
"           ...      ",
"                    ",
"                    ",
"                    ",
"                    ",
"      o      o      ",
"     o        o     ",
"     O        O     ",
"    Oo. .OO. .oO    ",
"    Oo.XXOOXX.oO    ",
"    Oo.oXXXXo.oO    ",
"    Oo .oXXo. oO    ",
"    oo  oXXo  oo    ",
"    o.  oooo  .o    ",
"    o   .oo.   o    ",
"    o    oo    o    ",
"    .    oo    .    ",
"     .  OXXO  .     ",
"        oXXo        ",
"        .XX.        ",
"         ..         ",
"                    ",
"                    ",
"                    ",
"       ooO          ",
"       O            ",
"      Oo       o    ",
"     Oo. .      .   ",
"     Oo.XXOO.  Oo   ",
"    Oo ooXOOX ..O   ",
"    .O OoXXXXX.OO   ",
"   o.O OoXXoo.o.O   ",
"   o   .oXXoO oO    ",
"   .   .oooO OoO    ",
"   O    oo.  .o     ",
"       ooO   Oo     ",
"      OXo    o      ",
"     .oXXO   .      ",
"     OXXo  O.       ",
"      ..O           ",
"                    ",
"                    ",
"                    ",
"                    ",
"          ooo       ",
"        OOO         ",
"       Ooo.         ",
"      Ooo.          ",
"     ooo.oX.O       ",
"    o.o .oXOOO   o  ",
"   oO   OoXXO.   o  ",
"   .    oXXXXX .Oo  ",
"   .   .oXXooo.oO   ",
"       ooooO..ooO   ",
"     Oooo.   ooO    ",
"    oXXo    ooO     ",
"   OXXXO    .o      ",
"   ..Xo    Oo       ",
"    .O   ..o        ",
"                    ",
"                    ",
"                    ",
"                    ",
"                    ",
"                    ",
"         OOOo.      ",
"       OO.o.O o     ",
"     ooooo..        ",
"   .oO.o .X         ",
"  O     .oXX.       ",
"  .    OooXOO       ",
"      .oXXXOO       ",
"   O  ooXXXXX.  O   ",
" .oXooooooooX   o   ",
" .XXXo .oO.o..oOo   ",
" .X.O       ooO     ",
"  O.     .ooOO      ",
"         ooO        ",
"     O..oo          ",
"                    ",
"                    ",
"                    ",
"                    ",
"                    ",
"                    ",
"                    ",
"     .ooooOOOO      ",
"    .   .oooooOo    ",
"           ...  o   ",
"          .oX       ",
"  .oO  .oooXX.      ",
" .XXXooooXXXOO      ",
" .XXXooooXXXOO      ",
"  .oO  .oooXX.      ",
"          .oX       ",
"           ...  o   ",
"    .   .oooooOo    ",
"     .ooooOOOO      ",
"                    ",
"                    ",
"                    ",
"                    ",
"                    ",
"                    ",
"                    ",
"       O.oo         ",
"          ..O       ",
"   O.     OOoOO     ",
"  .XoO       ooO    ",
"  .XXXo ..OOo..oOo  ",
"  OoXooooooooX   o  ",
"    O OooXXXXX.  O  ",
"       .oXXXOO      ",
"   O    OooXOO      ",
"   .     OoXX.      ",
"    .oO.O .X        ",
"      ooooo..       ",
"        OO.O.O o    ",
"          OOO.O     ",
"                    ",
"                    ",
"                    ",
"                    ",
"                    ",
"                    ",
"    .O   ..o        ",
"   ..Xo    Oo       ",
"   OXXXO    .o      ",
"    oXXo    ooO     ",
"     Oooo.   ooO    ",
"       ooooO..ooO   ",
"   .   .oXXooo.oO   ",
"   .    oXXXXX .Oo  ",
"   oO   OoXXO.   o  ",
"    o.o .oXOOO   o  ",
"     ooo.oX.O       ",
"      Ooo.          ",
"       Ooo.         ",
"        OOO         ",
"          ooo       ",
"                    ",
"                    ",
"                    ",
"      ...           ",
"     OXXo  .O       ",
"     ..XXO   .      ",
"      OXo    o      ",
"   O   oo    Oo     ",
"   .    ooO  .o     ",
"   .   .ooo. ooO    ",
"   o   ooXXo. oO    ",
"   oo. OoXXoo.o.O   ",
"    oo OoXXXXX.oO   ",
"    Oo ooXOOX ..O   ",
"     Oo.XXOO.  Oo   ",
"     Oo. .      .   ",
"      Oo       o    ",
"       O            ",
"       ooO          ",
"                    ",
"                    ",
"                    "};
