/* XPM */
static char * C10_xpm[] = {
"20 320 5 1",
" 	c None",
".	c #00A0A0",
"X	c #007878",
"o	c #00FFFF",
"O	c #00C8C8",
"                    ",
"                    ",
"         ..         ",
"        XooX        ",
"    .   OooO   .    ",
"    O   .OO.   O    ",
"    o    OO    o    ",
"    o    OO    o    ",
"   .o    OO    o.   ",
"   Oo   .oo.   oO   ",
"   Xo.OOOooOOO.oX   ",
"   XX.OooooooO.XX   ",
"    X  XOooOX  X    ",
"    o   XOOX   o    ",
"    O    OO    O    ",
"     .   ..   .     ",
"         XX         ",
"                    ",
"                    ",
"                    ",
"                    ",
"                    ",
"                    ",
"      X    .O       ",
"     XO   Ooo.      ",
"     o    oooX      ",
"    .X    OO.       ",
"   Oo     OX    .   ",
"   XO    OO     O   ",
"  XXo.O .oO    OX   ",
"  XXXOoOooo    o    ",
"  XO  XoooOX  .o    ",
"  .   XOooooO oO    ",
"  X   XOOOXXO.oX    ",
"      XOOX  XXX     ",
"      ...    oX     ",
"      XX    OO      ",
"           .        ",
"                    ",
"                    ",
"                    ",
"                    ",
"         .          ",
"        O           ",
"       o      .     ",
"     Oo     OoO.    ",
"    Xo     .Ooo     ",
"   XX..    OOOO     ",
"   X .OO  OOO.      ",
"  O   oOOoOO        ",
"  .  XXoooo      .  ",
"      OoooO     O   ",
"     XOoooOO   o    ",
"     OOOOXoO. o     ",
"    X.OX X ..oO     ",
"     X      XX      ",
"           XX       ",
"         .O         ",
"                    ",
"                    ",
"                    ",
"                    ",
"                    ",
"          XO.       ",
"      XOooO         ",
"    XXooO           ",
"   OoX.X      X.    ",
"   O  OO     .oo.   ",
"  .   XoO   OOoo.   ",
"      XoOoOOOOoO    ",
"     XOooooO        ",
"    .OOooo.         ",
"   X.OOOoO          ",
"   X.XXXXo.    O.   ",
"         OO  .o.    ",
"         XoOo.      ",
"        OXXXO       ",
"      XOXXX         ",
"                    ",
"                    ",
"                    ",
"                    ",
"                    ",
"        XXO.        ",
"     OoXXoooooO.    ",
"    .   ..          ",
"        OO          ",
"       XoO          ",
"      XOoO.   .OX   ",
"   X.OOooooOOOOoo.  ",
"   X.OOooooOOOOoo.  ",
"      XOoO.   .OX   ",
"       XoO          ",
"        OO          ",
"    .   ..          ",
"     OoXXoooooO.    ",
"        XXO.        ",
"                    ",
"                    ",
"                    ",
"                    ",
"                    ",
"      X.XXX         ",
"        OXXXO       ",
"         XoOo.      ",
"         O.  XOX    ",
"   X.XXXXoO    OX   ",
"   X.OOOoO          ",
"    .OOooo.         ",
"     XOooooO        ",
"      XoOoOOOOoO    ",
"  .   XoX   XOoo.   ",
"   O XOO     .ooO   ",
"   OoX.       X.    ",
"    XXoo.           ",
"      XOooO         ",
"          XOX       ",
"                    ",
"                    ",
"                    ",
"                    ",
"                    ",
"         .O         ",
"           XX       ",
"     X      XX      ",
"    X.OX X ..oO     ",
"     OOOOXoO. o     ",
"     XOoooOO   o    ",
"      OoooO     O   ",
"  .  XXoooo      .  ",
"  O   oOOoOO        ",
"   X .OO  OOO.      ",
"   XX..    OOOO     ",
"    Xo     .Ooo     ",
"     Oo     OoO.    ",
"       o      .     ",
"        O           ",
"         .          ",
"                    ",
"                    ",
"                    ",
"                    ",
"           .        ",
"      XX    OO      ",
"      ...    oX     ",
"      XOOX   XX     ",
"  X   XOOOXXO.oX    ",
"  O   XOooooOXoO    ",
"  XO  XoooOO  Oo    ",
"  XXXOoOooo    o    ",
"  XXoO. .oO    OX   ",
"   XO    OO     O   ",
"   Oo     OO    .   ",
"    ..    OO.       ",
"     o    oooX      ",
"     .O   Oo..      ",
"      .    ..       ",
"                    ",
"                    ",
"                    ",
"                    ",
"                    ",
"                    ",
"         XX         ",
"     .   ..   .     ",
"    O    OO    .    ",
"    o   XOOX   O    ",
"    X  XOooOX  X    ",
"   XX.OooooooO.XX   ",
"   Xo.OOOooOOO.oX   ",
"   Oo   .oo.   oO   ",
"   .o    OO    o.   ",
"    o    OO    o    ",
"    o    OO    o    ",
"    O   .OO.   O    ",
"    .   OooO   .    ",
"        XooX        ",
"         ..         ",
"                    ",
"                    ",
"                    ",
"                    ",
"        .           ",
"      OO    XX      ",
"     Xo    ...      ",
"     XXX  XOOX      ",
"    Xo.OXXOOOX   X  ",
"    Oo OooooOX   .  ",
"    o.  XOoooX  OX  ",
"    o    oooOoOXXX  ",
"   XO    Oo. O.oXX  ",
"   O     OO    OX   ",
"   X    XO     oO   ",
"       .OO    X.    ",
"      Xooo    O     ",
"      .ooO   O.     ",
"       O.    X      ",
"                    ",
"                    ",
"                    ",
"                    ",
"                    ",
"         O.         ",
"       XX           ",
"      XX      X     ",
"     Oo.. X XO.X    ",
"     o .OoXOOOO     ",
"    o   OOoooOX     ",
"   O     OoooO      ",
"  .      ooooXX  .  ",
"        OOoOOo   O  ",
"      .OOO  OO. X   ",
"     OOOO    ..XX   ",
"     ooO.     oX    ",
"    .OoO     oO     ",
"     .      o       ",
"           O        ",
"          .         ",
"                    ",
"                    ",
"                    ",
"                    ",
"         XXXOX      ",
"       OXXXO        ",
"      .oOoX         ",
"    .o.  OO         ",
"   .O    .oXXXX.X   ",
"          OoOOO.X   ",
"         .oooOO.    ",
"        OooooOX     ",
"    OoOOOOoOoX      ",
"   .ooOO   OoX   .  ",
"   ..o.     OO  O   ",
"    .X      X.XoO   ",
"           OooXX    ",
"         OooOX      ",
"       .OX          ",
"                    ",
"                    ",
"                    ",
"                    ",
"                    ",
"                    ",
"        .OXX        ",
"    .OoooooXXoO     ",
"          ..   .    ",
"          OO        ",
"          OoX       ",
"   XO.   .OoOX      ",
"  .ooOOOOooooOO.X   ",
"  .ooOOOOooooOO.X   ",
"   XO.   .OoOX      ",
"          OoX       ",
"          OO        ",
"          ..   .    ",
"    .OoooooXXO.     ",
"        .OXX        ",
"                    ",
"                    ",
"                    ",
"                    ",
"                    ",
"                    ",
"       XOX          ",
"         OooOX      ",
"           .ooXX    ",
"    .X       .Xo.   ",
"   Ooo.     OOX O   ",
"   .ooOX   XoX   .  ",
"    OoOOOOoOoX      ",
"        OooooOX     ",
"         .oooOO.    ",
"          OoOOO.X   ",
"   XO    OoXXXX.X   ",
"    .OX  .O         ",
"      .oOoX         ",
"       OXXXO        ",
"         XXX.X      ",
"                    ",
"                    ",
"                    ",
"                    ",
"          .         ",
"           O        ",
"     .      o       ",
"    .OoO     oO     ",
"     ooO.     oX    ",
"     OOOO    ..XX   ",
"      .OOO  OO. X   ",
"        OOoOOo   O  ",
"  .      ooooXX  .  ",
"   O     OoooO      ",
"    o   OOoooOX     ",
"     o .OoXOOOO     ",
"     Oo.. X XO.X    ",
"      XX      X     ",
"       XX           ",
"         O.         ",
"                    ",
"                    ",
"                    ",
"                    ",
"                    ",
"       ..    .      ",
"      ..oO   O.     ",
"      Xooo    o     ",
"       .OO    ..    ",
"   .    OO     oO   ",
"   O     OO    OX   ",
"   XO    Oo. .OoXX  ",
"    o    oooOoOXXX  ",
"    oO  OOoooX  OX  ",
"    OoXOooooOX   O  ",
"    Xo.OXXOOOX   X  ",
"     XX   XOOX      ",
"     Xo    ...      ",
"      OO    XX      ",
"        .           ",
"                    ",
"                    "};
