/* XPM */
static char * C1_xpm[] = {
"20 320 5 1",
" 	c None",
".	c #00A0A0",
"X	c #00C8C8",
"o	c #00FFFF",
"O	c #007878",
"                    ",
"                    ",
"         ..         ",
"         XX         ",
"        XooX        ",
"        .oo.        ",
"         XX         ",
"     O   XX   O     ",
"    .    XX    .    ",
"    .    XX    .    ",
"    ..   oo   ..    ",
"    O..XooooX..O    ",
"     O.XXooXX.O     ",
"     O.XXOOXX.O     ",
"      OX    XO      ",
"       .O  O.       ",
"                    ",
"                    ",
"                    ",
"                    ",
"                    ",
"                    ",
"                    ",
"            ..      ",
"           XXX      ",
"          .ooX      ",
"      O    oo.      ",
"     .    .X        ",
"    ..    XX        ",
"    O.O  OXO        ",
"    O..X oX    .    ",
"    O.XXooo    .    ",
"    OXXXoooXXO..    ",
"     OXXOOXX..O     ",
"     .X   XX.O      ",
"      .   XOO       ",
"         ..         ",
"                    ",
"                    ",
"                    ",
"                    ",
"                    ",
"                    ",
"                    ",
"       OO     .O    ",
"      .     XoX.    ",
"     OO     ooo     ",
"    OOO    XXoX     ",
"    O..   XXX       ",
"    O.XX XXX        ",
"    OXXoooX         ",
"    XXXooo     O    ",
"    X OoooX    O    ",
"       OXXX.OO.     ",
"        XX..OO      ",
"       .XOOOO       ",
"                    ",
"                    ",
"                    ",
"                    ",
"                    ",
"                    ",
"                    ",
"                    ",
"        ...         ",
"       O.           ",
"      O.O     .XX.  ",
"     O..X     ooX.  ",
"     OXXX  OXXooX   ",
"    OXXXooXXX. .    ",
"    O  OoooO        ",
"       Ooo          ",
"       XXXX         ",
"     .XXXX.O  O     ",
"      OOO.....      ",
"        OOOO.       ",
"                    ",
"                    ",
"                    ",
"                    ",
"                    ",
"                    ",
"                    ",
"                    ",
"        O...        ",
"      OO..  O       ",
"     O...           ",
"    .XXXX           ",
"    O XXo     .X    ",
"      OoooXXXXooX.  ",
"      OoooXXXXooX.  ",
"    O XXo     .X    ",
"    .XXXX           ",
"     O...           ",
"      OO..  O       ",
"        O...        ",
"                    ",
"                    ",
"                    ",
"                    ",
"                    ",
"                    ",
"                    ",
"                    ",
"       OOOO.        ",
"     .OX.....       ",
"    .XXXX.O  O      ",
"      XXXX          ",
"      Ooo           ",
"   .  OoooO         ",
"   .XXXooXXX. .     ",
"    OXXX  OXXooX    ",
"    O..X     ooX.   ",
"     O.O     .XX.   ",
"      O.            ",
"       ...          ",
"                    ",
"                    ",
"                    ",
"                    ",
"                    ",
"                    ",
"                    ",
"                    ",
"       XXOOOO       ",
"        XX..OO      ",
"       OXXX.OO.     ",
"    . OoooX    O    ",
"    XXXooo     O    ",
"    OXXoooX         ",
"    O.XX XXX        ",
"    O..   XXX       ",
"    OOO    XXoX     ",
"     OO     ooo     ",
"      .     XoX.    ",
"       OO     .O    ",
"                    ",
"                    ",
"                    ",
"                    ",
"                    ",
"                    ",
"                    ",
"                    ",
"         OO         ",
"      .   XOO       ",
"     OX   XX.O      ",
"     OXXOOXX..O     ",
"    OOXXoooXXO..    ",
"    O.XXooo    .    ",
"    O..X oX    .    ",
"    O.O  OXO        ",
"    ..    XX        ",
"     .    .X        ",
"      O    oo.      ",
"          .ooX      ",
"           XXX      ",
"            ..      ",
"                    ",
"                    ",
"                    ",
"                    ",
"                    ",
"                    ",
"       .O  O.       ",
"      OX    XO      ",
"     O.XXOOXX.O     ",
"     O.XXooXX.O     ",
"    O..XooooX..O    ",
"    ..   oo   ..    ",
"    .    XX    .    ",
"    .    XX    .    ",
"     O   XX   O     ",
"         XX         ",
"        .oo.        ",
"        XooX        ",
"         XX         ",
"         ..         ",
"                    ",
"                    ",
"                    ",
"                    ",
"                    ",
"         ..         ",
"       OOX   .      ",
"      O.XX   X.     ",
"     O..XXOOXXO     ",
"    ..OXXoooXXXO    ",
"    .    oooXX.O    ",
"    .    Xo X..O    ",
"        OXO  O.O    ",
"        XX    ..    ",
"        X.    .     ",
"      .oo    O      ",
"      Xoo.          ",
"      XXX           ",
"      ..            ",
"                    ",
"                    ",
"                    ",
"                    ",
"                    ",
"                    ",
"                    ",
"       OOOOX.       ",
"      OO..XX        ",
"     .OO.XXXO       ",
"    O    XoooO X    ",
"    O     oooXXX    ",
"         XoooXXO    ",
"        XXX XX.O    ",
"       XXX   ..O    ",
"     XoXX    OOO    ",
"     ooo     OO     ",
"    .XoX     .      ",
"    O.     OO       ",
"                    ",
"                    ",
"                    ",
"                    ",
"                    ",
"                    ",
"                    ",
"                    ",
"       .OOOO        ",
"      .....OOO      ",
"     O  O.XXXX.     ",
"         XXXX       ",
"          ooO       ",
"        OoooO  O    ",
"    . .XXXooXXXO    ",
"   XooXXO  XXXO     ",
"  .Xoo     X..O     ",
"  .XX.     O.O      ",
"           .O       ",
"         ...        ",
"                    ",
"                    ",
"                    ",
"                    ",
"                    ",
"                    ",
"                    ",
"                    ",
"        ...O        ",
"       O  ..OO      ",
"           ...O     ",
"           XXXX.    ",
"    X.     oXX O    ",
"  .XooXXXXoooO      ",
"  .XooXXXXoooO      ",
"    X.     oXX O    ",
"           XXXX.    ",
"           ...O     ",
"       O  ..OO      ",
"        ...O        ",
"                    ",
"                    ",
"                    ",
"                    ",
"                    ",
"                    ",
"                    ",
"                    ",
"          ...       ",
"            .O      ",
"   .XX.     O.O     ",
"   .Xoo     X..O    ",
"    XooXXO  XXXO    ",
"     . .XXXooXXX.   ",
"         OoooO  .   ",
"           ooO      ",
"          XXXX      ",
"      O  O.XXXX.    ",
"       .....XO.     ",
"        .OOOO       ",
"                    ",
"                    ",
"                    ",
"                    ",
"                    ",
"                    ",
"                    ",
"                    ",
"    O.     OO       ",
"    .XoX     .      ",
"     ooo     OO     ",
"     XoXX    OOO    ",
"       XXX   ..O    ",
"        XXX XX.O    ",
"         XoooXXO    ",
"    O     oooXXX    ",
"    O    XoooO .    ",
"     .OO.XXXO       ",
"      OO..XX        ",
"       OOOOXX       ",
"                    ",
"                    ",
"                    ",
"                    ",
"                    ",
"                    ",
"      ..            ",
"      XXX           ",
"      Xoo.          ",
"      .oo    O      ",
"        X.    .     ",
"        XX    ..    ",
"        OXO  O.O    ",
"    .    Xo X..O    ",
"    .    oooXX.O    ",
"    ..OXXoooXXOO    ",
"     O..XXOOXXO     ",
"      O.XX   XO     ",
"       OOX   .      ",
"         OO         ",
"                    ",
"                    ",
"                    ",
"                    "};
