/* XPM */
static char * C7_xpm[] = {
"20 20 6 1",
" 	c None",
".	c #0000C8C8C8C8",
"X	c #0000A0A0A0A0",
"o	c #0000FFFFFFFF",
"O	c #000078787878",
"+	c #000078787878",
"                    ",
"                    ",
"     .X       X.    ",
"    oX         Xo   ",
"   .XoX  .o.  XoX.  ",
"   X XoXO   OXoX X  ",
"      XoX   XoX     ",
"      OXoXoXoXO     ",
"     .  X+o+X  .    ",
"     o  ooooo  o    ",
"     .  X+o+X  .    ",
"      OXoXoXoXO     ",
"      XoX   XoX     ",
"   X XoXO   OXoX X  ",
"   .XoX  .o.  XoX.  ",
"    oX         Xo   ",
"     .X       X.    ",
"                    ",
"                    ",
"                    "};
