/* XPM */
static char * C13_xpm[] = {
"20 320 5 1",
" 	c None",
".	c #00A0A0",
"X	c #007878",
"o	c #00C8C8",
"O	c #00FFFF",
"                    ",
"                    ",
"                    ",
"                    ",
"                    ",
"       .     .      ",
"       .  X  .      ",
"       o  o  o      ",
"       o oOo o      ",
"       . .O. .      ",
"       .  o  .      ",
"       .o o o.      ",
"       XoXoXoX      ",
"        XX XX       ",
"         O O        ",
"                    ",
"                    ",
"                    ",
"                    ",
"                    ",
"                    ",
"                    ",
"                    ",
"                    ",
"         .          ",
"         X          ",
"        o   X  .    ",
"        o XoX  .    ",
"       X. .Oo o     ",
"       .  oOX o     ",
"       Xo o  .      ",
"       XoXo o.      ",
"       XX XooX      ",
"        O XXX       ",
"          O         ",
"                    ",
"                    ",
"                    ",
"                    ",
"                    ",
"                    ",
"                    ",
"                    ",
"                    ",
"                    ",
"           .        ",
"          .         ",
"         o          ",
"        .  .X       ",
"      X.  OO.  .    ",
"      Xo  OO  .     ",
"      XXoo   o      ",
"      X..X  .       ",
"     XX..Xo.        ",
"       XXXXX        ",
"       X            ",
"                    ",
"                    ",
"                    ",
"                    ",
"                    ",
"                    ",
"                    ",
"                    ",
"                    ",
"           ..       ",
"         oo         ",
"      ...           ",
"      Xo  XXX       ",
"     XoX oOOX       ",
"    XXXoooXX        ",
"       XX    o.     ",
"     OXooo..o       ",
"       XX.          ",
"                    ",
"                    ",
"                    ",
"                    ",
"                    ",
"                    ",
"                    ",
"                    ",
"                    ",
"                    ",
"                    ",
"                    ",
"                    ",
"       X...oo..     ",
"      Xoo           ",
"     OXX  .o        ",
"       oooOOoX      ",
"     OXX  .o        ",
"      Xoo           ",
"       X...oo..     ",
"                    ",
"                    ",
"                    ",
"                    ",
"                    ",
"                    ",
"                    ",
"                    ",
"                    ",
"                    ",
"                    ",
"                    ",
"                    ",
"       XXX.X        ",
"      OXoo .oo      ",
"        X     X.    ",
"     OXXooo.X       ",
"      Xo  OOo       ",
"      Xoo XoXX      ",
"       X..          ",
"          oo        ",
"            ..      ",
"                    ",
"                    ",
"                    ",
"                    ",
"                    ",
"                    ",
"                    ",
"                    ",
"                    ",
"      X             ",
"      XXXXX         ",
"    XX..Xo.         ",
"     X..o  .        ",
"     XXXo   o       ",
"     Xo  OO  .      ",
"     X.  OO.  .     ",
"       .  .X        ",
"        o           ",
"         .          ",
"          .         ",
"                    ",
"                    ",
"                    ",
"                    ",
"                    ",
"                    ",
"                    ",
"                    ",
"         X          ",
"       O XX         ",
"       X XoX.       ",
"      XoXoXo.       ",
"      XoXo  .       ",
"      .o oo  o      ",
"       . XOX o      ",
"       . XOX  .     ",
"       o  XX  .     ",
"        o           ",
"        .           ",
"                    ",
"                    ",
"                    ",
"                    ",
"                    ",
"                    ",
"                    ",
"                    ",
"                    ",
"                    ",
"        O O         ",
"       XX XX        ",
"      XoXoXoX       ",
"      .o o o.       ",
"      .  o  .       ",
"      . .O. .       ",
"      o oOo o       ",
"      o  o  o       ",
"      .  X  .       ",
"      .     .       ",
"                    ",
"                    ",
"                    ",
"                    ",
"                    ",
"                    ",
"                    ",
"                    ",
"                    ",
"                    ",
"         O          ",
"       XXX O        ",
"      XooX XX       ",
"      .o oXoX       ",
"      .  o oX       ",
"     o XOo  .       ",
"     o oO. .X       ",
"    .  XoX o        ",
"    .  X   o        ",
"          X         ",
"          .         ",
"                    ",
"                    ",
"                    ",
"                    ",
"                    ",
"                    ",
"                    ",
"                    ",
"            X       ",
"        XXXXX       ",
"        .oX..XX     ",
"       .  X..X      ",
"      o   ooXX      ",
"     .  OO  oX      ",
"    .  .OO  .X      ",
"       X.  .        ",
"          o         ",
"         .          ",
"        .           ",
"                    ",
"                    ",
"                    ",
"                    ",
"                    ",
"                    ",
"                    ",
"                    ",
"                    ",
"                    ",
"                    ",
"          .XX       ",
"       o..oooXO     ",
"     .o    XX       ",
"        XXoooXXX    ",
"       XOOo XoX     ",
"       XXX  oX      ",
"           ...      ",
"         oo         ",
"       ..           ",
"                    ",
"                    ",
"                    ",
"                    ",
"                    ",
"                    ",
"                    ",
"                    ",
"                    ",
"                    ",
"                    ",
"     ..oo...X       ",
"           ooX      ",
"        o.  XXO     ",
"      XoOOooo       ",
"        o.  XXO     ",
"           ooX      ",
"     ..oo...X       ",
"                    ",
"                    ",
"                    ",
"                    ",
"                    ",
"                    ",
"                    ",
"                    ",
"                    ",
"                    ",
"                    ",
"      ..            ",
"        oo          ",
"          ..X       ",
"      XXoX ooX      ",
"       oOO  oX      ",
"       X.oooXXO     ",
"    .X     X        ",
"      oo. ooXO      ",
"        X.XXX       ",
"                    ",
"                    ",
"                    ",
"                    ",
"                    ",
"                    ",
"                    ",
"                    ",
"                    ",
"                    ",
"                    ",
"         .          ",
"          .         ",
"           o        ",
"        X.  .       ",
"     .  .OO  .X     ",
"      .  OO  oX     ",
"       o   oXXX     ",
"        .  o..X     ",
"         .oX..XX    ",
"         XXXXX      ",
"             X      ",
"                    ",
"                    ",
"                    ",
"                    ",
"                    ",
"                    ",
"                    ",
"                    ",
"                    ",
"                    ",
"           .        ",
"           o        ",
"     .  XX  o       ",
"     .  XOX .       ",
"      o XOX .       ",
"      o  oo o.      ",
"       .  oXoX      ",
"       .oXoXoX      ",
"       .XoX X       ",
"         XX O       ",
"          X         ",
"                    ",
"                    ",
"                    ",
"                    "};
