/* XPM */
static char * C0_xpm[] = {
"20 320 5 1",
" 	c None",
".	c #00A0A0",
"X	c #00C8C8",
"o	c #00FFFF",
"O	c #007878",
"                    ",
"                    ",
"                    ",
"          .         ",
"          X         ",
"         XoX        ",
"         .o.        ",
"      O   X   O     ",
"      .   X   .     ",
"      ..  X  ..     ",
"      .Xo X oX.     ",
"      OXO.X.OXO     ",
"       XOOOOOX      ",
"       .O   O.      ",
"        O   O       ",
"                    ",
"                    ",
"                    ",
"                    ",
"                    ",
"                    ",
"                    ",
"                    ",
"                    ",
"             X      ",
"           O.X      ",
"           XoO      ",
"       .   XXO      ",
"       .   X        ",
"      O..  X   .    ",
"      OXoOOX   .    ",
"      OXO.XOo..     ",
"       XOOX.OX.     ",
"       O  OOOXO     ",
"       O   OX       ",
"           O.       ",
"                    ",
"                    ",
"                    ",
"                    ",
"                    ",
"                    ",
"                    ",
"                    ",
"                    ",
"        O    O      ",
"       O   OOXO     ",
"      O.   OoO      ",
"     O.X   oOO      ",
"     .XO  o         ",
"     XOO.o          ",
"     OOO..    O     ",
"       OOOOo..      ",
"        OOX..       ",
"        OX.O        ",
"                    ",
"                    ",
"                    ",
"                    ",
"                    ",
"                    ",
"                    ",
"                    ",
"                    ",
"                    ",
"         OO.        ",
"       O..          ",
"      OXXX   OOX.   ",
"      .OOo   XoX    ",
"     OO .OXXXXXO    ",
"        OXX         ",
"        O.O         ",
"        OOOO        ",
"      OOOXXOOO      ",
"         OOO        ",
"                    ",
"                    ",
"                    ",
"                    ",
"                    ",
"                    ",
"                    ",
"                    ",
"                    ",
"                    ",
"                    ",
"        O...O       ",
"      .XXX.         ",
"     OOOOo          ",
"       O.    .X     ",
"       OXXXXXooX.   ",
"       O.    .X     ",
"     OOOOo          ",
"      .XXX.         ",
"        O...O       ",
"                    ",
"                    ",
"                    ",
"                    ",
"                    ",
"                    ",
"                    ",
"                    ",
"                    ",
"                    ",
"                    ",
"        OOO         ",
"     OOXXX...       ",
"       OOo.         ",
"       O.O          ",
"      OXXO          ",
"    OOO.OXXXXXO     ",
"    .XOOo   Xo.     ",
"      XX.   OOXX    ",
"      O..           ",
"         ..         ",
"                    ",
"                    ",
"                    ",
"                    ",
"                    ",
"                    ",
"                    ",
"                    ",
"                    ",
"        OX.O        ",
"        OOX.O       ",
"       OOOOX.O      ",
"     OOO..    O     ",
"     XOO.o          ",
"     .XO  o         ",
"     O.o   oOO      ",
"      ..   OoO      ",
"       .   OOXO     ",
"        O    O      ",
"                    ",
"                    ",
"                    ",
"                    ",
"                    ",
"                    ",
"                    ",
"                    ",
"                    ",
"                    ",
"          O         ",
"      O   O.O       ",
"      O    OXO      ",
"      OOOO.OX.      ",
"     OXO.XOoX.O     ",
"     OXOOXX   O     ",
"     OOO  X   .     ",
"      O   X         ",
"      O   XXO       ",
"          XoO       ",
"          OXX       ",
"            .       ",
"                    ",
"                    ",
"                    ",
"                    ",
"                    ",
"                    ",
"                    ",
"                    ",
"       O   O        ",
"      .O   O.       ",
"      XOOOOOX       ",
"     OXO.X.OXO      ",
"     .Xo X oX.      ",
"     ..  X  ..      ",
"     .   X   .      ",
"     O   X   O      ",
"        .o.         ",
"        XoX         ",
"         X          ",
"         .          ",
"                    ",
"                    ",
"                    ",
"                    ",
"                    ",
"                    ",
"                    ",
"       .O           ",
"       XO   O       ",
"     OXOOO  O       ",
"     .XO.XOOX       ",
"     ..oOX.OXO      ",
"    .   XOOoXO      ",
"    .   X  ..O      ",
"        X   .       ",
"      OXX   .       ",
"      OoX           ",
"      X.O           ",
"      X             ",
"                    ",
"                    ",
"                    ",
"                    ",
"                    ",
"                    ",
"                    ",
"                    ",
"                    ",
"        O.XO        ",
"       ..XOO        ",
"      ..oOOOO       ",
"     O    ..OOO     ",
"          o.OOX     ",
"         o  OX.     ",
"      OOo   X.O     ",
"      OoO   .O      ",
"     OXOO   O       ",
"      O    O        ",
"                    ",
"                    ",
"                    ",
"                    ",
"                    ",
"                    ",
"                    ",
"                    ",
"                    ",
"                    ",
"        OOO         ",
"      OOOXXOOO      ",
"        OOOO        ",
"         O.O        ",
"         XXO        ",
"    OXXXXXO. OO     ",
"    XoX   oOO.      ",
"   .XOO   XXXO      ",
"          ..O       ",
"        .OO         ",
"                    ",
"                    ",
"                    ",
"                    ",
"                    ",
"                    ",
"                    ",
"                    ",
"                    ",
"                    ",
"       O...O        ",
"         .XXX.      ",
"          oOOOO     ",
"     X.    .O       ",
"   .XooXXXXXO       ",
"     X.    .O       ",
"          oOOOO     ",
"         .XXX.      ",
"       O...O        ",
"                    ",
"                    ",
"                    ",
"                    ",
"                    ",
"                    ",
"                    ",
"                    ",
"                    ",
"                    ",
"         ..         ",
"           ..O      ",
"    XXOO   .XX      ",
"     .oX   oOOX.    ",
"     OXXXXXO.OOO    ",
"          OXXO      ",
"          O.O       ",
"         .oOO       ",
"       ...XXXOO     ",
"         OOO        ",
"                    ",
"                    ",
"                    ",
"                    ",
"                    ",
"                    ",
"                    ",
"                    ",
"                    ",
"                    ",
"                    ",
"      O    O        ",
"     OXOO   .       ",
"      OoO   ..      ",
"      OOo   o.O     ",
"         o  OX.     ",
"          o.OOX     ",
"     O    ..OOO     ",
"      O.XOOOO       ",
"       O.XOO        ",
"        O.XO        ",
"                    ",
"                    ",
"                    ",
"                    ",
"                    ",
"                    ",
"                    ",
"                    ",
"       .            ",
"       XXO          ",
"       OoX          ",
"       OXX   O      ",
"         X   O      ",
"     .   X  OOO     ",
"     O   XXOOXO     ",
"     O.XoOX.OXO     ",
"      .XO.OOOO      ",
"      OXO    O      ",
"       O.O   O      ",
"         O          ",
"                    ",
"                    ",
"                    ",
"                    ",
"                    "};
