/* XPM */
static char * C12_xpm[] = {
"20 320 5 1",
" 	c None",
".	c #00A0A0",
"X	c #007878",
"o	c #00C8C8",
"O	c #00FFFF",
"                    ",
"       .    .       ",
"      XoX  XoX      ",
"      .O.  .O.      ",
"      .O.  .O.      ",
"      .Oo..oO.      ",
"      XoOOOOoX      ",
"       .oOOo.       ",
"        oOOo        ",
"        oXXo        ",
"    .  oX  Xo  .    ",
"   oOo OX  XO oOo   ",
"   XOooOX  XOooOX   ",
"   XOOOOX  XOOOOX   ",
"   XO. O.XX.O .OX   ",
"   Xo  XoOOoX  oX   ",
"   o.  XooooX  .o   ",
"   .    .oo.    .   ",
"         XX         ",
"                    ",
"                    ",
"          X         ",
"         Xoo        ",
"         .O.  XoX   ",
"         .O   XoX   ",
"        XOo   .O.   ",
"        XoO..oO.    ",
"         .oOOOO.    ",
"     .   oOOo.oX    ",
"   oO.  ooXOo.      ",
"   XOo OX  Xo       ",
"   XOooOX  Xo       ",
"  XO.OOO   XO       ",
"  Xo  OX  XOO o.    ",
" ..   X.XXXOooOoX   ",
"     XXOOO.OOOOX    ",
"      .oooX .OOX    ",
"      .oooX  oX     ",
"       XX    .X     ",
"             .      ",
"                    ",
"             X.     ",
"            .oo     ",
"           .OOX     ",
"          XOO.      ",
"          .oo.  Xo. ",
"    XOo   .oO...OoX ",
"   XOoo  XoOOOoOO.  ",
"  XOOooOoooOOooO.   ",
" oo..OOOX  oo..X    ",
".    OOX   oX       ",
"    XO.   Xo        ",
"    XoXX XOO        ",
"    .oOX.OOooo      ",
"    ooooOOOooO      ",
"    Xo.XX .OOX      ",
"          .OX       ",
"          oX        ",
"          o         ",
"         .          ",
"                    ",
"                    ",
"                    ",
"     .        .X.   ",
"   XXo.    X..Oo.   ",
" XXOOOo    oOO.XX   ",
"..oOOo    ..Oo      ",
"   .OoOOooooO.      ",
"    OOOXXXOOO.  .o  ",
"  XX.XX   XOoOoOOXX ",
"  ooOX    oo.oO..X  ",
" XooOX  XXo  XX     ",
" XooO.XOOO          ",
"  ..oXOOo           ",
"    X  Ooo..        ",
"       .OOO         ",
"      oOXXo         ",
"     .XX            ",
"     o              ",
"                    ",
"                    ",
"                    ",
"                    ",
"  .oXXXXo           ",
"   .oOOOO.          ",
"     .Ooo           ",
"      Oo     X...X  ",
"   XXOOOOo  .oOOOo. ",
"  .oo.XXXXoooOo..X  ",
" XooOX    XOOO.     ",
" XooOX    XOOO.     ",
"  .oo.XXXXoooOo..X  ",
"   XXOOOOo  .oOOOo. ",
"      Oo     X...X  ",
"     .Ooo           ",
"   .oOOOO.          ",
"  .oXXXXo           ",
"                    ",
"                    ",
"                    ",
"                    ",
"     .              ",
"     .XX            ",
"      oOXXo         ",
"       .OOO         ",
"    X  Ooo..        ",
"  ..XXOOo           ",
" XooO.XOOO          ",
" XooOX  XXo  XX     ",
"  ooOX    oo.oO..X  ",
"  XX.XX   XOoOoOOoX ",
"    OOOXXXOOO.  .o  ",
"   .OoOOooooO.      ",
"..oOOo    ..Oo      ",
" XXOOOo    oOO.XX   ",
"   XXo.    X.Oooo   ",
"     X       .XXX   ",
"                    ",
"                    ",
"                    ",
"         .          ",
"          o         ",
"          oX        ",
"          .OX       ",
"    Xo.XX .OOX      ",
"    ooooOOOooO      ",
"    .oOX.OOooo      ",
"    XoXX XOO        ",
"    XO.   Xo        ",
"X    OOX   oX       ",
" oo..OOOX  oo..X    ",
"  XOOooOoooOOooO.   ",
"   XOoo  XoOOOoOO.  ",
"    XOo   .oO...OoX ",
"          .oo.  Xo. ",
"          XOO.      ",
"           .OXX     ",
"            .oo     ",
"             X.     ",
"                    ",
"             .      ",
"       XX    .X     ",
"      .oooX  oX     ",
"      .oooX .OXX    ",
"     XoOOO.OOOOX    ",
" o.   X.XXXOooO.X   ",
"  Xo  OX  XOO .X    ",
"  XO.OOO   XO       ",
"   XOooOX  Xo       ",
"   XOo OX  Xo       ",
"   oO.  ooXOo.      ",
"     .   oOOo.oX    ",
"         .oOOOO.    ",
"        XoO..oO.    ",
"        XOo   .O.   ",
"         .O   XoX   ",
"         .O.  ...   ",
"         XXo        ",
"          X         ",
"                    ",
"                    ",
"         XX         ",
"   .    .oo.    .   ",
"   o.  XooooX  X.   ",
"   Xo  XoOOoX  .X   ",
"   XO. O.XX.O .oX   ",
"   XOOOOX  XOOOOX   ",
"   XOooOX  XOooOX   ",
"   oOo OX  XO oOo   ",
"    .  oX  Xo  .    ",
"        oXXo        ",
"        oOOo        ",
"       .oOOo.       ",
"      XoOOOOoX      ",
"      .Oo..oO.      ",
"      .O.  .O.      ",
"      .O.  .O.      ",
"      XoX  XoX      ",
"       .    .       ",
"                    ",
"      .             ",
"     X.    XX       ",
"     Xo  Xooo.      ",
"    XOO. Xooo.      ",
"    XOOOO.OOOXX     ",
"   XoOooOXXX.X   .. ",
"    .o OOX  XO  .X  ",
"       OX   OOO.OX  ",
"       oX  XOooOX   ",
"       oX  XO oOX   ",
"      .oOXoo  .Oo   ",
"    Xo.oOOo   .     ",
"    .OOOOo.         ",
"   .OOo..OoX        ",
"   Xo.   oOX        ",
"   XoX   O.         ",
"   XoX  .O.         ",
"        ooX         ",
"         X          ",
"                    ",
"          X         ",
"         o          ",
"        Xo          ",
"       XO.          ",
"      XOO. XX.oX    ",
"      OooOOOoooo    ",
"      oooOO.XOoo    ",
"        OOX XXoX    ",
"        oX   .OX    ",
"       Xo   XOO    X",
"    X..oo  XOOO..oo ",
"   .OooOOoooOooOOX  ",
"  .OOoOOOoX  ooOX   ",
" XoX...Oo.   oOX    ",
" .oX  .oo.          ",
"      .OOX          ",
"     XOO.           ",
"     oo.            ",
"     .X             ",
"                    ",
"                    ",
"              o     ",
"            XX.     ",
"         oXXOo      ",
"         OOO.       ",
"        ..ooO  X    ",
"           oOOXo..  ",
"          OOOX.OooX ",
"     XX  oXXX XOooX ",
"  X..Oo.oo    XOoo  ",
" XXOOoOoOX   XX.XX  ",
"  o.  .OOOXXXOOO    ",
"      .OooooOOoO.   ",
"      oO..    oOOo.X",
"   .X.OOo    .OOXXX ",
"   .oO..X    .XXX   ",
"   .X.        X     ",
"                    ",
"                    ",
"                    ",
"                    ",
"                    ",
"                    ",
"           oXXXXo.  ",
"          .OOOOo.   ",
"           ooO.     ",
"  X...X     oO      ",
" .oOOOo.  oOOOOXX   ",
"  X..oOoooXXXX.oo.  ",
"     .OOOX    XOooX ",
"     .OOOX    XOooX ",
"  X..oOoooXXXX.oo.  ",
" .oOOOo.  oOOOOXX   ",
"  X...X     oO      ",
"           ooO.     ",
"          .OOOo.X   ",
"           oXXXX..  ",
"                    ",
"                    ",
"                    ",
"                    ",
"                    ",
"                    ",
"   XXX.       X     ",
"   oooO.X    .oXX   ",
"   XX.OOo    oOOOXX ",
"      oO..    oOOo.X",
"      .OooooOOoO.   ",
"  o.  .OOOXXXOOO    ",
" XoOOoOoOX   XX.XX  ",
"  X..Oo.oo    XOoo  ",
"     XX  oXX  XOooX ",
"          OOOX.OooX ",
"           oOOXX..  ",
"        ..ooO  X    ",
"         OOO.       ",
"         oXXOX      ",
"            XXX     ",
"              X     ",
"                    ",
"                    ",
"     .X             ",
"     oo.            ",
"     XXO.           ",
"      .OOX          ",
" .oX  .oo.          ",
" XoO...Oo.   oOX    ",
"  .OOoOOOoX  ooOX   ",
"   .OooOOoooOooOOX  ",
"    X..oo  XOOO..oo ",
"       Xo   XOO    X",
"        oX   .OX    ",
"        OOX XXoX    ",
"      oooOO.XOo.    ",
"      OooOOOoooo    ",
"      XOO. XXooX    ",
"       XO.          ",
"        Xo          ",
"         o          ",
"          X         ",
"                    ",
"         X          ",
"        oXX         ",
"   ...  .O.         ",
"   XoX   O.         ",
"   .O.   oOX        ",
"    .Oo..OoX        ",
"    .OOOOo.         ",
"    Xo.oOOo   .     ",
"      .oOXoo  .Oo   ",
"       oX  XO oOX   ",
"       oX  XOooOX   ",
"       OX  XOOO.OX  ",
"    .. OOX  XO  oX  ",
"   XXOooOXXX.X   .o ",
"    XOOOO.OOOoX     ",
"    XXO. Xooo.      ",
"     Xo  Xooo.      ",
"     X.    XX       ",
"      X             "};
