/* XPM */
static char * C9_xpm[] = {
"20 20 5 1",
" 	c None",
".	c #00A0A0",
"X	c #007878",
"o	c #00FFFF",
"O	c #00C8C8",
"                    ",
"      .X     X.     ",
"    .o         o.   ",
"   .oO    X    Oo.  ",
"   oOoO   o   OoOo  ",
"  .  OoO OoO OoO  . ",
"  X   OoO   OoO   X ",
"       OooXooO      ",
"      O ooooo O     ",
"    Xoo XoooX ooX   ",
"      O ooooo O     ",
"       OooXooO      ",
"  X   OoO   OoO   X ",
"  .  OoO OoO OoO  . ",
"   oOoO   o   OoOo  ",
"   .oO    X    Oo.  ",
"    .o         o.   ",
"      .X     X.     ",
"                    ",
"                    "};
