/* XPM */
static char * C9_xpm[] = {
"20 20 7 1",
" 	c None",
".	c #0000A0A0A0A0",
"X	c #000078787878",
"o	c #0000FFFFFFFF",
"O	c #0000C8C8C8C8",
"+	c #000078787878",
"@	c #000078787878",
"                    ",
"      .X     X.     ",
"    .o         o.   ",
"   .oO    +    Oo.  ",
"   oOoO   o   OoOo  ",
"  .  OoO OoO OoO  . ",
"  X   OoO   OoO   X ",
"       Ooo@ooO      ",
"      O ooooo O     ",
"    +oo @ooo@ oo+   ",
"      O ooooo O     ",
"       Ooo@ooO      ",
"  X   OoO   OoO   X ",
"  .  OoO OoO OoO  . ",
"   oOoO   o   OoOo  ",
"   .oO    +    Oo.  ",
"    .o         o.   ",
"      .X     X.     ",
"                    ",
"                    "};
