/* XPM */
static char * C9_xpm[] = {
"20 20 7 1",
" 	c None",
".	c #909090909090",
"X	c #B0B0B0B0B0B0",
"o	c #A1A1A1A1A1A1",
"O	c #FFFF00000000",
"+	c #C1C1C1C1C1C1",
"@	c #0000FFFF0000",
"                    ",
"                    ",
"     ..      ..     ",
"    .Xo      oX.    ",
"     .oo    oo.     ",
"  .    oo  oo    .  ",
" .o    .XooX.    o. ",
"   oo .OX++XO. o.   ",
"    ..oX+  +Xo..    ",
"  .@.oX+ @@ +Xo.@.  ",
"  .@.oX+ @@ +Xo.@.  ",
"    ..oX+  +Xo..    ",
"   .o .OX++XO. o.   ",
" .o    .XooX.    o. ",
"  .    oo  oo    .  ",
"     .oo    oo.     ",
"    .Xo      oX.    ",
"     ..      ..     ",
"                    ",
"                    "};
