/* XPM */
static char * C4_xpm[] = {
"20 320 6 1",
" 	c None",
".	c #00A000",
"X	c #00FF00",
"o	c #00C800",
"O	c #007800",
"$	c #00FF00",
"                    ",
"                    ",
"         . .        ",
"        .XoX.       ",
"        .XXX.       ",
"         .o.        ",
"   o     .o.     o  ",
"   .    .XXX.    .  ",
"   .    .XXX.    .  ",
"   O     .o.     O  ",
"   OO   .XXX.   OO  ",
"   OO...oXXXo...OO  ",
"   OO..oXXXXXo..OO  ",
"   .OO.oXXXXXo.OO.  ",
"   . O..oXXXo..O .  ",
"       O.XXX.O      ",
"         OOO        ",
"                    ",
"                    ",
"                    ",
"                    ",
"                    ",
"           .O       ",
"     o    .XOO.     ",
"    .     XXXXO     ",
"    .     .oX.      ",
"   O     ..o.       ",
"   OO   OXXX.O      ",
"  OOOO   .XXXO    o ",
"  OO...O.Xo..    .  ",
"  .O..ooXXX.     .  ",
" O O.ooXXXXoO   O   ",
"    ..XXXXXX.OOOO   ",
"     OoXXXXo..OO    ",
"      XXXXoo.OOO    ",
"      OOX.O.OOO.    ",
"        O     .     ",
"                    ",
"                    ",
"                    ",
"                    ",
"                    ",
"       o            ",
"      .      .O     ",
"     O      .oo     ",
"    OO      OXXoO   ",
"   OOO    .O.oX..   ",
"  .OO.   .oXo.O.    ",
" .OO...  OXXXO      ",
"   O.ooo.o.Xo.      ",
"   ..oXXXXoO.       ",
"    .oXXXX.         ",
"    .XXXXXo      o  ",
"    OXXXXXo.    .   ",
"     O$Xooo..OOO    ",
"      O.....OOO     ",
"         .OOOO      ",
"           O.       ",
"           .        ",
"                    ",
"                    ",
"          o         ",
"        ..          ",
"      OO            ",
"    OOOO       O    ",
"  o.OOO       o.o   ",
"    O..    OOOXXO   ",
"    ..oO  .X..XX.o  ",
"    .ooo..XXoooo.O  ",
"   OoXXXXooXX. O    ",
"   .XXXXXX.ooO      ",
"   OXXXXXo O        ",
"   OXXXXXo          ",
"    O.oXo.          ",
"     O.o..O    .o   ",
"      O..OOO O.     ",
"        OOOOO       ",
"         .O         ",
"        O           ",
"                    ",
"                    ",
"                    ",
"                    ",
"     ..OOOO..o      ",
"      OOOO          ",
"     OO..           ",
"     ....           ",
"    O.oo.           ",
"    .oXXo. ..  ..   ",
"   OXXXXXX.XX..XX.  ",
"   OXXXXXXoXXooXo   ",
"   OXXXXXX.XX..XX.  ",
"    .oXXo. ..  ..   ",
"    O.oo.           ",
"     ....           ",
"     OO..           ",
"      OOOO          ",
"     ..OOOO..       ",
"                    ",
"                    ",
"                    ",
"        O           ",
"         .OO        ",
"        OOOOOO      ",
"       ....OO ..    ",
"      O.o..O    o   ",
"    OXoXoo.         ",
"    OXXXXoO         ",
"   OXXXXXX. O       ",
"    .XXXXXX.X.      ",
"    OoXXXXoXX..X.   ",
"    .ooXo..XXooXX.  ",
"    O...O .X..XXOO  ",
"    OO.O   OO .XO   ",
"   .OOOO       O.   ",
"    .OOO            ",
"       OO           ",
"         ..         ",
"           o        ",
"                    ",
"                    ",
"           .        ",
"           O.       ",
"         .OOOO      ",
"      O.....OOO     ",
"     OXXooo..OOO    ",
"    O$XXXXo.    .   ",
"    .XXXXXo      o  ",
"    .oXXXX.         ",
"   ..oXXXXoO.       ",
"   O.ooo.o.Xo.      ",
" .OO...  OXXXO      ",
"  .OO.   .oXo.O.    ",
"   OOO    .O.oXo.   ",
"    OO      OXXoO   ",
"     O      .oo     ",
"      .      .O     ",
"       o            ",
"                    ",
"                    ",
"                    ",
"                    ",
"              o     ",
"       OO.O   .     ",
"      OXXXo..OOO    ",
"     O.XXXXo..OO    ",
"    O.oXXXXoo.OOO   ",
"    .oXXXXXoO  OO   ",
" O O..oXXXX.     O  ",
"  .OO..ooXo.     .  ",
"  OOOO   .oX.     o ",
"   OO   OoXXXO      ",
"   O     oXo.O      ",
"    O    O.o.O      ",
"    .      oXXo     ",
"     .    OoXX.O    ",
"     o     ..Oo     ",
"           Oo       ",
"                    ",
"                    ",
"                    ",
"                    ",
"                    ",
"        OOO         ",
"      O.XXX.O       ",
"  . O..oXXXo..O .   ",
"  .OO.oXXXXXo.OO.   ",
"  OO..oXXXXXo..OO   ",
"  OO...oXXXo...OO   ",
"  OO   .XXX.   OO   ",
"  O     .o.     O   ",
"  .    .XXX.    .   ",
"  .    .XXX.    .   ",
"        .o.     o   ",
"        .o.         ",
"       .XXX.        ",
"       .XoX.        ",
"        . .         ",
"                    ",
"                    ",
"                    ",
"                    ",
"                    ",
"     .     O        ",
"    .OOO.O.XOO      ",
"    OOO.ooXXXX      ",
"    OO..oXXXXoO     ",
"   OOOO.XXXXXX..    ",
"   O   OoXXXXoo.O O ",
"  .     .XXXoo..O.  ",
"  .    ..oX.O...OO  ",
" o    OXXX.   OOOO  ",
"      O.XXXO   OO   ",
"       .o..     O   ",
"      .Xo.     .    ",
"     OXXXX     .    ",
"     .OOX.    o     ",
"       O.           ",
"                    ",
"                    ",
"                    ",
"        .           ",
"       .O           ",
"      OOOO.         ",
"     OOO.....O      ",
"    OOO..oooX$O     ",
"   .    .oXXXXXO    ",
"  o      oXXXXX.    ",
"         .XXXXo.    ",
"       .OoXXXXo..   ",
"      .oX.o.ooo.O   ",
"      OXXXO  ...OO. ",
"    .O.oXo.   .OO.  ",
"   .oXo.O.    OOO   ",
"   OoXXO      OO    ",
"     oo.      O     ",
"     O.      .      ",
"            o       ",
"                    ",
"                    ",
"                    ",
"           O        ",
"         O.         ",
"       OOOOO        ",
"     .O OOO..O      ",
"   o.    O..o.O     ",
"          .oXo.O    ",
"          oXXXXXO   ",
"        O oXXXXXO   ",
"      Ooo.XXXXXX.   ",
"    O .XXooXXXXoO   ",
"  O.ooooXX..ooo.    ",
"  o.XX..X.  Oo..    ",
"   OXXOOO    ..O    ",
"   o.o       OOO.o  ",
"    O       OOOO    ",
"            OO      ",
"          .O        ",
"         o          ",
"                    ",
"                    ",
"                    ",
"       ..OOOO..     ",
"          OOOO      ",
"           ..OO     ",
"           ....     ",
"           .oo.     ",
"   ..  .. .oXXo.    ",
"  .XX..XX.XXXXXXO   ",
"   oXooXXoXXXXXXO   ",
"  .XX..XX.XXXXXXO   ",
"   ..  .. .oXXo.    ",
"           .oo.O    ",
"           ....     ",
"           ..OO     ",
"          OOOO      ",
"      o..OOOO..     ",
"                    ",
"                    ",
"                    ",
"                    ",
"        o           ",
"         ..         ",
"           OO       ",
"            OOO     ",
"   .O       OOO.    ",
"   OX. OO   O.OO.   ",
"  OOXX..X. O...O    ",
"  .XXooXX..oXoo.    ",
"   .X..XXoXXXXoO    ",
"      .X.XXXXXX.    ",
"       O .XXXXXXO   ",
"         OoXXXXO    ",
"         .ooXoXO    ",
"   o    O..o.O      ",
"    .. OO....       ",
"      OOOOOO        ",
"        OO.         ",
"           O        ",
"                    ",
"                    ",
"                    ",
"            o       ",
"     O.      .      ",
"     oo.      O     ",
"   OoXXO      OO    ",
"   .oXo.O.    OOO   ",
"    .O.oXo.   .OO.  ",
"      OXXXO  ...OO. ",
"      .oX.o.ooo.O   ",
"       .OoXXXXo..   ",
"         .XXXXo.    ",
"  o      oXXXXX.    ",
"   .    .oXXXX$O    ",
"    OOO..oooXXO     ",
"     OOO.....O      ",
"      OOOO.         ",
"       .O           ",
"        .           ",
"                    ",
"                    ",
"                    ",
"       oO           ",
"     oO..     o     ",
"    O.XXoO    .     ",
"     oXXo      .    ",
"      O.o.O    O    ",
"      O.oXo     O   ",
"      OXXXoO   OO   ",
" o     .Xo.   OOOO  ",
"  .     .oXoo..OO.  ",
"  O     .XXXXo..O O ",
"   OO  OoXXXXXo.    ",
"   OOO.ooXXXXo.O    ",
"    OO..oXXXX.O     ",
"    OOO..oXXXO      ",
"     .   O.OO       ",
"     o              ",
"                    ",
"                    "};
