/* XPM */
static char * C2_xpm[] = {
"20 320 5 1",
" 	c None",
".	c #00FF00",
"X	c #00A000",
"o	c #007800",
"O	c #00C800",
"                    ",
"                    ",
"         ..         ",
"        ....        ",
"         ..         ",
"         XX         ",
"         XX         ",
"   o     XX     o   ",
"   o     XX     o   ",
"   o    oOOo    o   ",
"   oX   XOOX   Xo   ",
"   ooXX OXXO XXoo   ",
"   oooOO....OOooo   ",
"   oooXX....XXooo   ",
"   o ooXo..oXoo o   ",
"      oo.oo.oo      ",
"        o  o        ",
"                    ",
"                    ",
"                    ",
"                    ",
"                    ",
"           o..      ",
"           ...o     ",
"     o     ...      ",
"     o     XX       ",
"    o     oXO       ",
"    oX    XO        ",
"   oXo   oOX        ",
"   oooX oOOo     o  ",
"   ooXXOOOOo     o  ",
"  o oXOX.XXo    o   ",
"     oX....OOXXXo   ",
"     ooo...OXooo    ",
"      oOoooXXooo    ",
"         .ooo  o    ",
"              o     ",
"                    ",
"                    ",
"                    ",
"                    ",
"                    ",
"                    ",
"       o      ..    ",
"      o       ...   ",
"     o       oO..   ",
"    oX      oOo     ",
"   oooo    oOo      ",
"  ooooX  oOOo       ",
"    oXOOOOOO        ",
"    oXX.XOOo        ",
"    oXo..XO         ",
"     .o...O     o   ",
"       ooXOXo  o    ",
"       .XXXoooo     ",
"        oooooo      ",
"           oo       ",
"           o        ",
"                    ",
"                    ",
"                    ",
"                    ",
"         oo         ",
"       oo           ",
"    oooX            ",
"   o ooX        o   ",
"     oXO       ...  ",
"    oXOO     oX...  ",
"    oXXOoooXXXX..o  ",
"    oo..XOOOO       ",
"    .o..XOOo        ",
"     o...Oo         ",
"     Oo.XO          ",
"     ooXOXX         ",
"      ooXXXXX oo    ",
"        oooXoo      ",
"         ooo        ",
"        o           ",
"                    ",
"                    ",
"                    ",
"                    ",
"                    ",
"     oooooooo       ",
"      oooX          ",
"     oooX           ",
"    ooXOX           ",
"    oXXO            ",
"   o.o..OXo     .   ",
"    o...XOOXXXX...  ",
"    o...XOOXXXX...  ",
"   o.o..OXo     .   ",
"    oXXO            ",
"    ooXOX           ",
"     oooX           ",
"      oooX          ",
"     oooooooo       ",
"                    ",
"                    ",
"                    ",
"                    ",
"                    ",
"        o           ",
"         ooo        ",
"        oooXoo      ",
"      ooXXooX oo    ",
"     ooXOOX         ",
"     Oo.XO          ",
"     o...Oo         ",
"    .o..XOOo        ",
"    oo..XOOOXo      ",
"    oXOOOooXOXX..o  ",
"    oXXO     OX...  ",
"     ooX       ...  ",
"   o ooX        o   ",
"    oooX            ",
"       oo           ",
"         oo         ",
"                    ",
"                    ",
"                    ",
"                    ",
"           o        ",
"           oo       ",
"        oooooo      ",
"       .XXXooXo     ",
"       ooXOXo  o    ",
"     .o...O     o   ",
"    oXo..XO         ",
"    oXX.XOOo        ",
"    oXOOOOOO        ",
"  ooooX  oOOo       ",
"   oooo    oOo      ",
"    oo      oOo     ",
"     o       oO..   ",
"      o       ...   ",
"       o      ..    ",
"                    ",
"                    ",
"                    ",
"                    ",
"                    ",
"                    ",
"              o     ",
"         .ooo  o    ",
"      oOoooXXooo    ",
"     ooo...XOXoo    ",
"     oX....OOXXXo   ",
"  o oXXX.XXO    o   ",
"   ooXXOOOOo     o  ",
"   ooXX oOOo     o  ",
"   oXX   oOX        ",
"    oX    OX        ",
"    o      Xo       ",
"     o     XX       ",
"     o     ...      ",
"           ...o     ",
"           o..      ",
"                    ",
"                    ",
"                    ",
"                    ",
"                    ",
"        o  o        ",
"      oo.oo.oo      ",
"   o ooXo..oXoo o   ",
"   oooXX....XXooo   ",
"   oooOO....OOooo   ",
"   ooXX OXXO XXoo   ",
"   oX   XOOX   Xo   ",
"   o    oOOo    o   ",
"   o     XX     o   ",
"   o     XX     o   ",
"         XX         ",
"         XX         ",
"         ..         ",
"        ....        ",
"         ..         ",
"                    ",
"                    ",
"                    ",
"                    ",
"                    ",
"     o              ",
"    o  ooo.         ",
"    oooXXoooOo      ",
"    oooXO...ooo     ",
"   oXXXOO....Xo     ",
"   o    OXX.XOXo o  ",
"  o     oOOOOOXoo   ",
"  o     oOOo Xooo   ",
"        XOo   oXo   ",
"        OX    Xo    ",
"       OXo     o    ",
"       XX     o     ",
"      ...     o     ",
"     o...           ",
"      ..o           ",
"                    ",
"                    ",
"                    ",
"                    ",
"        o           ",
"       oo           ",
"      oooooo        ",
"     ooooXXX.       ",
"    o  oXOXoo       ",
"   o     O...o.     ",
"         OX..oXo    ",
"        oOOX.XXo    ",
"        OOOOOOXo    ",
"       oOOo  Xoooo  ",
"      oOo    oooo   ",
"     oOo      Xo    ",
"   ..Oo       o     ",
"   ...       o      ",
"    ..      o       ",
"                    ",
"                    ",
"                    ",
"                    ",
"                    ",
"           o        ",
"        ooo         ",
"      ooXooo        ",
"    oo XXXXXoo      ",
"         XXXXoo     ",
"          OX.oO     ",
"         oO...o     ",
"        oOOX..o.    ",
"       OOOOX..oo    ",
"  o..XXXXooOOXXo    ",
"  ...Xo     OOXo    ",
"  ...       XXo     ",
"   o        Xoo o   ",
"            Xooo    ",
"           oo       ",
"         oo         ",
"                    ",
"                    ",
"                    ",
"                    ",
"                    ",
"       oooooooo     ",
"          Xooo      ",
"           Xooo     ",
"           XOXo     ",
"            OXXo    ",
"   .     oXO..o.o   ",
"  ...XXXXOOX...o    ",
"  ...XXXXOOX...o    ",
"   .     oXO..o.o   ",
"            OXXo    ",
"           XOXoo    ",
"           Xooo     ",
"          Xooo      ",
"       oooooooo     ",
"                    ",
"                    ",
"                    ",
"                    ",
"                    ",
"         oo         ",
"           oo       ",
"            Xooo    ",
"   o        Xoo o   ",
"  ...       XXo     ",
"  ...XO     OOXo    ",
"  o..XXOXooOOOXo    ",
"      oXOOOX..oo    ",
"        oOOX..o.    ",
"         oO...o     ",
"          OX.oO     ",
"         XOOXoo     ",
"    oo XooXXoo      ",
"      ooXooo        ",
"        ooo         ",
"           o        ",
"                    ",
"                    ",
"                    ",
"                    ",
"                    ",
"    ..      o       ",
"   ...       o      ",
"   ..Oo       o     ",
"     oOo      oo    ",
"      oOo    oooo   ",
"       oOOo  Xoooo  ",
"        OOOOOOXo    ",
"        oOOX.XXo    ",
"         OX..oXo    ",
"   o     O...o.     ",
"    o  oXOXoo       ",
"     oXooXXX.       ",
"      oooooo        ",
"       oo           ",
"        o           ",
"                    ",
"                    ",
"                    ",
"                    ",
"      ..o           ",
"     o...           ",
"      ...     o     ",
"       XX     o     ",
"       oX      o    ",
"        XO    Xo    ",
"        XOo   XXo   ",
"  o     oOOo XXoo   ",
"  o     oOOOOXXoo   ",
"   o    OXX.XXXo o  ",
"   oXXXOO....Xo     ",
"    ooXOX...ooo     ",
"    oooXXoooOo      ",
"    o  ooo.         ",
"     o              ",
"                    ",
"                    ",
"                    "};
