/* XPM */
static char * C10_xpm[] = {
"20 320 5 1",
" 	c None",
".	c #007800",
"X	c #00A000",
"o	c #00FF00",
"O	c #00C800",
"                    ",
"                    ",
"        .XX.        ",
"       .XooX.       ",
"        .oo.        ",
"         ..         ",
"         ..         ",
"         ..         ",
"         ..         ",
"         ..         ",
"        .XX.        ",
"   .   .XOOX.   .   ",
"   ..XXXOooOXXX..   ",
"   ..XXXooooXXX..   ",
"   ...XXooooXX...   ",
"   .    ....    .   ",
"   .            .   ",
"                    ",
"                    ",
"                    ",
"                    ",
"           ...      ",
"          .XOO.     ",
"           .oo..    ",
"           XoX.     ",
"           ..       ",
"           ..       ",
"          ..        ",
"   .      ..        ",
"   ..   ..X.        ",
"   ..XXXXOX.        ",
"  ...XXXOoOX        ",
"  .  XXoooOXX.      ",
"       ooooXXX..    ",
"       ...oXXX..    ",
"          . X...    ",
"              .     ",
"              .     ",
"                    ",
"                    ",
"                    ",
"                    ",
"                    ",
"             .X.    ",
"             Xoo.   ",
"     .       .ooX   ",
"    .       ...X.   ",
"   ..X     ...      ",
"  ..XXX  ....       ",
" . .XXXXXXX.        ",
"    XXXooOX.        ",
"     XooooX         ",
"     ..oooX         ",
"      ..oXXX        ",
"       .XXXXX .     ",
"         XXX..      ",
"          ...       ",
"           .        ",
"          .         ",
"                    ",
"                    ",
"                    ",
"                    ",
"                    ",
"    ...         .   ",
"  .....        X..  ",
"    .XX.       OoO. ",
"    XXXX     ..ooO. ",
"     XXXX......X.X. ",
"    .ooOOXX..    .  ",
"     .oooO.         ",
"     .ooOX.         ",
"     .ooXX          ",
"       XXX          ",
"       XXX          ",
"        ...         ",
"        ....        ",
"       ..           ",
"                    ",
"                    ",
"                    ",
"                    ",
"                    ",
"   ......           ",
"     ...            ",
"     .XX            ",
"     XXX            ",
"     XXX.       .   ",
"    .ooOX.     .X.  ",
"    .oooOX.....ooX  ",
"    .oooOX.....ooX  ",
"    .ooOX.     .X.  ",
"     XXX.       .   ",
"     XXX            ",
"     .XX            ",
"     ...            ",
"   ......           ",
"                    ",
"                    ",
"                    ",
"                    ",
"                    ",
"       ..           ",
"        ....        ",
"        ...         ",
"       XXX          ",
"       XXX          ",
"     .ooXX          ",
"     .ooOX.         ",
"     .oooO.         ",
"    .ooOOXX..    .  ",
"     XXXX......X.X. ",
"    XXXX     ..ooO. ",
"    .XX.       XoO. ",
"  .....        ...  ",
"    ...         .   ",
"                    ",
"                    ",
"                    ",
"                    ",
"                    ",
"          .         ",
"           .        ",
"          ...       ",
"         XXX..      ",
"       .XXXXX .     ",
"      ..oXXX        ",
"     ..oooX         ",
"     XooooX         ",
"    XXXooOX.        ",
" . .XXXXXXX.        ",
"  ..XXX  ....       ",
"   ..X     ...      ",
"    .       ...X.   ",
"     .       .ooX   ",
"             Xo..   ",
"             .X.    ",
"                    ",
"                    ",
"                    ",
"                    ",
"                    ",
"              .     ",
"              .     ",
"          . X...    ",
"       ...oXXX..    ",
"       ooooXXX..    ",
"  .  XXoooOXX.      ",
"  ...XXXOoOX        ",
"   ..XXXXOX.        ",
"   ..   ..X.        ",
"   .      ..        ",
"          ..        ",
"           ..       ",
"           ..       ",
"           XoOX     ",
"           .oo..    ",
"          .XOX.     ",
"           ...      ",
"                    ",
"                    ",
"                    ",
"                    ",
"   .            .   ",
"   .    ....    .   ",
"   ...XXooooXX...   ",
"   ..XXXooooXXX..   ",
"   ..XXXOooOXXX..   ",
"   .   .XOOX.   .   ",
"        .XX.        ",
"         ..         ",
"         ..         ",
"         ..         ",
"         ..         ",
"         ..         ",
"        .oo.        ",
"       .XooX.       ",
"        .XX.        ",
"                    ",
"                    ",
"                    ",
"                    ",
"     .              ",
"     .              ",
"    ...X .          ",
"    ..XXXo...       ",
"    ..XXXoooo       ",
"      .XXOoooXX  .  ",
"        XOoOXXX...  ",
"        .XOXXXX..   ",
"        .X..   ..   ",
"        ..      .   ",
"        ..          ",
"       ..           ",
"       ..           ",
"     .XoX           ",
"    ..oo.           ",
"     .OOX.          ",
"      ...           ",
"                    ",
"                    ",
"         .          ",
"        .           ",
"       ...          ",
"      ..XXX         ",
"     . XXXXX.       ",
"        XXXo..      ",
"         Xooo..     ",
"         XooooX     ",
"        .XOooXXX    ",
"        .XXXXXXX. . ",
"       ....  XXX..  ",
"      ...     X..   ",
"   .X...       .    ",
"   Xoo.       .     ",
"   ..oX             ",
"    .X.             ",
"                    ",
"                    ",
"                    ",
"                    ",
"                    ",
"           ..       ",
"        ....        ",
"         ...        ",
"          XXX       ",
"          XXX       ",
"          XXoo.     ",
"         .XOoo.     ",
"         .Oooo.     ",
"  .    ..XXOOoo.    ",
" .X.X......XXXX     ",
" .Ooo..     XXXX    ",
" .XoO       .XX.    ",
"  ..X        .....  ",
"   .         ...    ",
"                    ",
"                    ",
"                    ",
"                    ",
"                    ",
"                    ",
"                    ",
"           ......   ",
"            ...     ",
"            XX.     ",
"            XXX     ",
"   .       .XXX     ",
"  .X.     .XOoo.    ",
"  Xoo.....XOooo.    ",
"  Xoo.....XOooo.    ",
"  .X.     .XOoo.    ",
"   .       .XXX     ",
"            XXX     ",
"            XX.     ",
"            ...     ",
"           ......   ",
"                    ",
"                    ",
"                    ",
"                    ",
"                    ",
"                    ",
"                    ",
"   .         ...    ",
"  ...        .....  ",
" .OoX       .XX.    ",
" .Ooo..     XXXX    ",
" .X.X......XXXX     ",
"  .    ..XXOOoo.    ",
"         .Oooo.     ",
"         .XOoo.     ",
"          XXoo.     ",
"          XXX       ",
"          XXX       ",
"         ...        ",
"        ....        ",
"           ..       ",
"                    ",
"                    ",
"                    ",
"                    ",
"                    ",
"    .X.             ",
"   ..oX             ",
"   Xoo.       .     ",
"   .X...       .    ",
"      ...     X..   ",
"       ....  XXX..  ",
"        .XXXXXXX. . ",
"        .XOooXXX    ",
"         XooooX     ",
"         Xooo..     ",
"        XXXo..      ",
"     . XXXXX.       ",
"      ..XXX         ",
"       ...          ",
"        .           ",
"         .          ",
"                    ",
"                    ",
"      ...           ",
"     .XOX.          ",
"    ..oo.           ",
"     XOoX           ",
"       ..           ",
"       ..           ",
"        ..          ",
"        ..      .   ",
"        .X..   ..   ",
"        .XOXXXX..   ",
"        XOoOXXX...  ",
"      .XXOoooXX  .  ",
"    ..XXXoooo       ",
"    ..XXXo...       ",
"    ...X .          ",
"     .              ",
"     .              ",
"                    ",
"                    "};
