/* XPM */
static char * C11_xpm[] = {
"20 320 5 1",
" 	c None",
".	c #00C800",
"X	c #00FF00",
"o	c #007800",
"+	c #00A000",
"                    ",
"        ....        ",
"       ..XX..       ",
"        .XX.        ",
"         ..         ",
"         ..         ",
"         ..         ",
"         ..         ",
"         ..         ",
"        o..o        ",
"  o   oo....oo   o  ",
"  o  o...XX...o  o  ",
"  oo....XXXX....oo  ",
"  oo++.XoXXoX.++oo  ",
"  oooo+X+XX+X++ooo  ",
"  o oooX.XX.Xooo o  ",
"       oXooXo       ",
"         oo         ",
"                    ",
"                    ",
"                    ",
"           ...o     ",
"           .XX.o    ",
"           oXX..    ",
"           o..o     ",
"           ..       ",
"           ..       ",
"   o      ..        ",
"  o      o..        ",
"  oo.o......        ",
" ooo+....X..o       ",
"ooooo.X.XXX..o      ",
"   oo+XoXXX...o  o  ",
"    ooX+XXoX...  o  ",
"     o.XXX+X.++oo   ",
"      ooo.Xo+oooo   ",
"        oXoooooo    ",
"               o    ",
"                    ",
"                    ",
"                    ",
"                    ",
"             oo+    ",
"             o.X.   ",
"    oo       +XXX+  ",
"   oo        +.X.o  ",
"  ooo       o.++oo  ",
" oo+..ooo  o.o      ",
" oo++...o...o       ",
"   ++.......        ",
"   o+XXXXX..        ",
"    X+oXXX.oo       ",
"    o.XXXX..o       ",
"     oXXoX..o       ",
"     oo.+X...  o    ",
"       oX+++.ooo    ",
"         o+++oo     ",
"           ooo      ",
"           oo       ",
"                    ",
"                    ",
"                    ",
"      oo            ",
"    oo              ",
"  oooo          .o  ",
"   oo+.o       o..o ",
"   oo+..o      .XX. ",
"   oo....o   ...XX. ",
"   ooXX........oo.. ",
"   oX+oXX....       ",
"   X.XXXXX.o        ",
"   ooXXXX..         ",
"    oX+o...         ",
"    o.XXX..         ",
"     oo+..o         ",
"      oo++.         ",
"       oooo o       ",
"        oooo        ",
"        oo          ",
"        o           ",
"                    ",
"                    ",
"    oooooo          ",
"     ooo            ",
"    oo+.            ",
"    oo+.o           ",
"    o+...o          ",
"   oXXX..o       .  ",
"   X.+oX..o     ... ",
"  ooXXXXX.......XX. ",
"  ooXXXXX.......XX. ",
"   X.+oX..o     ... ",
"   oXXX..o       .  ",
"    o+...o          ",
"    o++.o           ",
"    oo+.            ",
"     ooo            ",
"    oooooo          ",
"                    ",
"                    ",
"        o           ",
"        oo          ",
"        oooo        ",
"       oooo o       ",
"      ooo+.         ",
"     oo+..o         ",
"    o.XXX..         ",
"    oX+o...         ",
"   ooXXXX..         ",
"   X.XXXXX.o        ",
"   oX+oXX....       ",
"   ooXX........oo.. ",
"   o+....o   ...XX. ",
"   oo+..o      .XX. ",
"   oo+.o       o..o ",
"  oooo          .o  ",
"    oo              ",
"      oo            ",
"                    ",
"                    ",
"                    ",
"           oo       ",
"           ooo      ",
"         o+++oo     ",
"       oX+++.ooo    ",
"     oo.+X...  o    ",
"     oXXoX..o       ",
"    o.XXXX..o       ",
"    X+oXXX.oo       ",
"   o+XXXXX..        ",
"   ++.......        ",
" oo++...o...o       ",
" oo+..ooo  o.o      ",
"  ooo       o.++oo  ",
"   oo        +.X.o  ",
"    oo       +XXX+  ",
"             o.X.   ",
"             oo+    ",
"                    ",
"                    ",
"                    ",
"                    ",
"               o    ",
"        oXoooooo    ",
"      ooo.Xoooooo   ",
"     o.XXX+X.++oo   ",
"    ooX+XXoX...  o  ",
"   oo+XoXXX...o  o  ",
"oooo+.X.XXX..o      ",
" ooo+....X..o       ",
"  oo.o......        ",
"  o      o..        ",
"   o      ..        ",
"           ..       ",
"           ..       ",
"           o..o     ",
"           oXX..    ",
"           .XX.o    ",
"           ...o     ",
"                    ",
"                    ",
"                    ",
"         oo         ",
"       oXooXo       ",
"  o oooX.XX.Xooo o  ",
"  ooo++X+XX+X++ooo  ",
"  oo++.XoXXoX.++oo  ",
"  oo....XXXX....oo  ",
"  o  o...XX...o  o  ",
"  o   oo....oo   o  ",
"        o..o        ",
"         ..         ",
"         ..         ",
"         ..         ",
"         ..         ",
"         ..         ",
"        .XX.        ",
"       ..XX..       ",
"        ....        ",
"                    ",
"                    ",
"                    ",
"    o               ",
"    ooooooXo        ",
"   oooo+oX.ooo      ",
"   oo++.X+XXX.o     ",
"  o  ...XoXX+Xo     ",
"  o  o...XXXoX+oo   ",
"      o..XXX.X.ooooo",
"       o..X....+ooo ",
"        ......o.oo  ",
"        ..o      o  ",
"        ..      o   ",
"       ..           ",
"       ..           ",
"     o..o           ",
"    ..XXo           ",
"    o.XX.           ",
"     o...           ",
"                    ",
"                    ",
"       oo           ",
"      ooo           ",
"     oo+++o         ",
"    ooo.+++Xo       ",
"    o  ...X+.oo     ",
"       o..XoXXo     ",
"       o..XXXX.o    ",
"       oo.XXXo+X    ",
"        ..XXXXX+o   ",
"        .......++   ",
"       o...o...++oo ",
"      o.o  ooo..+oo ",
"  oo++.o       ooo  ",
"  o.X.+        oo   ",
"  +XXX+       oo    ",
"   .X.o             ",
"    +oo             ",
"                    ",
"                    ",
"           o        ",
"          oo        ",
"        oooo        ",
"       o oooo       ",
"         .++oo      ",
"         o..+oo     ",
"         ..XXX.o    ",
"         ...o+Xo    ",
"         ..XXXXoo   ",
"        o.XXXXX.X   ",
"       ....XXo+Xo   ",
" ..oo........XXoo   ",
" .XX...   o....oo   ",
" .XX.      o..+oo   ",
" o..o       o.+oo   ",
"  o.          oooo  ",
"              oo    ",
"            oo      ",
"                    ",
"                    ",
"                    ",
"                    ",
"          oooooo    ",
"            ooo     ",
"            .+oo    ",
"           o.++o    ",
"          o...+o    ",
"  .       o..XXXo   ",
" ...     o..Xo+.X   ",
" .XX.......XXXXXoo  ",
" .XX.......XXXXXoo  ",
" ...     o..Xo+.X   ",
"  .       o..XXXo   ",
"          o...+o    ",
"           o.++o    ",
"            .+oo    ",
"            ooo     ",
"          oooooo    ",
"                    ",
"                    ",
"                    ",
"                    ",
"            oo      ",
"              oo    ",
"  o.          oooo  ",
" o..o       o.+oo   ",
" .XX.      o..+oo   ",
" .XX...   o....+o   ",
" ..oo........XXoo   ",
"       ....XXo+Xo   ",
"        o.XXXXX.X   ",
"         ..XXXXoo   ",
"         ...o+Xo    ",
"         ..XXX.o    ",
"         o..+oo     ",
"         .++oo      ",
"       o oooo       ",
"        oooo        ",
"          oo        ",
"           o        ",
"                    ",
"                    ",
"    +oo             ",
"   .X.o             ",
"  +XXX+       oo    ",
"  o.X.+        oo   ",
"  oo++.o       ooo  ",
"      o.o  ooo..+oo ",
"       o...o...++oo ",
"        .......++   ",
"        ..XXXXX+o   ",
"       oo.XXXo+X    ",
"       o..XXXX.o    ",
"       o..XoXXo     ",
"    o  ...X+.oo     ",
"    ooo.+++Xo       ",
"     oo+++o         ",
"      ooo           ",
"       oo           ",
"                    ",
"                    ",
"     o...           ",
"    o.XX.           ",
"    ..XXo           ",
"     o..o           ",
"       ..           ",
"       ..           ",
"        ..      o   ",
"        ..o      o  ",
"        ......o.oo  ",
"       o..X....+ooo ",
"      o..XXX.X.+oooo",
"  o  o...XXXoX+oo   ",
"  o  ...XoXX+Xoo    ",
"   oo++.X+XXX.o     ",
"   ooooooX.ooo      ",
"    ooooooXo        ",
"    o               ",
"                    ",
"                    "};
