/* XPM */
static char * C1_xpm[] = {
"20 320 5 1",
" 	c None",
".	c #00A000",
"X	c #00FF00",
"o	c #00C800",
"O	c #007800",
"                    ",
"                    ",
"                    ",
"         .          ",
"        .X.         ",
"        oXo         ",
"        OXO         ",
"         o          ",
"   X     o     X    ",
"   O     o     O    ",
"   O. .  o  . .O    ",
"   OO.ooOoOoo.OO    ",
"    OO.oXXXo.OO     ",
"     OOOXXXOOO      ",
"      OOXXXOO       ",
"       O.O.O        ",
"         O          ",
"                    ",
"                    ",
"                    ",
"                    ",
"                    ",
"                    ",
"                    ",
"           O.       ",
"          .oX       ",
"     o    oXo       ",
"    O     OXO       ",
"    O     o         ",
"   OO.   OO         ",
"    O.oO X          ",
"    OO.oOo      X   ",
"    OO.oXoOoO  O    ",
"     OOXXXooo..O    ",
"      OXXXO.OOO     ",
"      .OOO.OO       ",
"        O           ",
"                    ",
"                    ",
"                    ",
"                    ",
"                    ",
"                    ",
"                    ",
"      X             ",
"     O      OOO     ",
"    OO      oXO     ",
"    O.     .XoO     ",
"    OoO    o.       ",
"    OooO  o         ",
"    Oooo o          ",
"    O.OXo           ",
"    OOXXXoO         ",
"     OXXOooO   X    ",
"     OOO.ooo.OO     ",
"       OOOOOOO      ",
"                    ",
"                    ",
"                    ",
"                    ",
"                    ",
"                    ",
"                    ",
"        X           ",
"      OO            ",
"     OO             ",
"     O.             ",
"    OO.O    OooO    ",
"    OO.o    XXX.    ",
"    .OoO  ooO.o     ",
"    OXXXooO         ",
"   OOXXXO           ",
"    OXXooO          ",
"    OOOO.o          ",
"      OOO..  X      ",
"       OOOOOO       ",
"          O         ",
"                    ",
"                    ",
"                    ",
"                    ",
"                    ",
"                    ",
"                    ",
"        OOOX        ",
"       OO.          ",
"      OO.           ",
"     OO.o.          ",
"    OOOoo           ",
"    .XXXO    Oo.    ",
"   OOXXXoooooXXX.   ",
"    .XXXO    Oo.    ",
"    OOOoo           ",
"     OO.o.          ",
"      OO.           ",
"       OO.          ",
"        OOOX        ",
"                    ",
"                    ",
"                    ",
"                    ",
"                    ",
"                    ",
"          O         ",
"       OOOOOO       ",
"      OOO..  o      ",
"    .OO..o          ",
"    OXXooO          ",
"   OOXXXO           ",
"    OXXooXO         ",
"    .OoO  OoOo.     ",
"    O.oo    XXo.    ",
"    OOoO    OoXO    ",
"     O.             ",
"     O.             ",
"      OO            ",
"        X           ",
"                    ",
"                    ",
"                    ",
"                    ",
"                    ",
"                    ",
"                    ",
"       OOOOOOO      ",
"     OOO.ooo.OO     ",
"     OXXOooO   X    ",
"    OOXXXoO         ",
"    O.OXo           ",
"    Oooo o          ",
"    OooO  o         ",
"    OoO    o.       ",
"    O.     .XoO     ",
"    OO      oXO     ",
"     O      OOO     ",
"      X             ",
"                    ",
"                    ",
"                    ",
"                    ",
"                    ",
"                    ",
"                    ",
"        O           ",
"      OOOO.OO       ",
"      OXXXOOOO      ",
"     OOXXXo...OO    ",
"    OOOoXXOoO  O    ",
"    OO.oOo      X   ",
"    O.oO o          ",
"   OO.   Oo         ",
"    O     o         ",
"    O     OXO       ",
"     X    .Xo       ",
"          oXo       ",
"           .O       ",
"                    ",
"                    ",
"                    ",
"                    ",
"                    ",
"                    ",
"                    ",
"         O          ",
"       O.O.O        ",
"      OOXXXOO       ",
"     OOOXXXOOO      ",
"    OO.oXXXo.OO     ",
"   OO.ooOoOoo.OO    ",
"   O. .  o  . .O    ",
"   O     o     O    ",
"   X     o     X    ",
"         o          ",
"        OXO         ",
"        oXo         ",
"        .X.         ",
"         .          ",
"                    ",
"                    ",
"                    ",
"                    ",
"                    ",
"                    ",
"           O        ",
"       OO.OOO.      ",
"     OOO.OXXXO      ",
"    O..oooXXXOO     ",
"    O  OoOoXo.OO    ",
"   X      oOo.OO    ",
"          X Oo.O    ",
"         OO   .OO   ",
"         o     O    ",
"       OXO     O    ",
"       oXo    o     ",
"       Xo.          ",
"       O.           ",
"                    ",
"                    ",
"                    ",
"                    ",
"                    ",
"                    ",
"                    ",
"                    ",
"      OOOOOOO       ",
"     OO.ooo.OOO     ",
"    X   OooOXXO     ",
"         OoXXXOO    ",
"           oXO.O    ",
"          o oooO    ",
"         o  OooO    ",
"       .o    OoO    ",
"     OoX.     .O    ",
"     OXo      OO    ",
"     OOO      O     ",
"             X      ",
"                    ",
"                    ",
"                    ",
"                    ",
"                    ",
"                    ",
"                    ",
"         O          ",
"       OOOOOO       ",
"      X  ..OOO      ",
"          o.OOOO    ",
"          OooXXO    ",
"           OXXXOO   ",
"         OooXXXO    ",
"     o.Ooo  OoO.    ",
"    .XXX    o.OO    ",
"    OooO    O.OO    ",
"             .O     ",
"             O      ",
"            OO      ",
"           X        ",
"                    ",
"                    ",
"                    ",
"                    ",
"                    ",
"                    ",
"                    ",
"        XOOO        ",
"          .OO       ",
"           .OO      ",
"          .o.OO     ",
"           ooOOO    ",
"    .oO    OXXX.    ",
"   .XXXoooooXXXOO   ",
"    .oO    OXXX.    ",
"           ooOOO    ",
"          .o.OO     ",
"           .OO      ",
"          .OO       ",
"        XOOO        ",
"                    ",
"                    ",
"                    ",
"                    ",
"                    ",
"                    ",
"           X        ",
"            OO      ",
"             .O     ",
"             .O     ",
"    OXoO    OoOO    ",
"    .oXX    oo.O    ",
"     .oOoO  OoO.    ",
"         OXooXXO    ",
"           OXXXOO   ",
"          OooXXO    ",
"          o..OO.    ",
"      o  ..OOO      ",
"       OOOOOO       ",
"         O          ",
"                    ",
"                    ",
"                    ",
"                    ",
"                    ",
"                    ",
"                    ",
"             X      ",
"     OOO      O     ",
"     OXo      OO    ",
"     OoX.     .O    ",
"       .o    OoO    ",
"         o  OooO    ",
"          o oooO    ",
"           oXO.O    ",
"         OoXXXOO    ",
"    X   OooOXXO     ",
"     OO.ooo.OOO     ",
"      OOOOOOO       ",
"                    ",
"                    ",
"                    ",
"                    ",
"                    ",
"                    ",
"                    ",
"                    ",
"       O.           ",
"       oXo          ",
"       oX.    X     ",
"       OXO     O    ",
"         o     O    ",
"         oO   .OO   ",
"          o Oo.O    ",
"   X      oOo.OO    ",
"    O  OoOXXoOOO    ",
"    OO...oXXXOO     ",
"      OOOOXXXO      ",
"       OO.OOOO      ",
"           O        ",
"                    ",
"                    ",
"                    "};
