/* XPM */
static char * C7_xpm[] = {
"20 20 4 1",
" 	c None",
".	c #00A000",
"X	c #007800",
"o	c #00FF00",
"                    ",
"                    ",
"          .         ",
"         .X.        ",
"          o         ",
"          o         ",
"       Xo o oX      ",
"      Xo  o  oX     ",
"      o XXoXX o     ",
"   .    XoooX    .  ",
"  .XoooooooooooooX. ",
"   .    XoooX    .  ",
"      o XXoXX o     ",
"      Xo  o  oX     ",
"       Xo o oX      ",
"          o         ",
"          o         ",
"         .X.        ",
"          .         ",
"                    "};
