/* XPM */
static char * C13_xpm[] = {
"20 320 5 1",
" 	c None",
".	c #00C800",
"X	c #00FF00",
"o	c #007800",
"O	c #00A000",
"                    ",
"                    ",
"                    ",
"                    ",
"          .         ",
"         .X.        ",
"         oXo        ",
"      X   .   X     ",
"      .   .   .     ",
"      oo  .  oo     ",
"      oO..X..Oo     ",
"      ooOXXXOoo     ",
"        ooooo       ",
"         ooo        ",
"                    ",
"                    ",
"                    ",
"                    ",
"                    ",
"                    ",
"                    ",
"                    ",
"                    ",
"                    ",
"           O.o      ",
"        X  .X.      ",
"       .   Xo       ",
"       o   .        ",
"      oOo .o   X    ",
"      oo...   .     ",
"       oOXX..oo     ",
"       oooXOOOo     ",
"        ooooo       ",
"          o         ",
"                    ",
"                    ",
"                    ",
"                    ",
"                    ",
"                    ",
"                    ",
"                    ",
"                    ",
"                    ",
"         X          ",
"        .   o.o     ",
"       oO   .X.     ",
"      ooO   ..o     ",
"       OO. .        ",
"       o.XX         ",
"       ooXX.   X    ",
"       ooo.OOO.     ",
"        oooOoo      ",
"            o       ",
"                    ",
"                    ",
"                    ",
"                    ",
"                    ",
"                    ",
"                    ",
"                    ",
"                    ",
"                    ",
"          X         ",
"       oo.          ",
"       oO    .o     ",
"      oo.   oX.     ",
"      oO. o...O     ",
"      ooXX.         ",
"      ooX.          ",
"       ooOo  X      ",
"        ooOo.       ",
"         oo         ",
"                    ",
"                    ",
"                    ",
"                    ",
"                    ",
"                    ",
"                    ",
"                    ",
"                    ",
"                    ",
"                    ",
"                    ",
"        ooo.X       ",
"        oOo         ",
"       oO.          ",
"      ooX.   o.     ",
"      ooXX...XX.    ",
"      ooX.   o.     ",
"       oO.          ",
"        oOo         ",
"        ooo.X       ",
"                    ",
"                    ",
"                    ",
"                    ",
"                    ",
"                    ",
"                    ",
"                    ",
"                    ",
"                    ",
"                    ",
"          oo        ",
"        oooOo.      ",
"       ooO.o  X     ",
"       ooX.         ",
"      ooXX..        ",
"       oO. o.X.O    ",
"       oO.   oX.    ",
"        Oo    .o    ",
"        oo.         ",
"           X        ",
"                    ",
"                    ",
"                    ",
"                    ",
"                    ",
"                    ",
"                    ",
"                    ",
"                    ",
"                    ",
"            o       ",
"        oooOoo      ",
"       ooo.OOO.     ",
"       ooXX.   X    ",
"       o.XX         ",
"       OO. .        ",
"      ooO   ..o     ",
"       oO   .X.     ",
"        .   o.o     ",
"         X          ",
"                    ",
"                    ",
"                    ",
"                    ",
"                    ",
"                    ",
"                    ",
"                    ",
"                    ",
"                    ",
"         oooo       ",
"        oooOooo     ",
"       ooXX..Oo     ",
"      ooO.X   .     ",
"      oOo .o   X    ",
"       o   .        ",
"       .   .o       ",
"        X  .X.      ",
"           O.o      ",
"                    ",
"                    ",
"                    ",
"                    ",
"                    ",
"                    ",
"                    ",
"                    ",
"                    ",
"                    ",
"                    ",
"        ooo         ",
"       ooooo        ",
"     ooOXXXOoo      ",
"     oO..X..Oo      ",
"     oo  .  oo      ",
"     .   .   .      ",
"     X   .   X      ",
"        oXo         ",
"        .X.         ",
"         .          ",
"                    ",
"                    ",
"                    ",
"                    ",
"                    ",
"                    ",
"                    ",
"                    ",
"                    ",
"                    ",
"         o          ",
"       ooooo        ",
"     oOOOXooo       ",
"     oo..XXOo       ",
"     .   ...oo      ",
"    X   o. oOo      ",
"        .   o       ",
"       oX   .       ",
"      .X.  X        ",
"      o.O           ",
"                    ",
"                    ",
"                    ",
"                    ",
"                    ",
"                    ",
"                    ",
"                    ",
"                    ",
"                    ",
"       o            ",
"      ooOooo        ",
"     .OOO.ooo       ",
"    X   .XXoo       ",
"         XX.o       ",
"        . .OO       ",
"     o..   Ooo      ",
"     .X.   Oo       ",
"     o.o   .        ",
"          X         ",
"                    ",
"                    ",
"                    ",
"                    ",
"                    ",
"                    ",
"                    ",
"                    ",
"                    ",
"                    ",
"         oo         ",
"       .oOoo        ",
"      X  oOoo       ",
"          .Xoo      ",
"         .XXoo      ",
"     O...o .Oo      ",
"     .Xo   .oo      ",
"     o.    Oo       ",
"          .oo       ",
"         X          ",
"                    ",
"                    ",
"                    ",
"                    ",
"                    ",
"                    ",
"                    ",
"                    ",
"                    ",
"       X.ooo        ",
"         oOo        ",
"          .Oo       ",
"     .o   .Xoo      ",
"    .XX...XXoo      ",
"     .o   .Xoo      ",
"          .Oo       ",
"         oOo        ",
"       X.ooo        ",
"                    ",
"                    ",
"                    ",
"                    ",
"                    ",
"                    ",
"                    ",
"                    ",
"                    ",
"                    ",
"        X           ",
"         .oo        ",
"    o.    oO        ",
"    .Xo   .Oo       ",
"    O.X.o .Oo       ",
"        ..XXoo      ",
"         .Xoo       ",
"     X  o.Ooo       ",
"      .oOooo        ",
"        oo          ",
"                    ",
"                    ",
"                    ",
"                    ",
"                    ",
"                    ",
"                    ",
"                    ",
"                    ",
"                    ",
"          X         ",
"     o.o   .        ",
"     .X.   Oo       ",
"     o..   Ooo      ",
"        . .OO       ",
"         XX.o       ",
"    X   .XXoo       ",
"     .OOO.ooo       ",
"      ooOooo        ",
"       o            ",
"                    ",
"                    ",
"                    ",
"                    ",
"                    ",
"                    ",
"                    ",
"                    ",
"                    ",
"                    ",
"                    ",
"      o.O           ",
"      .X.  X        ",
"       o.   .       ",
"        .   o       ",
"    X   o. oOo      ",
"     .   X.Ooo      ",
"     oO..XXoo       ",
"     oooOooo        ",
"       oooo         ",
"                    ",
"                    ",
"                    ",
"                    ",
"                    ",
"                    "};
