/* XPM */
static char * C0_xpm[] = {
"20 320 5 1",
" 	c None",
".	c #007800",
"X	c #00FF00",
"o	c #00A000",
"+	c #00C800",
"                    ",
"                    ",
"                    ",
"         ..         ",
"         XX         ",
"        oXXo        ",
"        .XX.        ",
"         ++         ",
"    X    ++    X    ",
"    .   .++.   .    ",
"    .o. +XX+ .o.    ",
"    .oo+XXXX+oo.    ",
"     oo+.XX.+oo     ",
"     . ...... .     ",
"        ....        ",
"                    ",
"                    ",
"                    ",
"                    ",
"                    ",
"                    ",
"                    ",
"                    ",
"            ..      ",
"           +X+      ",
"      X   .XX+      ",
"     .     XX.      ",
"     .    ++        ",
"    ..o. .++        ",
"     oo++XX+    X   ",
"     oo+XXX+.  .    ",
"     ..+.XXX+.o.    ",
"       ....++oo.    ",
"       .....oo      ",
"          .  .      ",
"                    ",
"                    ",
"                    ",
"                    ",
"                    ",
"                    ",
"                    ",
"                    ",
"                    ",
"       X      .     ",
"      .     oXX.    ",
"     .o     XXX     ",
"     oo.   .+Xo     ",
"    .oo+..++.       ",
"      ++XXX+        ",
"      ..XXX.        ",
"      ..XXX.        ",
"      ....++.  X    ",
"       ...+ooo.     ",
"           oo.      ",
"           .        ",
"                    ",
"                    ",
"                    ",
"                    ",
"                    ",
"                    ",
"                    ",
"         X          ",
"      ...           ",
"      oo            ",
"    .oo.    .o+.    ",
"     o++.   XXX.    ",
"     .+X++++XX+     ",
"    ...XXX++ .      ",
"     ..XXX.         ",
"     ...X+          ",
"     ..+++.         ",
"       .ooo  X      ",
"       .oo...       ",
"          .         ",
"                    ",
"                    ",
"                    ",
"                    ",
"                    ",
"                    ",
"                    ",
"                    ",
"        ...X        ",
"      .ooo          ",
"       oo.          ",
"      .++           ",
"     ...X+.  .o     ",
"     ..XXX+++XXX.   ",
"     ..XXX+++XXX.   ",
"     ...X+.  .o     ",
"      .++           ",
"       oo.          ",
"      .ooo          ",
"        ...X        ",
"                    ",
"                    ",
"                    ",
"                    ",
"                    ",
"                    ",
"                    ",
"                    ",
"          .         ",
"       .oo...       ",
"       .ooo  X      ",
"     ..+++.         ",
"     ...X+          ",
"     ..XXX.         ",
"    ...XXX++ .      ",
"     .+X++++XX+     ",
"     o++.   XXX.    ",
"    .oo.    .++.    ",
"      oo            ",
"      ...           ",
"         X          ",
"                    ",
"                    ",
"                    ",
"                    ",
"                    ",
"                    ",
"                    ",
"           .        ",
"           oo.      ",
"       ...+ooo.     ",
"      ....++.  X    ",
"      ..XXX.        ",
"      ..XXX.        ",
"      ++XXX+        ",
"    .oo+..++.       ",
"     oo.   .+Xo     ",
"     .o     XXX     ",
"      .     oXX.    ",
"       X      .     ",
"                    ",
"                    ",
"                    ",
"                    ",
"                    ",
"                    ",
"                    ",
"                    ",
"          .  .      ",
"       .....oo      ",
"       ....++o      ",
"     ..+.XXX+.o.    ",
"     oo+XXX+.  .    ",
"     oo++XX+    X   ",
"    ..o. .++        ",
"     .    ++        ",
"     .     XX.      ",
"      X   .XXo      ",
"           +X+      ",
"            ..      ",
"                    ",
"                    ",
"                    ",
"                    ",
"                    ",
"                    ",
"                    ",
"                    ",
"                    ",
"        ....        ",
"     . ...... .     ",
"     oo+.XX.+oo     ",
"    .oo+XXXX+oo.    ",
"    .o. +XX+ .o.    ",
"    .   .++.   .    ",
"    X    ++    X    ",
"         ++         ",
"        .XX.        ",
"        oXXo        ",
"         XX         ",
"         ..         ",
"                    ",
"                    ",
"                    ",
"                    ",
"                    ",
"                    ",
"                    ",
"      .  .          ",
"      oo.....       ",
"    .oo++....       ",
"    .o.+XXX.+..     ",
"    .  .+XXX+oo     ",
"   X    +XX++oo     ",
"        ++. .o..    ",
"        ++    .     ",
"      .XX     .     ",
"      +XX.   X      ",
"      +X+           ",
"      ..            ",
"                    ",
"                    ",
"                    ",
"                    ",
"                    ",
"                    ",
"                    ",
"                    ",
"        .           ",
"      .oo           ",
"     .ooo+...       ",
"    X  .++....      ",
"        .XXX..      ",
"        .XXX..      ",
"        +XXX++      ",
"       .++..+oo.    ",
"     oX+.   .oo     ",
"     XXX     o.     ",
"    .XXo     .      ",
"     .      X       ",
"                    ",
"                    ",
"                    ",
"                    ",
"                    ",
"                    ",
"                    ",
"                    ",
"         .          ",
"       ...oo.       ",
"      X  ooo.       ",
"         .+++..     ",
"          +X...     ",
"         .XXX..     ",
"      . ++XXX...    ",
"     +XX++++X+.     ",
"    .XXX   .++o     ",
"    .+o.    .oo.    ",
"            o       ",
"           ..       ",
"          X         ",
"                    ",
"                    ",
"                    ",
"                    ",
"                    ",
"                    ",
"                    ",
"        X...        ",
"          ooo.      ",
"          .oo       ",
"           ++.      ",
"     o.  .+X...     ",
"   .XXX+++XXX..     ",
"   .XXX+++XXX..     ",
"     o.  .+X...     ",
"           ++.      ",
"          .oo       ",
"          ooo.      ",
"        X...        ",
"                    ",
"                    ",
"                    ",
"                    ",
"                    ",
"                    ",
"                    ",
"          X         ",
"           ...      ",
"            oo      ",
"    .++.    .oo     ",
"    .XXX   .++o     ",
"     +XX++++X+.     ",
"      . ++XXX...    ",
"         .XXX..     ",
"          +X...     ",
"         .+++..     ",
"      X  ooo.       ",
"       ...oo.       ",
"         .          ",
"                    ",
"                    ",
"                    ",
"                    ",
"                    ",
"                    ",
"                    ",
"                    ",
"     .      X       ",
"    .XXo     .      ",
"     XXX     o.     ",
"     oX+.   .oo     ",
"       .++..+oo.    ",
"        +XXX++      ",
"        .XXX..      ",
"        .XXX..      ",
"    X  .++....      ",
"     .ooo+...       ",
"      .oo           ",
"        .           ",
"                    ",
"                    ",
"                    ",
"                    ",
"                    ",
"                    ",
"                    ",
"                    ",
"      ..            ",
"      +X+           ",
"      oXX.   X      ",
"      .XX     .     ",
"        ++    .     ",
"        ++. .o..    ",
"   X    +XX++oo     ",
"    .  .+XXX+oo     ",
"    .o.+XXX.+..     ",
"      o++....       ",
"      oo.....       ",
"      .  .          ",
"                    ",
"                    ",
"                    ",
"                    "};
