/* XPM */
static char * C0_xpm[] = {
"20 320 9 1",
" 	c None",
".	c #000078780000",
"X	c #0000FFFF0000",
"o	c #0000A0A00000",
"O	c #0000FFFF0000",
"+	c #0000C8C80000",
"@	c #000078780000",
"#	c #000078780000",
"$	c #000078780000",
"                    ",
"                    ",
"                    ",
"         ..         ",
"         XX         ",
"        oXXo        ",
"        .OO.        ",
"         ++         ",
"    O    ++    O    ",
"    .   .++.   .    ",
"    .o. +OO+ .o.    ",
"    .oo+OOOO+oo.    ",
"     oo+@XX@+oo     ",
"     . .@##@. .     ",
"        .$$.        ",
"                    ",
"                    ",
"                    ",
"                    ",
"                    ",
"                    ",
"                    ",
"                    ",
"            ..      ",
"           +X+      ",
"      O   .XX+      ",
"     .     OO.      ",
"     .    ++        ",
"    ..o. .++        ",
"     oo++OO+    O   ",
"     oo+OOO+.  .    ",
"     ..+@XOO+.o.    ",
"       @##@++oo.    ",
"       .$$@.oo      ",
"          .  .      ",
"                    ",
"                    ",
"                    ",
"                    ",
"                    ",
"                    ",
"                    ",
"                    ",
"                    ",
"       O      .     ",
"      .     oXX.    ",
"     .o     OXX     ",
"     oo.   .+Oo     ",
"    .oo+..++.       ",
"      ++OOO+        ",
"      .@XOO.        ",
"      @#XXO.        ",
"      $$#@++.  O    ",
"       $@.+ooo.     ",
"           oo.      ",
"           .        ",
"                    ",
"                    ",
"                    ",
"                    ",
"                    ",
"                    ",
"                    ",
"         O          ",
"      ...           ",
"      oo            ",
"    .oo.    .o+.    ",
"     o++.   OXX.    ",
"     .+O++++OX+     ",
"    .@@OOO++ .      ",
"     $#XOO.         ",
"     $#@O+          ",
"     .@+++.         ",
"       .ooo  O      ",
"       .oo...       ",
"          .         ",
"                    ",
"                    ",
"                    ",
"                    ",
"                    ",
"                    ",
"                    ",
"                    ",
"        ...O        ",
"      .ooo          ",
"       oo.          ",
"      .++           ",
"     .@@O+.  .o     ",
"     $#XOO+++OXX.   ",
"     $#XOO+++OXX.   ",
"     .@@O+.  .o     ",
"      .++           ",
"       oo.          ",
"      .ooo          ",
"        ...O        ",
"                    ",
"                    ",
"                    ",
"                    ",
"                    ",
"                    ",
"                    ",
"                    ",
"          .         ",
"       .oo...       ",
"       .ooo  O      ",
"     .@+++.         ",
"     $#@O+          ",
"     $#XOO.         ",
"    .@@OOO++ .      ",
"     .+O++++OX+     ",
"     o++.   OXX.    ",
"    .oo.    .++.    ",
"      oo            ",
"      ...           ",
"         O          ",
"                    ",
"                    ",
"                    ",
"                    ",
"                    ",
"                    ",
"                    ",
"           .        ",
"           oo.      ",
"       $@.+ooo.     ",
"      $$#@++.  O    ",
"      @#XXO.        ",
"      .@XOO.        ",
"      ++OOO+        ",
"    .oo+..++.       ",
"     oo.   .+Oo     ",
"     .o     OXX     ",
"      .     oXX.    ",
"       O      .     ",
"                    ",
"                    ",
"                    ",
"                    ",
"                    ",
"                    ",
"                    ",
"                    ",
"          .  .      ",
"       .$$@.oo      ",
"       @##@++o      ",
"     ..+@XOO+.o.    ",
"     oo+OOO+.  .    ",
"     oo++OO+    O   ",
"    ..o. .++        ",
"     .    ++        ",
"     .     OO.      ",
"      O   .XXo      ",
"           +X+      ",
"            ..      ",
"                    ",
"                    ",
"                    ",
"                    ",
"                    ",
"                    ",
"                    ",
"                    ",
"                    ",
"        .$$.        ",
"     . .@##@. .     ",
"     oo+@XX@+oo     ",
"    .oo+OOOO+oo.    ",
"    .o. +OO+ .o.    ",
"    .   .++.   .    ",
"    O    ++    O    ",
"         ++         ",
"        .OO.        ",
"        oXXo        ",
"         XX         ",
"         ..         ",
"                    ",
"                    ",
"                    ",
"                    ",
"                    ",
"                    ",
"                    ",
"      .  .          ",
"      oo.@$$.       ",
"    .oo++@##@       ",
"    .o.+OOX@+..     ",
"    .  .+OOO+oo     ",
"   O    +OO++oo     ",
"        ++. .o..    ",
"        ++    .     ",
"      .OO     .     ",
"      +XX.   O      ",
"      +X+           ",
"      ..            ",
"                    ",
"                    ",
"                    ",
"                    ",
"                    ",
"                    ",
"                    ",
"                    ",
"        .           ",
"      .oo           ",
"     .ooo+.@$       ",
"    O  .++@#$$      ",
"        .OXX#@      ",
"        .OOX@.      ",
"        +OOO++      ",
"       .++..+oo.    ",
"     oO+.   .oo     ",
"     XXO     o.     ",
"    .XXo     .      ",
"     .      O       ",
"                    ",
"                    ",
"                    ",
"                    ",
"                    ",
"                    ",
"                    ",
"                    ",
"         .          ",
"       ...oo.       ",
"      O  ooo.       ",
"         .+++@.     ",
"          +O@#$     ",
"         .OOX#$     ",
"      . ++OOO@@.    ",
"     +XO++++O+.     ",
"    .XXO   .++o     ",
"    .+o.    .oo.    ",
"            o       ",
"           ..       ",
"          O         ",
"                    ",
"                    ",
"                    ",
"                    ",
"                    ",
"                    ",
"                    ",
"        O...        ",
"          ooo.      ",
"          .oo       ",
"           ++.      ",
"     o.  .+O@@.     ",
"   .XXO+++OOX#$     ",
"   .XXO+++OOX#$     ",
"     o.  .+O@@.     ",
"           ++.      ",
"          .oo       ",
"          ooo.      ",
"        O...        ",
"                    ",
"                    ",
"                    ",
"                    ",
"                    ",
"                    ",
"                    ",
"          O         ",
"           ...      ",
"            oo      ",
"    .++.    .oo     ",
"    .XXO   .++o     ",
"     +XO++++O+.     ",
"      . ++OOO@@.    ",
"         .OOX#$     ",
"          +O@#$     ",
"         .+++@.     ",
"      O  ooo.       ",
"       ...oo.       ",
"         .          ",
"                    ",
"                    ",
"                    ",
"                    ",
"                    ",
"                    ",
"                    ",
"                    ",
"     .      O       ",
"    .XXo     .      ",
"     XXO     o.     ",
"     oO+.   .oo     ",
"       .++..+oo.    ",
"        +OOO++      ",
"        .OOX@.      ",
"        .OXX#@      ",
"    O  .++@#$$      ",
"     .ooo+.@$       ",
"      .oo           ",
"        .           ",
"                    ",
"                    ",
"                    ",
"                    ",
"                    ",
"                    ",
"                    ",
"                    ",
"      ..            ",
"      +X+           ",
"      oXX.   O      ",
"      .OO     .     ",
"        ++    .     ",
"        ++. .o..    ",
"   O    +OO++oo     ",
"    .  .+OOO+oo     ",
"    .o.+OOX@+..     ",
"      o++@##@       ",
"      oo.@$$.       ",
"      .  .          ",
"                    ",
"                    ",
"                    ",
"                    "};
