/* XPM */
static char * C9_xpm[] = {
"20 20 5 1",
" 	c None",
".	c #007800",
"X	c #00C800",
"o	c #00A000",
"+	c #00FF00",
"                    ",
"                    ",
"     ..      ..     ",
"    .Xo      oX.    ",
"     .oo    oo.     ",
"  .    oo  oo    .  ",
" .o    .XooX.    o. ",
"   oo ..X++X.. o.   ",
"    ..oX+  +Xo..    ",
"  ...oX+ .. +Xo...  ",
"  ...oX+ .. +Xo...  ",
"    ..oX+  +Xo..    ",
"   .o ..X++X.. o.   ",
" .o    .XooX.    o. ",
"  .    oo  oo    .  ",
"     .oo    oo.     ",
"    .Xo      oX.    ",
"     ..      ..     ",
"                    ",
"                    "};
