/* XPM */
static char * r000_xpm[] = {
"34 34 12 1",
" 	c None",
".	c #303030303030",
"X	c #404040404040",
"o	c #505050505050",
"O	c #606060606060",
"+	c #707070707070",
"@	c #808080808080",
"#	c #909090909090",
"$	c #A0A0A0A0A0A0",
"%	c #B0B0B0B0B0B0",
"&	c #D0D0D0D0D0D0",
"*	c #E0E0E0E0E0E0",
"                                  ",
"                                  ",
"           ..XooO+@@+o            ",
"         ..oooO+@#$$$#@+X         ",
"        .ooOO+@###$$$$$%$+X       ",
"      ..oOO+@@##$$$$##$&&%#X      ",
"      oooOOO+@@#$$$###$%&&&#X     ",
"     ooooooOO++@#$$$##$$%&&&@X    ",
"     XooooooOO+@##$$$###$%%%%@.   ",
"    oooooooOOOO@@@@##$$##$$$%#X   ",
"    XooooooOOOO+@@@@#####$$$$$O.  ",
"    .ooo+OoOOOOO++@@@####$$$$%@.  ",
"    XooO@@@++++++++@#####$$$$%#X  ",
"   .XooO+##@+++++++@#####$$$$%%+  ",
"   XooooO#$#@+++++@@####$$%%%&&@  ",
"  ooooooo@##@++++@####$$$$%%&&%@  ",
"  ooooooO+###+OO@#$$$$$$$$%&&&%@  ",
"  ooooooOO@$#@+O+#$$$$$#$%%&&%$@  ",
"  oooooooO#$#@+O+@######%%%&&%$@  ",
"  ooooooo+#$$@++@##@@@#$%&&&&%$O  ",
"  .Xoooooo#$$@++@#@@@@#$%&&&&&#X  ",
"   .oooooO+##@++@#@@@@#$%&&*&&@.  ",
"    Xoooo+@@@+++@##@@@#$&&&&&&+.  ",
"    .Xoo+@@+O+++@@@@@#$%&&&&&$o   ",
"    .XooO+Oo++++++@###$%&&&&&@.   ",
"     .XoOOo++@+++@####$%&**&#X    ",
"      .oOOo+++O+@######%&*&#X     ",
"      .XooooOOO+#$#####$&&#X      ",
"       .XooooOO+######$$$@X       ",
"         ..XoOO@@##$#@@@o.        ",
"           ..XoOO++@+X..          ",
"              .......             ",
"                                  ",
"                                  "};
