/* XPM */
static char * C9_xpm[] = {
"20 20 7 1",
" 	c None",
".	c #9191ACAC9191",
"X	c #A1A1C1C1A1A1",
"o	c #7F7F98987F7F",
"O	c #FFFF00000000",
"+	c #B0B0D0D0B0B0",
"@	c #0000FFFF0000",
"                    ",
"        .XXX.       ",
"      o.XXXX        ",
"   o    XXX  oXXO   ",
"    .   ....    X   ",
"     .X+ .. +X. X   ",
"  o  X   ..   X o   ",
"  .  +  .@@.  +   . ",
" .XX.  .X++X.  . XX ",
" XXX...@++++@...XXX ",
" XXX...@++++@...XXX ",
" XX .  .X++X. .XXX. ",
" .   +  .@@.  +  .  ",
"   o X   ..   X  o  ",
"   X .X+ .. +X.     ",
"   X    ....   .    ",
"   OXXo  XXX    o   ",
"        XXXX.o      ",
"       .XXX.        ",
"                    "};
