/* XPM */
static char * C3_xpm[] = {
"20 320 9 1",
" 	c None",
".	c #A0A0A0A00000",
"X	c #C8C8C8C80000",
"o	c #FFFFFFFF0000",
"O	c #787878780000",
"+	c #787878780000",
"@	c #787878780000",
"#	c #787878780000",
"$	c #787878780000",
"                    ",
"        ....        ",
"       .XXXX.       ",
"      .XXooXX.      ",
"      .XXooXX.      ",
"      .XXooXX.      ",
"       .XXXX.       ",
"        XOOX        ",
"      +  ..  +      ",
"      o @XX@ o      ",
"      o #XX# o      ",
"      o #XX# o      ",
"      o#@XX@#o      ",
"      o#@XX@#o      ",
"      o $XX$ o      ",
"      o  $$  o      ",
"      o      o      ",
"      o      o      ",
"      #      #      ",
"                    ",
"                    ",
"          #....     ",
"         #XXXXX.    ",
"         .XXooX.    ",
"         XXoooXX.   ",
"         .XooXX.    ",
"       +  XXXXX.    ",
"       o  OOX##     ",
"       X @X.        ",
"      X $#XX  +     ",
"      o##XX# X      ",
"     X###X.# o      ",
"     o $.X###X      ",
"     X @X.@#o       ",
"    X   #@  X       ",
"    o      o        ",
"           X        ",
"          X         ",
"                    ",
"                    ",
"                    ",
"                    ",
"            ....    ",
"           .XXXX.   ",
"           XXXoXX.  ",
"           .XoooX.  ",
"        +  XXooXX.  ",
"       o   OXXXXX.  ",
"      o  #..OX#X.   ",
"     o.##XX.        ",
"    o #@XXX#        ",
"   o  $XXX#  +      ",
"  o   .XX@# o       ",
"      $.$#.o        ",
"          o         ",
"         o          ",
"        o           ",
"       o            ",
"                    ",
"                    ",
"                    ",
"                    ",
"                    ",
"               .    ",
"             ..X..  ",
"          + #XXXXX. ",
"       XoX  #XXooX. ",
"     Xo#    XXoooX. ",
"   Xo ####X.OXooXX. ",
" #X   @#XXXXOXXXXX# ",
"     @XXXX#@  #X.#  ",
"     #XX##$         ",
"      @$## oX+      ",
"        #oX         ",
"      XoX           ",
"    oX              ",
"                    ",
"                    ",
"                    ",
"                    ",
"                    ",
"                    ",
"                    ",
"                    ",
"                    ",
"                    ",
" #ooooooooo+  ...   ",
"      ##     .XXX.  ",
"     $@@##@ XXXXXX. ",
"    $XXXXXX.OXoooX. ",
"    $XXXXXX.OXoooX. ",
"     $@@##@ XXXXXX. ",
"      ##     .XXX.  ",
" #ooooooooo+  ...   ",
"                    ",
"                    ",
"                    ",
"                    ",
"                    ",
"                    ",
"                    ",
"                    ",
"                    ",
"                    ",
"    oX              ",
"      XoX           ",
"        #oX         ",
"      @$## Xo+      ",
"     #X.##$         ",
"     @.XXX#@  .X.#  ",
"  X   @#.XXXOXXXXX# ",
"   Xo ####X.OXooXX. ",
"     Xo#    XXoooX. ",
"       XoX  #XXooX. ",
"          + #XXXXX. ",
"             ..X..  ",
"               .    ",
"                    ",
"                    ",
"                    ",
"                    ",
"                    ",
"       o            ",
"        o           ",
"         o          ",
"          o         ",
"      $.$#.o        ",
"  o   .XX@# o       ",
"   o  $XXX#  +      ",
"    o #@XXX#        ",
"     o.##XX.        ",
"      o  #..OX.X.   ",
"       o   OXXXXX.  ",
"        +  XXooXX.  ",
"           #XoooX.  ",
"           XXXoXX.  ",
"           .XXX..   ",
"            ....    ",
"                    ",
"                    ",
"                    ",
"          #         ",
"          X         ",
"           X        ",
"    o      o        ",
"    X   #@  X       ",
"     X @XX@#o       ",
"     o $XX###X      ",
"     X###XX# o      ",
"      o##XX# X      ",
"      X $#XX  +     ",
"       o @X.        ",
"       X  OOX##     ",
"       +  XXXXX.    ",
"         #XooXX.    ",
"         XXoooXX.   ",
"         .XXoXX.    ",
"         #XXXXX.    ",
"          #....     ",
"                    ",
"                    ",
"      #      #      ",
"      o      o      ",
"      o      o      ",
"      o  $$  o      ",
"      o $XX$ o      ",
"      o#@XX@#o      ",
"      o#@XX@#o      ",
"      o #XX# o      ",
"      o #XX# o      ",
"      o @XX@ o      ",
"      +  ..  +      ",
"        XOOX        ",
"       .XXXX.       ",
"      .XXooXX.      ",
"      .XXooXX.      ",
"      .XXooXX.      ",
"       .XXXX.       ",
"        ....        ",
"                    ",
"                    ",
"                    ",
"         o          ",
"        X           ",
"        o      o    ",
"       X  @#   X    ",
"       o#@.X@ X     ",
"      X###X.$ o     ",
"      o #.X###X     ",
"      X #XX##o      ",
"     +  XX#$ X      ",
"        .X@ X       ",
"     ##XOO  o       ",
"    .XXXXX  +       ",
"    .XXooX.         ",
"   .XXoooXX         ",
"    .XooXX.         ",
"    .XXXXX#         ",
"     ....#          ",
"                    ",
"                    ",
"                    ",
"            o       ",
"           o        ",
"          o         ",
"         o          ",
"        o.#$.$      ",
"       o #@XX.   o  ",
"      +  #XXX$  o   ",
"        #XXX@# o    ",
"        .XX##.o     ",
"   .X#XO..#  o      ",
"  .XXXXXO   o       ",
"  .XXooXX  +        ",
"  .XoooX.           ",
"  ..XoXXX           ",
"   .XXXX.           ",
"    ....            ",
"                    ",
"                    ",
"                    ",
"                    ",
"                    ",
"                    ",
"              XX    ",
"           XoX      ",
"         Xo#        ",
"      +Xo ##$@      ",
"         $##XX#     ",
"  #.X#  @#XXXX@     ",
" #XXXXXOXXXX#@   X# ",
" .XXooXO.X#### oX   ",
" .XoooXX    #oX     ",
" .XXoXX#  XoX       ",
" .XXXXX# +          ",
"  ..X..             ",
"    .               ",
"                    ",
"                    ",
"                    ",
"                    ",
"                    ",
"                    ",
"                    ",
"                    ",
"                    ",
"   ...  +ooooooooo# ",
"  .XXX.     ##      ",
" .XXXXXX @##@@$     ",
" .XoooXO.XXXXXX$    ",
" .XoooXO.XXXXXX$    ",
" .XXXXXX @##@@$     ",
"  .XXX.     ##      ",
"   ...  +ooooooooo# ",
"                    ",
"                    ",
"                    ",
"                    ",
"                    ",
"                    ",
"                    ",
"                    ",
"                    ",
"    .               ",
"  ..X..             ",
" .XXXXX# +          ",
" .XooXX#  XoX       ",
" .XoooXX    #oX     ",
" .XXooXO.X#### oX   ",
" #XXXXXOXXX.#@   o  ",
"  #.X.  @#XXX.@     ",
"         $##.X#     ",
"      +oX ##$@      ",
"         Xo#        ",
"           XoX      ",
"              Xo    ",
"                    ",
"                    ",
"                    ",
"                    ",
"                    ",
"                    ",
"    ....            ",
"   ..XXX.           ",
"  .XXoXXX           ",
"  .XoooX#           ",
"  .XXooXX  +        ",
"  .XXXXXO   o       ",
"   .X.XO..#  o      ",
"        .XX##.o     ",
"        #XXX@# o    ",
"      +  #XXX$  o   ",
"       o #@XX.   o  ",
"        o.#$.$      ",
"         o          ",
"          o         ",
"           o        ",
"            o       ",
"                    ",
"                    ",
"                    ",
"     ....#          ",
"    .XXXXX#         ",
"    .XXoXX.         ",
"   .XXoooXX         ",
"    .XXooX#         ",
"    .XXXXX  +       ",
"     ##XOO  X       ",
"        .X@ o       ",
"     +  XX#$ X      ",
"      X #XX##o      ",
"      o #XX###X     ",
"      X###XX$ o     ",
"       o#@XX@ X     ",
"       X  @#   X    ",
"        o      X    ",
"        X           ",
"         X          ",
"         #          ",
"                    "};
