/* XPM */
static char * C1_xpm[] = {
"20 320 8 1",
" 	c None",
".	c #A0A0A0A00000",
"X	c #C8C8C8C80000",
"o	c #FFFFFFFF0000",
"O	c #787878780000",
"+	c #787878780000",
"@	c #787878780000",
"#	c #787878780000",
"                    ",
"                    ",
"        ....        ",
"       .XXXX.       ",
"      ..XooX..      ",
"      ..XooX..      ",
"      ..XXXX..      ",
"       ..XX..       ",
"        ....        ",
"      O  ..  O      ",
"      .XXXX.X.      ",
"      . +@@+ .      ",
"      .      .      ",
"      .      .      ",
"      .      .      ",
"      .      .      ",
"      .      .      ",
"      #      #      ",
"                    ",
"                    ",
"                    ",
"                    ",
"          .X..#     ",
"         ..XXX#     ",
"        #.XoooX.    ",
"        #.XooX..    ",
"         ..XXX..    ",
"       O ..X...     ",
"       .  ....      ",
"      . XXX.        ",
"      . +@XXX O     ",
"     #    @+ .      ",
"     .       .      ",
"     #      .       ",
"    .       .       ",
"    #       #       ",
"           .        ",
"           .        ",
"                    ",
"                    ",
"                    ",
"                    ",
"                    ",
"           .....    ",
"          ...XX..   ",
"          ..XooX.   ",
"        O ..XooX.   ",
"       .X .XXXX..   ",
"      . XX..X....   ",
"     .  +XX.....    ",
"    .    @X.        ",
"   .      +XXO      ",
"  #         .       ",
"           .        ",
"          .         ",
"         .          ",
"        .           ",
"       #            ",
"                    ",
"                    ",
"                    ",
"                    ",
"                    ",
"                    ",
"             ...    ",
"         O  ...X..  ",
"       #.  ..XXoX.  ",
"    #.#  X ..XooX.  ",
"  #.    +X..XXooXX  ",
"        @XX...XX..  ",
"         @X .....   ",
"         +.   ##    ",
"           .O       ",
"         #.         ",
"      #.#           ",
"    #.              ",
"                    ",
"                    ",
"                    ",
"                    ",
"                    ",
"                    ",
"                    ",
"                    ",
"                    ",
"                    ",
"  #.......O  ...    ",
"         X  .....   ",
"        +X ..XXXX.  ",
"        @X..XXooX.  ",
"        @X..XXooX.  ",
"        +. ..XXXX.  ",
"         X  .....   ",
"  #.......O  ...    ",
"                    ",
"                    ",
"                    ",
"                    ",
"                    ",
"                    ",
"                    ",
"                    ",
"                    ",
"                    ",
"    #.              ",
"      #.#           ",
"         ..         ",
"           .O       ",
"         +X   ##    ",
"         @X .....   ",
"        @XX...XX..  ",
"  ..    +X..XXooXX  ",
"    #..  X ..XooX.  ",
"       ..  ..XXoX.  ",
"         O  ...X##  ",
"             ...    ",
"                    ",
"                    ",
"                    ",
"                    ",
"                    ",
"                    ",
"       #            ",
"        .           ",
"         .          ",
"          .         ",
"           .        ",
"  #         .       ",
"   .      +XXO      ",
"    .    @XX        ",
"     .  +XX.....    ",
"      . X...X....   ",
"       .X .XXXX..   ",
"        O ..XooX.   ",
"          ..XooX.   ",
"          ...XX..   ",
"           .....    ",
"                    ",
"                    ",
"                    ",
"                    ",
"                    ",
"           #        ",
"           .        ",
"    #       #       ",
"    .       .       ",
"     #      #       ",
"     .       #      ",
"     #    @+ .      ",
"      # +@XXX O     ",
"      . .XX.        ",
"       .  ....      ",
"       O ..X...     ",
"         ..XXX..    ",
"        #.XooX..    ",
"        #.XoooX.    ",
"         ..XX.#     ",
"          .X..#     ",
"                    ",
"                    ",
"                    ",
"                    ",
"      #      #      ",
"      .      .      ",
"      .      .      ",
"      .      .      ",
"      .      .      ",
"      .      .      ",
"      . +@@+ .      ",
"      .X.XXXX.      ",
"      O  ..  O      ",
"        ....        ",
"       ..XX..       ",
"      ..XXXX..      ",
"      ..XooX..      ",
"      ..XooX..      ",
"       .XXXX.       ",
"        ....        ",
"                    ",
"                    ",
"                    ",
"                    ",
"        .           ",
"        .           ",
"       #            ",
"       .       #    ",
"       .      #.    ",
"      .       .     ",
"      . +@    #     ",
"     O XXX@+ .      ",
"        .XXX .      ",
"      ....  .       ",
"     ...X.. O       ",
"    ..XXX..         ",
"    ..XooX.#        ",
"    .XoooX.#        ",
"     #XXX..         ",
"     #..X.          ",
"                    ",
"                    ",
"                    ",
"                    ",
"            #       ",
"           .        ",
"          .         ",
"         .          ",
"        .           ",
"       .         #  ",
"      OXX+      .   ",
"        .X@    .    ",
"    .....XX+  .     ",
"   ....X..XX .      ",
"   ..XXXX. X.       ",
"   .XooX.. O        ",
"   .XooX..          ",
"   ..XX...          ",
"    .....           ",
"                    ",
"                    ",
"                    ",
"                    ",
"                    ",
"                    ",
"                    ",
"              .#    ",
"           #.#      ",
"         .#         ",
"       O.           ",
"    ##   .+         ",
"   ..... X@         ",
"  ..XX...XX@        ",
"  XXooXX..X+    .#  ",
"  .XooX.. X  #.#    ",
"  ..oXX..  .#       ",
"  ##X...  O         ",
"    ...             ",
"                    ",
"                    ",
"                    ",
"                    ",
"                    ",
"                    ",
"                    ",
"                    ",
"                    ",
"                    ",
"    ...  O.......#  ",
"   .....  X         ",
"  .XXXX.. .+        ",
"  .XooXX..X@        ",
"  .XooXX..X@        ",
"  .XXXX.. X+        ",
"   .....  X         ",
"    ...  O.......#  ",
"                    ",
"                    ",
"                    ",
"                    ",
"                    ",
"                    ",
"                    ",
"                    ",
"                    ",
"                    ",
"    ...             ",
"  ##X...  O         ",
"  .XoXX..  ..       ",
"  .XooX.. X  ..#    ",
"  XXooXX..X+    ..  ",
"  ..XX...XX@        ",
"   ..... X@         ",
"    ##   X+         ",
"       O.           ",
"         ..         ",
"           #.#      ",
"             .#     ",
"                    ",
"                    ",
"                    ",
"                    ",
"                    ",
"                    ",
"                    ",
"    .....           ",
"   ..XX...          ",
"   .XooX..          ",
"   .XooX.. O        ",
"   ..XXXX. X.       ",
"   ....X...X .      ",
"    .....XX+  .     ",
"        XX@    .    ",
"      OXX+      .   ",
"       .         #  ",
"        .           ",
"         .          ",
"          .         ",
"           .        ",
"            #       ",
"                    ",
"                    ",
"                    ",
"                    ",
"     #..X.          ",
"     #.XX..         ",
"    .XoooX.#        ",
"    ..XooX.#        ",
"    ..XXX..         ",
"     ...X.. O       ",
"      ....  .       ",
"        .XX. .      ",
"     O XXX@+ #      ",
"      . +@    #     ",
"      #       .     ",
"       #      #     ",
"       .       .    ",
"       #       #    ",
"        .           ",
"        #           ",
"                    ",
"                    "};
