/* XPM */
static char * C5_xpm[] = {
"20 320 8 1",
" 	c None",
".	c #C8C8C8C80000",
"X	c #FFFFFFFF0000",
"o	c #787878780000",
"O	c #A0A0A0A00000",
"+	c #787878780000",
"@	c #787878780000",
"#	c #A0A0A0A00000",
"                    ",
"       .XXXX.   o   ",
"  o ...  OO  Oo Oo  ",
"   O     OO  +..OOo ",
"  . .Oo  OO  O.@.   ",
"  . O..ooOOo O...o  ",
"  . o..ooOOoo.OO+O  ",
" .   ooO#..#Oo    X ",
" X   oo#.XX.#oo   X ",
" XOOOOO.XXXX.OOOOOX ",
" XOOOOO.XXXX.OOOOOX ",
" X   oo#.XX.#oo   X ",
" .    oO#..#Ooo   . ",
"  O+OO.ooOOooO.o .  ",
"  o...O oOOoo..O .  ",
"   .@.O  OO  oOO .  ",
" oOO..+  OO     O   ",
"  oO oO  OO  ... o  ",
"   o   .XXXX.       ",
"                    ",
"                    ",
"       .XXXX.   o   ",
"  o ...  OO  Oo Oo  ",
"   O     OO  +..OOo ",
"  . .Oo  OO  O.@.   ",
"  . O..ooOOo O...o  ",
"  . o..ooOOoo.OO+O  ",
" .   ooO#..#Oo    X ",
" X   oo#.XX.#oo   X ",
" XOOOOO.XXXX.OOOOOX ",
" XOOOOO.XXXX.OOOOOX ",
" X   oo#.XX.#oo   X ",
" .    oO#..#Ooo   . ",
"  O+OO.ooOOooO.o .  ",
"  o...O oOOoo..O .  ",
"   .@.O  OO  oOO .  ",
" oOO..+  OO     O   ",
"  oO oO  OO  ... o  ",
"   o   .XXXX.       ",
"                    ",
"                    ",
"       .XXXX.   o   ",
"  o ...  OO  Oo Oo  ",
"   O     OO  +..OOo ",
"  . .Oo  OO  O.@.   ",
"  . O..ooOOo O...o  ",
"  . o..ooOOoo.OO+O  ",
" .   ooO#..#Oo    X ",
" X   oo#.XX.#oo   X ",
" XOOOOO.XXXX.OOOOOX ",
" XOOOOO.XXXX.OOOOOX ",
" X   oo#.XX.#oo   X ",
" .    oO#..#Ooo   . ",
"  O+OO.ooOOooO.o .  ",
"  o...O oOOoo..O .  ",
"   .@.O  OO  oOO .  ",
" oOO..+  OO     O   ",
"  oO oO  OO  ... o  ",
"   o   .XXXX.       ",
"                    ",
"                    ",
"       .XXXX.   o   ",
"  o ...  OO  Oo Oo  ",
"   O     OO  +..OOo ",
"  . .Oo  OO  O.@.   ",
"  . O..ooOOo O...o  ",
"  . o..ooOOoo.OO+O  ",
" .   ooO#..#Oo    X ",
" X   oo#.XX.#oo   X ",
" XOOOOO.XXXX.OOOOOX ",
" XOOOOO.XXXX.OOOOOX ",
" X   oo#.XX.#oo   X ",
" .    oO#..#Ooo   . ",
"  O+OO.ooOOooO.o .  ",
"  o...O oOOoo..O .  ",
"   .@.O  OO  oOO .  ",
" oOO..+  OO     O   ",
"  oO oO  OO  ... o  ",
"   o   .XXXX.       ",
"                    ",
"                    ",
"       .XXXX.   o   ",
"  o ...  OO  Oo Oo  ",
"   O     OO  +..OOo ",
"  . .Oo  OO  O.@.   ",
"  . O..ooOOo O...o  ",
"  . o..ooOOoo.OO+O  ",
" .   ooO#..#Oo    X ",
" X   oo#.XX.#oo   X ",
" XOOOOO.XXXX.OOOOOX ",
" XOOOOO.XXXX.OOOOOX ",
" X   oo#.XX.#oo   X ",
" .    oO#..#Ooo   . ",
"  O+OO.ooOOooO.o .  ",
"  o...O oOOoo..O .  ",
"   .@.O  OO  oOO .  ",
" oOO..+  OO     O   ",
"  oO oO  OO  ... o  ",
"   o   .XXXX.       ",
"                    ",
"                    ",
"       .XXXX.   o   ",
"  o ...  OO  Oo Oo  ",
"   O     OO  +..OOo ",
"  . .Oo  OO  O.@.   ",
"  . O..ooOOo O...o  ",
"  . o..ooOOoo.OO+O  ",
" .   ooO#..#Oo    X ",
" X   oo#.XX.#oo   X ",
" XOOOOO.XXXX.OOOOOX ",
" XOOOOO.XXXX.OOOOOX ",
" X   oo#.XX.#oo   X ",
" .    oO#..#Ooo   . ",
"  O+OO.ooOOooO.o .  ",
"  o...O oOOoo..O .  ",
"   .@.O  OO  oOO .  ",
" oOO..+  OO     O   ",
"  oO oO  OO  ... o  ",
"   o   .XXXX.       ",
"                    ",
"                    ",
"       .XXXX.   o   ",
"  o ...  OO  Oo Oo  ",
"   O     OO  +..OOo ",
"  . .Oo  OO  O.@.   ",
"  . O..ooOOo O...o  ",
"  . o..ooOOoo.OO+O  ",
" .   ooO#..#Oo    X ",
" X   oo#.XX.#oo   X ",
" XOOOOO.XXXX.OOOOOX ",
" XOOOOO.XXXX.OOOOOX ",
" X   oo#.XX.#oo   X ",
" .    oO#..#Ooo   . ",
"  O+OO.ooOOooO.o .  ",
"  o...O oOOoo..O .  ",
"   .@.O  OO  oOO .  ",
" oOO..+  OO     O   ",
"  oO oO  OO  ... o  ",
"   o   .XXXX.       ",
"                    ",
"                    ",
"       .XXXX.   o   ",
"  o ...  OO  Oo Oo  ",
"   O     OO  +..OOo ",
"  . .Oo  OO  O.@.   ",
"  . O..ooOOo O...o  ",
"  . o..ooOOoo.OO+O  ",
" .   ooO#..#Oo    X ",
" X   oo#.XX.#oo   X ",
" XOOOOO.XXXX.OOOOOX ",
" XOOOOO.XXXX.OOOOOX ",
" X   oo#.XX.#oo   X ",
" .    oO#..#Ooo   . ",
"  O+OO.ooOOooO.o .  ",
"  o...O oOOoo..O .  ",
"   .@.O  OO  oOO .  ",
" oOO..+  OO     O   ",
"  oO oO  OO  ... o  ",
"   o   .XXXX.       ",
"                    ",
"                    ",
"       .XXXX.   o   ",
"  o ...  OO  Oo Oo  ",
"   O     OO  +..OOo ",
"  . .Oo  OO  O.@.   ",
"  . O..ooOOo O...o  ",
"  . o..ooOOoo.OO+O  ",
" .   ooO#..#Oo    X ",
" X   oo#.XX.#oo   X ",
" XOOOOO.XXXX.OOOOOX ",
" XOOOOO.XXXX.OOOOOX ",
" X   oo#.XX.#oo   X ",
" .    oO#..#Ooo   . ",
"  O+OO.ooOOooO.o .  ",
"  o...O oOOoo..O .  ",
"   .@.O  OO  oOO .  ",
" oOO..+  OO     O   ",
"  oO oO  OO  ... o  ",
"   o   .XXXX.       ",
"                    ",
"                    ",
"       .XXXX.   o   ",
"  o ...  OO  Oo Oo  ",
"   O     OO  +..OOo ",
"  . .Oo  OO  O.@.   ",
"  . O..ooOOo O...o  ",
"  . o..ooOOoo.OO+O  ",
" .   ooO#..#Oo    X ",
" X   oo#.XX.#oo   X ",
" XOOOOO.XXXX.OOOOOX ",
" XOOOOO.XXXX.OOOOOX ",
" X   oo#.XX.#oo   X ",
" .    oO#..#Ooo   . ",
"  O+OO.ooOOooO.o .  ",
"  o...O oOOoo..O .  ",
"   .@.O  OO  oOO .  ",
" oOO..+  OO     O   ",
"  oO oO  OO  ... o  ",
"   o   .XXXX.       ",
"                    ",
"                    ",
"       .XXXX.   o   ",
"  o ...  OO  Oo Oo  ",
"   O     OO  +..OOo ",
"  . .Oo  OO  O.@.   ",
"  . O..ooOOo O...o  ",
"  . o..ooOOoo.OO+O  ",
" .   ooO#..#Oo    X ",
" X   oo#.XX.#oo   X ",
" XOOOOO.XXXX.OOOOOX ",
" XOOOOO.XXXX.OOOOOX ",
" X   oo#.XX.#oo   X ",
" .    oO#..#Ooo   . ",
"  O+OO.ooOOooO.o .  ",
"  o...O oOOoo..O .  ",
"   .@.O  OO  oOO .  ",
" oOO..+  OO     O   ",
"  oO oO  OO  ... o  ",
"   o   .XXXX.       ",
"                    ",
"                    ",
"       .XXXX.   o   ",
"  o ...  OO  Oo Oo  ",
"   O     OO  +..OOo ",
"  . .Oo  OO  O.@.   ",
"  . O..ooOOo O...o  ",
"  . o..ooOOoo.OO+O  ",
" .   ooO#..#Oo    X ",
" X   oo#.XX.#oo   X ",
" XOOOOO.XXXX.OOOOOX ",
" XOOOOO.XXXX.OOOOOX ",
" X   oo#.XX.#oo   X ",
" .    oO#..#Ooo   . ",
"  O+OO.ooOOooO.o .  ",
"  o...O oOOoo..O .  ",
"   .@.O  OO  oOO .  ",
" oOO..+  OO     O   ",
"  oO oO  OO  ... o  ",
"   o   .XXXX.       ",
"                    ",
"                    ",
"       .XXXX.   o   ",
"  o ...  OO  Oo Oo  ",
"   O     OO  +..OOo ",
"  . .Oo  OO  O.@.   ",
"  . O..ooOOo O...o  ",
"  . o..ooOOoo.OO+O  ",
" .   ooO#..#Oo    X ",
" X   oo#.XX.#oo   X ",
" XOOOOO.XXXX.OOOOOX ",
" XOOOOO.XXXX.OOOOOX ",
" X   oo#.XX.#oo   X ",
" .    oO#..#Ooo   . ",
"  O+OO.ooOOooO.o .  ",
"  o...O oOOoo..O .  ",
"   .@.O  OO  oOO .  ",
" oOO..+  OO     O   ",
"  oO oO  OO  ... o  ",
"   o   .XXXX.       ",
"                    ",
"                    ",
"       .XXXX.   o   ",
"  o ...  OO  Oo Oo  ",
"   O     OO  +..OOo ",
"  . .Oo  OO  O.@.   ",
"  . O..ooOOo O...o  ",
"  . o..ooOOoo.OO+O  ",
" .   ooO#..#Oo    X ",
" X   oo#.XX.#oo   X ",
" XOOOOO.XXXX.OOOOOX ",
" XOOOOO.XXXX.OOOOOX ",
" X   oo#.XX.#oo   X ",
" .    oO#..#Ooo   . ",
"  O+OO.ooOOooO.o .  ",
"  o...O oOOoo..O .  ",
"   .@.O  OO  oOO .  ",
" oOO..+  OO     O   ",
"  oO oO  OO  ... o  ",
"   o   .XXXX.       ",
"                    ",
"                    ",
"       .XXXX.   o   ",
"  o ...  OO  Oo Oo  ",
"   O     OO  +..OOo ",
"  . .Oo  OO  O.@.   ",
"  . O..ooOOo O...o  ",
"  . o..ooOOoo.OO+O  ",
" .   ooO#..#Oo    X ",
" X   oo#.XX.#oo   X ",
" XOOOOO.XXXX.OOOOOX ",
" XOOOOO.XXXX.OOOOOX ",
" X   oo#.XX.#oo   X ",
" .    oO#..#Ooo   . ",
"  O+OO.ooOOooO.o .  ",
"  o...O oOOoo..O .  ",
"   .@.O  OO  oOO .  ",
" oOO..+  OO     O   ",
"  oO oO  OO  ... o  ",
"   o   .XXXX.       ",
"                    ",
"                    ",
"       .XXXX.   o   ",
"  o ...  OO  Oo Oo  ",
"   O     OO  +..OOo ",
"  . .Oo  OO  O.@.   ",
"  . O..ooOOo O...o  ",
"  . o..ooOOoo.OO+O  ",
" .   ooO#..#Oo    X ",
" X   oo#.XX.#oo   X ",
" XOOOOO.XXXX.OOOOOX ",
" XOOOOO.XXXX.OOOOOX ",
" X   oo#.XX.#oo   X ",
" .    oO#..#Ooo   . ",
"  O+OO.ooOOooO.o .  ",
"  o...O oOOoo..O .  ",
"   .@.O  OO  oOO .  ",
" oOO..+  OO     O   ",
"  oO oO  OO  ... o  ",
"   o   .XXXX.       ",
"                    "};
